<?xml version="1.0" encoding="UTF-8"?>
<svg id="Layer_2" data-name="Layer 2" xmlns="http://www.w3.org/2000/svg" version="1.1" viewBox="0 0 240 240">
  <defs>
    <style>
      .cls-1 {
        fill: #93d37f;
      }

      .cls-1, .cls-2, .cls-3 {
        stroke-width: 0px;
      }

      .cls-2 {
        fill: #ffde1a;
      }

      .cls-3 {
        fill: #fff;
      }
    </style>
  </defs>
  <g id="FINAL">
    <path class="cls-1" d="M120,240c-32,0-62.2-12.5-84.9-35.1C12.5,182.2,0,152,0,120S12.5,57.8,35.1,35.1C57.8,12.5,87.9,0,120,0s62.2,12.5,84.9,35.1c22.7,22.7,35.1,52.8,35.1,84.9s-12.5,62.2-35.1,84.9c-22.7,22.7-52.8,35.1-84.9,35.1h0Z"/>
    <g>
      <path class="cls-2" d="M173.3,138.1c-7.6,22.7-29,39-54.2,39s-57.1-25.6-57.1-57.1,25.6-57.1,57.1-57.1,2.4,0,3.6.1c-.7.4-1.4.8-2.2,1.3-6.9,4.5-14.3,10.8-19,19.4-4.6,8.5-6.1,22.6-1.3,34.9,1.3,3.2,2.8,6.1,4.4,8.6,7.5,11.5,18.1,15.8,26.6,16.2,6.7.3,12.2-1.2,17.3-2.8,5.1-1.6,9.9-3.5,15.3-4.1,3.4-.4,6.4,0,9.4,1.5h0Z"/>
      <path class="cls-2" d="M176.3,120c0,4.9-.6,9.8-1.8,14.3-3.5-1.6-7.1-2.1-11-1.6h0c-6,.7-11.1,2.6-16.1,4.2-5,1.6-9.9,2.9-15.9,2.6-7.5-.4-16.8-4-23.6-14.5-1.5-2.3-2.9-4.9-4.1-7.9-4.5-11-3-24.4,1.1-31.6,4.2-7.7,11.2-13.7,17.7-18,2.4-1.6,4.6-2.7,6.7-3.7,26.6,4.8,46.9,28.2,46.9,56.2h0Z"/>
    </g>
    <g>
      <g>
        <path class="cls-3" d="M41.8,161.3l7.7,11.9,7-1.2,2.9,4.6-30.8,4.6-2.8-4.4,16.9-26.1,3,4.6-4,5.9h0ZM39.2,165l-7.5,11.2,13.3-2.2-5.8-9h0Z"/>
        <path class="cls-3" d="M31.8,127.9l2.4,14,6.9,1.6.9,5.3-30.1-7.8-.9-5.1,25.8-17.4.9,5.4-6,3.9h0ZM28,130.3l-11.3,7.3,13.1,3.1-1.8-10.5h0Z"/>
        <path class="cls-3" d="M41,97.9l-9.2,4.2c0,.4,0,.7-.2,1.1l-1.2,6.3,8.1,1.5-.9,5.2-27.9-5.1,2.1-11.5c1.4-7.3,5.9-11.2,12.1-10,4.2.8,6.9,3.5,7.7,7.6l10.3-4.7-1,5.6h0ZM16.2,100.6l-1.1,6.1,11.1,2.1,1.1-6.1c.8-4.5-.8-7.3-4.3-7.9s-6,1.3-6.8,5.9h0Z"/>
        <path class="cls-3" d="M31.4,86.1l-14-7.7,2.5-4.6,13.9,7.6c5.1,2.8,8.6,1.7,10.8-2.3s1.2-7.5-3.9-10.3l-13.9-7.6,2.5-4.5,14,7.7c7.2,4,8.9,10.2,5.2,17-3.7,6.8-9.9,8.8-17.2,4.8h0Z"/>
        <path class="cls-3" d="M58.9,40.3c4.4,4.5,3.8,10.4-1.6,15.7l-4.6,4.5,5.7,5.8-3.8,3.7-19.9-20.2,8.3-8.2c5.3-5.2,11.3-5.7,15.7-1.2h0ZM55.1,44c-2.5-2.5-5.6-2.4-8.9.9l-4.4,4.3,7.9,8.1,4.4-4.3c3.3-3.2,3.6-6.4,1.1-8.9h0Z"/>
        <path class="cls-3" d="M77,24l-8.7,3.6-1.7-4.1,22.3-9.1,1.7,4.1-8.7,3.6,9,22.1-4.9,2-9-22.1h0Z"/>
        <path class="cls-3" d="M120.5,34l.5,4.4-21.1,2.5-3.3-28.2,20.6-2.4.5,4.4-15.3,1.8.9,7.3,13.6-1.6.5,4.3-13.6,1.6.9,7.8,15.9-1.9h0Z"/>
        <path class="cls-3" d="M154.4,15.9l-5.9,27.7-4.2-.9-11.3-22.1-4,18.8-5.1-1.1,5.9-27.7,4.2.9,11.3,22.1,4-18.8,5.1,1.1h0Z"/>
        <path class="cls-3" d="M188.1,34.3l-15.2,24-3.7-2.3-3-24.6-10.3,16.2-4.4-2.8,15.2-24,3.7,2.3,3,24.6,10.3-16.2,4.4,2.8Z"/>
        <path class="cls-3" d="M195.6,42l3.7,3.8-20.3,19.8-3.7-3.8,20.3-19.8Z"/>
        <path class="cls-3" d="M183.3,64.9l4.4-.7c-.3,2.9.6,6.6,2.5,9.6,2.4,3.7,4.8,4.4,6.5,3.3,5.1-3.3-7.4-15.3,1.4-21,3.8-2.5,9.1-1.6,13.3,5,1.9,2.9,3.1,6.3,3,9.3l-4.3.8c-.1-2.9-1.1-5.7-2.4-7.8-2.4-3.7-4.8-4.2-6.6-3.1-5.1,3.3,7.4,15.3-1.4,20.9-3.8,2.5-9.1,1.5-13.3-5-2.4-3.7-3.6-8.2-3.2-11.2h0Z"/>
        <path class="cls-3" d="M207.8,92.8l-5.7-3-7,2-1.5-5.1,27.2-8,1.5,5.1-14,4.1,17.9,9.4,1.7,5.7-15.5-7.9-11.5,16.5-1.7-5.9,8.6-12.9h0Z"/>
        <path class="cls-3" d="M228.5,114.3v5.3c-.1,0-24-.6-24-.6l-.4,14.8h-4.5c0-.1.5-20.2.5-20.2l28.4.7h0Z"/>
        <path class="cls-3" d="M211.5,137.6l15.2,5.1-1.6,5-15-5c-5.5-1.8-8.8-.1-10.2,4.2s.1,7.6,5.7,9.4l15,5-1.6,4.9-15.2-5.1c-7.8-2.6-10.6-8.5-8.2-15.8,2.5-7.4,8.2-10.4,16-7.8h0Z"/>
        <path class="cls-3" d="M183.1,182.7c-3.9-2.8-4-7.6.2-13.5l8.2-11.5,23,16.6-7.8,10.8c-4,5.5-8.4,6.8-12.1,4.2-2.4-1.7-3.3-4.1-2.9-6.6-2.6,1.9-5.7,2.2-8.7,0h0ZM186.6,178.7c2.3,1.6,4.6.6,6.9-2.6l5-6.9-6.6-4.8-5,6.9c-2.3,3.2-2.6,5.7-.2,7.3h0ZM208.2,176.2l-6.3-4.6-4.3,6.1c-2.1,3-2.3,5.4-.2,6.9,2.1,1.5,4.4.6,6.5-2.4l4.3-6.1h0Z"/>
      </g>
      <g>
        <path class="cls-3" d="M48.9,190.7c1.7-1.9,4.4-1.9,6.2-.3,1.7,1.6,2,4.3.3,6.2-1.8,1.9-4.5,1.9-6.2.3-1.7-1.6-2-4.3-.2-6.2h0Z"/>
        <path class="cls-3" d="M86.4,195.8l-12.5,25.5-4.7-2.3,10.5-21.5-5.4-2.6,1.9-4,10.1,4.9h0Z"/>
        <path class="cls-3" d="M106.3,215.9c-2.4,9.4-9.2,13.2-17.2,11.3-2.8-.7-5.2-1.9-6.8-3.6l2.8-3.4c1.2,1.4,3,2.2,4.9,2.6,5.2,1.3,9.3-1.1,10.8-7.3h0c-2.1,1.5-5,1.8-8.1,1-5.4-1.4-8.6-5.7-7.3-10.8,1.4-5.5,6.7-7.8,12.3-6.4,7.5,1.9,10.7,7.8,8.5,16.7h0ZM101.7,209.4c.6-2.6-.9-5.2-4.5-6.1-3.2-.8-5.8.5-6.6,3.3-.7,2.9,1,5.2,4.3,6.1,3.3.8,6.1-.6,6.8-3.3h0Z"/>
        <path class="cls-3" d="M131.3,202.2v3.5c0,0-10.6,25-10.6,25h-5.6c0,0,10.3-24,10.3-24l-11.1.2v4.8c0,0-4.8,0-4.8,0l-.2-9.3,22-.4h0Z"/>
        <path class="cls-3" d="M159.4,214.6c1.4,4.6-.8,9.6-8.1,11.9-3.8,1.2-8,1.2-11.2,0l.9-4.6c2.4,1,5.7,1.1,8.8.2,3.6-1.1,5.2-3.4,4.4-5.9-.8-2.4-3-3.5-7.1-2.2l-2.5.8-1.1-3.4,3.9-9.2-12.3,3.9-1.3-4.2,18.5-5.8,1.1,3.4-4.1,9.9c5.3-.9,8.9,1.3,10.1,5.3h0Z"/>
        <path class="cls-3" d="M174.4,202.9c-1.5-2.1-1-4.7.9-6.1s4.6-1.1,6.1.9,1,4.8-.9,6.2-4.6,1.1-6.1-1h0Z"/>
      </g>
    </g>
    <path class="cls-3" d="M170.6,68.5c-13.8-13.8-32-21.3-51.5-21.3s-37.7,7.6-51.5,21.3c-13.8,13.8-21.3,32-21.3,51.5s7.6,37.7,21.3,51.5c13.8,13.8,32,21.3,51.5,21.3s37.7-7.6,51.5-21.3c13.8-13.8,21.3-32,21.3-51.5s-7.6-37.7-21.3-51.5h0ZM176.3,120c0,4.9-.6,9.8-1.8,14.3-3.5-1.6-7.1-2.1-11-1.6h0c-6,.7-11.1,2.6-16.1,4.2-5,1.6-9.9,2.9-15.9,2.6-7.5-.4-16.8-4-23.6-14.5-1.5-2.3-2.9-4.9-4.1-7.9-4.5-11-3-24.4,1.1-31.6,4.2-7.7,11.2-13.7,17.7-18,2.4-1.6,4.6-2.7,6.7-3.7,26.6,4.8,46.9,28.2,46.9,56.2h0ZM119.1,177.1c-31.5,0-57.1-25.6-57.1-57.1s25.6-57.1,57.1-57.1,2.4,0,3.6.1c-.7.4-1.4.8-2.2,1.3-6.9,4.5-14.3,10.8-19,19.4-4.6,8.5-6.1,22.6-1.3,34.9,1.3,3.2,2.8,6.1,4.4,8.6,7.5,11.5,18.1,15.8,26.6,16.2,6.7.3,12.2-1.2,17.3-2.8,5.1-1.6,9.9-3.5,15.3-4.1,3.4-.4,6.4,0,9.4,1.5-7.6,22.7-29,39-54.2,39h0Z"/>
  </g>
</svg>