<?xml version="1.0" encoding="UTF-8"?>
<svg id="Layer_2" data-name="Layer 2" xmlns="http://www.w3.org/2000/svg" version="1.1" viewBox="0 0 888.4 888.4">
  <defs>
    <style>
      .cls-1 {
        fill: #93d37f;
      }

      .cls-1, .cls-2, .cls-3 {
        stroke-width: 0px;
      }

      .cls-2 {
        fill: #ffde1a;
      }

      .cls-3 {
        fill: #fff;
      }
    </style>
  </defs>
  <g id="FINAL">
    <path class="cls-1" d="M444.2,888.4c-118.6,0-230.2-46.2-314.1-130.1C46.2,674.4,0,562.8,0,444.2S46.2,214,130.1,130.1C214,46.2,325.5,0,444.2,0s230.2,46.2,314.1,130.1c83.9,83.9,130.1,195.4,130.1,314.1s-46.2,230.2-130.1,314.1c-83.9,83.9-195.5,130.1-314.1,130.1h0Z"/>
    <g>
      <path class="cls-2" d="M641.6,511.2c-28.1,83.9-107.4,144.5-200.6,144.5s-211.5-94.9-211.5-211.5,94.9-211.5,211.5-211.5,8.9.1,13.2.4c-2.5,1.4-5.1,2.8-8,4.7-25.6,16.6-53.1,40.1-70.5,71.7-17.2,31.6-22.6,83.7-4.7,129.3,4.7,11.9,10.2,22.5,16.3,31.8,27.6,42.6,66.9,58.6,98.6,60.1,24.8,1.2,45.2-4.3,64.1-10.4,19-6.1,36.6-12.8,56.7-15,12.7-1.3,23.8.1,34.9,5.7h0Z"/>
      <path class="cls-2" d="M652.5,444.2c0,18.3-2.3,36.1-6.7,53-13-6-26.1-7.8-40.6-6.1h0c-22.3,2.5-41,9.6-59.5,15.6-18.5,5.9-36.8,10.8-59,9.7-27.6-1.4-62.1-14.9-87.2-53.6-5.5-8.5-10.6-18.2-15-29.3-16.5-40.9-11-90.3,3.9-117,15.7-28.6,41.3-50.8,65.7-66.6,9-5.9,17.1-10.1,24.8-13.8,98.6,17.9,173.7,104.4,173.7,208.1h0Z"/>
    </g>
    <g>
      <g>
        <path class="cls-3" d="M154.6,597.1l28.4,44.2,26-4.4,10.9,16.9-113.9,17-10.4-16.2,62.7-96.6,11,17.2-14.8,22h0ZM145.2,610.8l-27.9,41.5,49.2-8.3-21.3-33.2h0Z"/>
        <path class="cls-3" d="M117.7,473.5l8.8,51.7,25.7,6.1,3.4,19.8-111.5-28.9-3.2-18.9,95.5-64.4,3.4,20.1-22.2,14.4h0ZM103.7,482.4l-41.9,27.2,48.5,11.6-6.7-38.9h0Z"/>
        <path class="cls-3" d="M151.7,362.4l-34.1,15.5c0,1.4-.3,2.7-.6,4l-4.3,23.3,30.1,5.5-3.5,19.2-103.3-19,7.8-42.5c5-27.1,22-41.4,44.8-37.2,15.6,2.9,25.7,13,28.6,28l38.3-17.5-3.8,20.6ZM59.9,372.3l-4.1,22.4,41.2,7.6,4.1-22.4c3.1-16.8-3-26.9-16-29.3-13-2.4-22.1,4.9-25.2,21.8Z"/>
        <path class="cls-3" d="M116.2,318.8l-51.9-28.5,9.4-17.1,51.3,28.1c18.9,10.4,31.8,6.3,39.9-8.6s4.6-27.8-14.3-38.1l-51.3-28.1,9.2-16.8,51.9,28.5c26.8,14.7,33.1,37.8,19.4,63-13.8,25.2-36.7,32.4-63.6,17.7h0Z"/>
        <path class="cls-3" d="M217.9,149c16.2,16.5,13.9,38.6-5.8,58l-16.9,16.6,21.2,21.6-13.9,13.7-73.5-74.9,30.8-30.3c19.7-19.3,41.8-21.2,58.1-4.6h0ZM203.9,162.7c-9.2-9.4-20.9-8.7-33.1,3.3l-16.3,16,29.2,29.8,16.3-16c12.2-12,13.2-23.6,3.9-33.1h0Z"/>
        <path class="cls-3" d="M285.1,88.9l-32.2,13.2-6.2-15.3,82.5-33.7,6.2,15.3-32.2,13.2,33.5,81.9-18,7.4-33.5-81.9h0Z"/>
        <path class="cls-3" d="M446.1,125.8l1.9,16.2-78.2,9.2-12.2-104.3,76.1-8.9,1.9,16.2-56.8,6.7,3.2,27.1,50.4-5.9,1.9,15.9-50.4,5.9,3.4,28.8,58.8-6.9h0Z"/>
        <path class="cls-3" d="M571.6,58.7l-22,102.7-15.7-3.4-41.7-81.7-14.9,69.5-18.9-4.1,22-102.7,15.7,3.4,41.7,81.7,14.9-69.5,18.9,4.1h0Z"/>
        <path class="cls-3" d="M696.1,127.1l-56.1,88.8-13.6-8.6-11-91-38,60.1-16.4-10.3,56.1-88.8,13.6,8.6,11,91,38-60.1s16.4,10.3,16.4,10.3Z"/>
        <path class="cls-3" d="M724.1,155.5l13.6,14-75.3,73.2-13.6-14,75.3-73.2Z"/>
        <path class="cls-3" d="M678.6,240.2l16.4-2.6c-1.1,10.7,2.2,24.5,9.2,35.4,8.9,13.7,17.6,16.3,24.1,12.1,19-12.3-27.4-56.6,5.3-77.8,14.2-9.2,33.7-5.8,49.3,18.4,6.9,10.6,11.3,23.4,11.2,34.4l-16.1,3.1c-.5-10.9-3.9-21.1-8.8-28.8-8.8-13.6-17.7-15.7-24.4-11.4-18.8,12.2,27.4,56.5-5,77.5-14.1,9.1-33.6,5.5-49.3-18.6-8.9-13.7-13.5-30.2-12-41.6h0Z"/>
        <path class="cls-3" d="M769.2,343.4l-21.1-11.2-25.8,7.5-5.5-18.7,100.8-29.5,5.5,18.7-51.7,15.1,66.3,34.7,6.2,21-57.4-29.1-42.6,61.2-6.4-21.9,31.8-47.9h0Z"/>
        <path class="cls-3" d="M845.9,423l-.5,19.5-88.5-2.1-1.3,54.9-16.5-.4,1.8-74.4,105,2.5h0Z"/>
        <path class="cls-3" d="M783,509.4l56.2,18.7-6.1,18.5-55.5-18.4c-20.5-6.8-32.4-.5-37.7,15.6s.5,28.1,21,34.9l55.5,18.4-6,18.2-56.2-18.7c-29-9.6-39.4-31.3-30.4-58.5,9.1-27.3,30.3-38.5,59.3-28.8h0Z"/>
        <path class="cls-3" d="M677.8,676.3c-14.6-10.5-14.9-28.1.9-50l30.5-42.4,85.2,61.3-28.7,39.9c-14.7,20.5-31.2,25.2-44.8,15.5-8.8-6.3-12.1-15.3-10.9-24.5-9.5,7-21.1,8.1-32.2,0h0ZM690.9,661.5c8.5,6.1,16.9,2.4,25.5-9.5l18.4-25.6-24.6-17.7-18.4,25.6c-8.6,11.9-9.5,21.1-.9,27.2h0ZM770.6,652.1l-23.5-16.9-16.1,22.4c-7.9,11-8.5,20-.7,25.6,7.9,5.7,16.3,2.3,24.2-8.7l16.1-22.4h0Z"/>
      </g>
      <g>
        <path class="cls-3" d="M181.1,705.8c6.4-7,16.3-7,22.8-1.2,6.4,5.9,7.4,15.9,1.1,22.9-6.5,7.1-16.6,7-23,1.2-6.4-5.9-7.3-15.8-.9-22.9h0Z"/>
        <path class="cls-3" d="M320,724.8l-46.1,94.3-17.5-8.6,38.9-79.7-20-9.8,7.2-14.7,37.5,18.3h0Z"/>
        <path class="cls-3" d="M393.6,799.2c-8.7,34.9-33.9,49-63.5,41.7-10.2-2.5-19.4-7.2-25.1-13.2l10.5-12.5c4.6,5,11,8,18.1,9.8,19.2,4.8,34.3-4.1,40.1-27.2v-.2c-7.9,5.6-18.5,6.7-29.8,3.8-20.1-5-32-21-27.2-40.1,5.1-20.2,24.7-28.9,45.5-23.7,27.8,7,39.6,28.9,31.4,61.7ZM376.3,775.1c2.4-9.6-3.3-19.1-16.8-22.5-11.8-3-21.6,1.7-24.3,12.3-2.7,10.6,3.7,19.3,16,22.4,12.2,3.1,22.5-2.2,25-12.3h0Z"/>
        <path class="cls-3" d="M486.1,748.6l.2,13-39.3,92.6-20.9.3,38-89.1-41.2.7.3,17.8-18.1.3-.6-34.3,81.6-1.3h0Z"/>
        <path class="cls-3" d="M590.1,794.4c5.3,16.9-2.9,35.5-29.8,43.9-14.2,4.4-29.7,4.6-41.3.2l3.5-17c9,3.8,21.1,4.2,32.4.7,13.3-4.2,19.3-12.5,16.4-21.8-2.8-9-11.2-12.8-26.4-8.1l-9.2,2.9-4-12.7,14.3-34.2-45.5,14.3-4.9-15.6,68.3-21.4,3.9,12.5-15.3,36.5c19.7-3.5,32.8,4.8,37.5,19.8h0Z"/>
        <path class="cls-3" d="M645.7,751c-5.6-7.6-3.7-17.4,3.3-22.6s17-4.2,22.7,3.5c5.7,7.7,3.6,17.6-3.4,22.8s-16.9,4.1-22.6-3.7h0Z"/>
      </g>
    </g>
    <path class="cls-3" d="M631.6,253.6c-50.9-50.9-118.6-78.9-190.6-78.9s-139.7,28-190.6,78.9c-50.9,50.9-78.9,118.6-78.9,190.6s28,139.7,78.9,190.6c50.9,50.9,118.6,78.9,190.6,78.9s139.7-28,190.6-78.9,78.9-118.6,78.9-190.6-28-139.7-78.9-190.6ZM652.5,444.2c0,18.3-2.3,36.1-6.7,53-13-6-26.1-7.8-40.6-6.1h0c-22.3,2.5-41,9.6-59.5,15.6-18.5,5.9-36.8,10.8-59,9.7-27.6-1.4-62.1-14.9-87.2-53.6-5.5-8.5-10.6-18.2-15-29.3-16.5-40.9-11-90.3,3.9-117,15.7-28.6,41.3-50.8,65.7-66.6,9-5.9,17.1-10.1,24.8-13.8,98.6,17.9,173.7,104.4,173.7,208.1h0ZM441,655.7c-116.6,0-211.5-94.9-211.5-211.5s94.9-211.5,211.5-211.5,8.9.1,13.2.4c-2.5,1.4-5.1,2.8-8,4.7-25.6,16.6-53.1,40.1-70.5,71.7-17.2,31.6-22.6,83.7-4.7,129.3,4.7,11.9,10.2,22.5,16.3,31.8,27.6,42.6,66.9,58.6,98.6,60.1,24.8,1.2,45.2-4.3,64.1-10.4,19-6.1,36.6-12.8,56.7-15,12.7-1.3,23.8.1,34.9,5.7-28.1,83.9-107.4,144.5-200.6,144.5h0Z"/>
  </g>
</svg>