<svg width="240" height="240" viewBox="0 0 240 240" fill="none" xmlns="http://www.w3.org/2000/svg">
<rect width="240" height="240" rx="120" fill="#CF9502"/>
<g clip-path="url(#clip0_208_106)">
<path d="M26.4912 86.5872C27.3426 86.5872 28.4875 86.6259 29.9205 86.7031C31.3534 86.7822 32.8451 86.8888 34.3955 87.0231C35.9441 87.1591 37.3019 87.2952 38.4651 87.4313C39.6265 87.5674 40.3825 87.7126 40.7311 87.8689L39.5697 96.6641H38.988C38.988 94.5292 38.1642 92.8007 36.5184 91.4804C34.8707 90.1601 32.6139 89.5 29.748 89.5C27.3829 89.5 25.5059 89.956 24.1096 90.8681C22.7152 91.7801 21.9593 92.9552 21.8418 94.3913C21.7262 95.7888 22.1996 96.8774 23.2656 97.6534C24.3317 98.4313 25.5812 99.1484 27.0141 99.8085L37.8835 104.876C40.0522 105.847 41.7567 107.265 42.9971 109.13C44.2374 110.994 44.7603 113.344 44.5677 116.178C44.2961 120.334 42.5622 123.509 39.366 125.701C36.1698 127.895 31.8195 128.993 26.3187 128.993C24.0711 128.993 22.0363 128.818 20.2162 128.469C18.3942 128.119 16.8365 127.663 15.5375 127.101C14.2384 126.538 13.2421 125.907 12.5449 125.207C12.1174 124.236 11.9431 123.052 12.022 121.654C12.099 120.257 12.3614 118.868 12.8073 117.489C13.2513 116.112 13.7852 115.014 14.4054 114.198H14.9283C14.8127 116.217 15.2384 118.14 16.2072 119.964C17.1741 121.79 18.6273 123.265 20.5648 124.392C22.5024 125.519 24.827 126.082 27.5389 126.082C30.2507 126.082 32.3919 125.499 33.7295 124.335C35.0671 123.169 35.7349 121.851 35.7349 120.374C35.7349 119.131 35.2597 118.006 34.3111 116.996C33.3607 115.987 31.7828 114.977 29.5737 113.968L20.0988 109.542C17.4255 108.298 15.4787 106.59 14.2586 104.415C13.0385 102.24 12.6018 99.7755 12.9504 97.0172C13.2219 94.7646 13.9375 92.8614 15.1008 91.3094C16.264 89.7574 17.8034 88.5824 19.7226 87.7862C21.64 86.99 23.8968 86.5928 26.493 86.5928L26.4912 86.5872ZM40.8467 87.1683L40.6724 88.3912H32.2451V87.1683H40.8467Z" fill="#3C4522"/>
<path d="M48.8005 86.2949C49.1877 86.4512 49.7785 86.6056 50.573 86.7601C51.3674 86.9164 52.2481 87.0506 53.2169 87.1683C54.1857 87.286 55.0774 87.343 55.8902 87.343L48.7987 87.9829V86.293L48.8005 86.2949ZM88.2653 87.343V90.2558H48.8005V87.343H88.2653ZM56.8792 90.0811V90.2558C54.5141 90.2944 52.6738 90.9839 51.3564 92.3245C50.039 93.665 49.3803 95.4983 49.3803 97.83V98.2382L48.7987 98.297V90.0829H56.8773L56.8792 90.0811ZM62.7487 123.925V128.176H58.0993V127.594H58.8552C59.8625 127.594 60.7249 127.235 61.4423 126.516C62.1579 125.797 62.5359 124.935 62.5762 123.923H62.7505L62.7487 123.925ZM74.4896 87.5766V128.176H62.5744V87.5766H74.4896ZM74.3153 123.925H74.4896C74.5281 124.935 74.9061 125.799 75.6235 126.518C76.3391 127.237 77.2014 127.595 78.2105 127.595H78.9665V128.178H74.3171V123.927L74.3153 123.925ZM88.2653 90.0811V98.2952L87.6836 98.2363V97.8281C87.6836 95.4983 87.0249 93.6631 85.7075 92.3226C84.3883 90.9839 82.548 90.2944 80.1848 90.2539V90.0792H88.2634L88.2653 90.0811ZM88.2653 86.2949V87.9848L81.1738 87.3449C82.0251 87.3449 82.926 87.286 83.8764 87.1702C84.825 87.0543 85.7075 86.9183 86.5204 86.762C87.3332 86.6075 87.9148 86.4512 88.2634 86.2967L88.2653 86.2949Z" fill="#3C4522"/>
<path d="M144.254 91.6551H144.08C144.041 90.6456 143.663 89.7813 142.946 89.0623C142.229 88.3434 141.366 87.9848 140.359 87.9848H139.603V87.4019H144.252V91.6533L144.254 91.6551ZM144.254 123.925V128.176H139.605V127.594H140.361C141.368 127.594 142.23 127.235 142.948 126.516C143.663 125.797 144.041 124.935 144.082 123.923H144.256L144.254 123.925ZM156.052 87.4019V128.176H144.08V87.4019H156.052ZM162.331 87.4019C164.074 87.4019 165.855 87.5582 167.679 87.8671C169.499 88.1779 171.165 88.7314 172.677 89.5276C174.187 90.3238 175.409 91.44 176.339 92.8761C177.27 94.3123 177.734 96.1585 177.734 98.4092C177.734 99.8858 177.462 101.408 176.921 102.982C176.378 104.555 175.439 105.934 174.103 107.118C172.767 108.302 170.877 109.089 168.437 109.477C170.064 109.942 171.477 110.739 172.679 111.866C173.879 112.993 174.829 114.137 175.527 115.303C175.604 115.419 175.798 115.75 176.108 116.292C176.418 116.836 176.815 117.506 177.299 118.302C177.783 119.098 178.297 119.924 178.838 120.777C179.381 121.632 179.923 122.428 180.466 123.166C181.356 124.37 182.132 125.282 182.791 125.904C183.449 126.525 184.117 126.952 184.796 127.185C185.473 127.419 186.278 127.555 187.209 127.594V128.176H179.943C177.618 128.176 175.468 128.04 173.492 127.768C171.516 127.498 169.743 126.895 168.173 125.962C166.604 125.03 165.219 123.555 164.017 121.535C163.589 120.836 163.241 120.137 162.971 119.438C162.699 118.739 162.466 118.061 162.274 117.399C162.079 116.739 161.914 116.108 161.778 115.505C161.643 114.904 161.518 114.321 161.402 113.758C161.287 113.195 161.149 112.662 160.995 112.156C160.608 110.759 160.142 109.806 159.601 109.303C159.057 108.799 158.516 108.449 157.973 108.254V107.671H158.903C159.988 107.671 160.956 107.42 161.81 106.914C162.661 106.41 163.378 105.632 163.96 104.584C164.542 103.536 164.929 102.177 165.121 100.507C165.16 100.197 165.198 99.8582 165.237 99.4886C165.276 99.1208 165.276 98.6648 165.237 98.1205C165.083 95.2464 164.375 93.2476 163.116 92.1203C161.857 90.995 160.356 90.4304 158.612 90.4304H155.88C155.685 89.4209 155.492 88.4114 155.298 87.4019H162.331ZM155.878 123.925H156.052C156.052 124.935 156.419 125.799 157.157 126.518C157.892 127.237 158.764 127.595 159.773 127.595H160.47V128.178H155.878V123.927V123.925Z" fill="#3C4522"/>
<path d="M200.043 91.5963L186.965 91.4216C186.422 90.5279 185.629 89.7317 184.581 89.0329C183.535 88.3342 182.392 87.9848 181.152 87.9848H180.337V87.4019H202.772V87.9848H202.074C201.221 87.9848 200.564 88.3838 200.098 89.1782C199.634 89.9744 199.614 90.7798 200.039 91.5963H200.043ZM197.718 87.4607L209.924 109.42H198.008L184.581 87.4607H197.717H197.718ZM198.183 123.925V128.176H193.533V127.594H194.289C195.297 127.594 196.159 127.235 196.876 126.516C197.592 125.797 197.97 124.935 198.01 123.923H198.185L198.183 123.925ZM209.924 109.42V128.176H198.008V109.42H209.924ZM218.643 87.4607H223.815L209.168 110.527L205.68 110.003L218.641 87.4607H218.643ZM209.749 123.925H209.924C209.924 124.935 210.292 125.799 211.028 126.518C211.764 127.237 212.635 127.595 213.643 127.595H214.34V128.178H209.747V123.927L209.749 123.925ZM216.259 91.5963C216.569 91.052 216.646 90.5003 216.492 89.9358C216.336 89.3731 216.055 88.9079 215.65 88.5383C215.243 88.1705 214.767 87.9848 214.226 87.9848H213.529V87.4019H228.002V87.9848H227.189C225.987 87.9848 224.855 88.3342 223.789 89.0329C222.723 89.7317 221.901 90.5279 221.319 91.4216L216.263 91.5963H216.259Z" fill="#3C4522"/>
<path d="M116.303 84C116.336 84.0515 116.351 84.125 116.367 84.1306C116.508 84.1765 117.938 84.3347 118.439 84.434C122.007 85.1401 125.246 86.4843 128.066 88.8031C130.04 90.4268 132.051 92.6665 133.398 94.8382C135.453 98.1518 136.383 101.855 136.722 105.741L136.853 105.805C136.853 106.094 136.853 106.382 136.853 106.671C136.757 106.64 136.687 106.816 136.68 106.866C136.574 107.537 136.55 108.49 136.421 109.246C136.157 110.796 135.649 112.623 135.084 114.091C132.51 120.773 126.462 126.014 119.479 127.568C116.916 128.138 115.127 128.285 112.529 127.913C110.061 127.56 106.927 126.687 104.716 125.534C100.109 123.134 95.8228 118.374 93.988 113.486C93.3641 111.84 93.0449 110.113 92.6504 108.403C92.6504 107.019 92.6504 105.634 92.6504 104.249C92.9935 102.892 93.1972 101.504 93.6008 100.162C95.7384 93.0398 101.465 87.2051 108.558 84.9985C109.936 84.57 111.375 84.3678 112.767 84.0037C113.947 84.0037 115.127 84.0037 116.306 84.0037L116.303 84Z" fill="#3C4522"/>
<path d="M114.991 121.637C123.576 121.637 130.535 114.663 130.535 106.059C130.535 97.4549 123.576 90.4801 114.991 90.4801C106.406 90.4801 99.4465 97.4549 99.4465 106.059C99.4465 114.663 106.406 121.637 114.991 121.637Z" fill="#79BDCD"/>
<path d="M114.562 121.029C114.614 120.958 114.666 120.886 114.718 120.814C112.587 118.894 111.578 116.069 109.589 114.072C109.011 113.607 108.599 113.377 107.951 113.056C107.909 113.035 107.953 112.958 107.912 112.938C107.87 112.918 107.839 112.978 107.833 112.977C105.755 112.013 105.237 112.787 104.909 112.703C104.775 112.669 103.665 111.222 102.999 110.709C102.656 110.444 102.245 110.275 101.907 110.005C101.762 110.033 100.88 109.6 100.795 109.516C100.399 109.115 100.621 108.321 100.601 107.815C101.621 108.216 103.241 108.466 104.169 108.87C105.204 109.321 105.507 109.994 106.276 110.472C107.208 111.051 108.938 111.43 110.059 112.309C111.641 113.548 111.903 115.713 114.017 117.956C114.675 118.655 115.07 119.166 116.064 119.304C117.365 119.484 117.765 119.253 118.813 118.912C119.833 118.581 126.183 113.179 126.225 112.947C125.572 116.448 122.415 119.184 120.393 119.973C118.734 120.621 118.275 120.749 116.048 121.023" fill="#5CB1CD"/>
<path d="M122.635 117.434C123.506 116.525 124.378 116.136 125.13 115.01C126.259 113.322 127.739 108.593 128.328 106.471C126.181 105.836 124.829 107.517 124.506 109.499C124.321 109.165 124.084 108.848 123.882 108.523C123.919 105.274 126.708 103.523 126.963 102.993C127.154 102.594 127.079 101.329 127.08 100.805C127.08 100.774 127.002 100.79 127.002 100.785C127.002 99.8233 127.082 98.856 127.04 97.8925C129.409 100.013 129.264 102.732 128.638 105.612C128.176 107.741 125.998 114.313 124.739 115.891C124.222 116.538 123.332 117.005 122.633 117.436L122.635 117.434Z" fill="#5CB1CD"/>
<path d="M127.04 97.8925C127.082 98.856 127.002 99.8233 127.002 100.785C125.603 101.576 124.629 102.931 123.882 104.321C122.369 107.136 122.936 106.993 123.882 108.523C124.084 108.848 124.321 109.166 124.506 109.499C124.895 110.204 124.974 110.264 125.053 111.062C120.879 108.048 122.444 103.402 125.092 99.9428C125.583 99.301 126.901 97.9403 126.963 97.8134C127 97.8097 126.989 97.8447 127.042 97.8925H127.04Z" fill="#DBF0FA"/>
<path d="M125.13 115.01C124.378 116.136 123.506 116.524 122.635 117.434C122.378 117.592 122.112 117.715 121.855 117.864C120.837 118.166 119.833 118.589 118.813 118.92L118.734 118.861C119.567 117.936 120.253 116.873 121.27 116.125L120.996 116.104C122.367 115.553 123.714 114.926 125.091 114.385C125.099 114.569 125.165 114.803 125.13 115.01Z" fill="#389AC1"/>
<path d="M125.13 115.01C125.165 114.803 125.099 114.569 125.092 114.385C125.051 113.434 125.104 112.487 125.053 111.531C125.044 111.377 125.068 111.215 125.053 111.062C124.974 110.262 124.897 110.204 124.506 109.499C124.829 107.517 126.181 105.834 128.328 106.471C127.739 108.593 126.26 113.322 125.13 115.01Z" fill="#5CB1CD"/>
<path d="M101.692 103.442C102.956 103.834 103.942 103.963 105.144 104.693C105.575 104.955 106.406 105.695 106.703 105.866C107.07 106.077 108.571 106.642 109.121 106.921C111.861 108.317 111.67 109.336 112.923 111.357C113.162 111.741 115.006 114.293 115.204 114.424C115.584 114.677 116.099 114.72 116.549 114.736C118.237 114.795 119.238 114.313 120.76 113.719C120.596 113.806 120.134 114.008 120.097 114.052C119.928 114.247 119.018 116.706 118.908 116.807C118.611 117.083 116.472 117.213 115.749 117.081C115.488 117.033 115.253 116.868 114.989 116.845C114.4 116.489 114.389 116.033 114.053 115.575C113.712 115.11 113.18 114.586 112.883 114.129C111.982 112.741 111.973 111.097 109.626 109.733C108.696 109.192 106.89 108.591 106.428 108.326C105.918 108.034 105.582 107.523 105.101 107.193C103.876 106.351 101.949 106.07 100.52 105.708C100.516 105.097 100.509 104.481 100.52 103.871C100.527 103.516 100.546 103.17 100.558 102.815C100.861 103.337 101.186 103.284 101.689 103.44L101.692 103.442Z" fill="#DBF0FA"/>
<path d="M125.092 114.385C123.715 114.926 122.369 115.553 120.996 116.104C120.347 116.366 119.705 116.697 119.028 116.886C117.93 117.191 115.987 117.45 114.991 116.847C115.255 116.869 115.49 117.033 115.751 117.083C116.473 117.217 118.613 117.085 118.91 116.809C119.02 116.706 119.93 114.249 120.099 114.054C120.138 114.01 120.598 113.81 120.761 113.721C122.123 112.995 124.218 112.43 125.051 111.533C125.103 112.487 125.051 113.434 125.09 114.387L125.092 114.385Z" fill="#DBF0FA"/>
<path d="M100.524 107.76C100.524 107.789 100.626 107.934 100.628 107.94C100.648 108.446 100.401 109.119 100.797 109.52C100.881 109.604 101.764 110.034 101.909 110.009C102.246 110.279 102.657 110.448 103.001 110.713C103.668 111.226 104.778 112.673 104.911 112.706C105.239 112.789 105.756 112.015 107.835 112.98C107.839 112.98 107.872 112.921 107.914 112.942C107.956 112.962 107.912 113.039 107.953 113.059C108.6 113.381 109.013 113.609 109.591 114.076C111.58 116.073 112.589 118.898 114.719 120.817C114.641 120.924 114.696 121.02 114.563 121.033C110.538 121.433 106.96 119.161 105.549 118.1C103.887 116.849 100.469 112.287 99.9438 109.977C99.142 106.449 100.584 103.488 100.54 103.365" fill="#79BDCD"/>
<path d="M114.991 116.847C115.985 117.45 117.93 117.193 119.028 116.886C119.705 116.697 120.347 116.366 120.996 116.104L121.27 116.125C120.253 116.873 119.567 117.936 118.734 118.861L118.813 118.92C117.763 119.26 117.365 119.49 116.064 119.311C115.07 119.173 114.675 118.662 114.017 117.963C111.903 115.718 111.641 113.556 110.059 112.316C108.938 111.437 107.208 111.059 106.276 110.479C105.507 110.001 105.204 109.328 104.169 108.878C103.243 108.473 101.623 108.223 100.601 107.822C100.601 107.817 100.524 107.793 100.522 107.763C100.496 107.083 100.527 106.393 100.522 105.711C101.951 106.073 103.879 106.355 105.103 107.197C105.582 107.526 105.918 108.037 106.43 108.33C106.892 108.595 108.698 109.196 109.628 109.736C111.973 111.101 111.982 112.745 112.885 114.133C113.18 114.589 113.712 115.115 114.055 115.578C114.391 116.035 114.402 116.492 114.991 116.849V116.847Z" fill="#389AC1"/>
<path d="M123.882 108.523C122.936 106.993 122.369 107.136 123.882 104.321C124.631 102.931 125.605 101.576 127.002 100.785C127.002 100.789 127.08 100.772 127.08 100.805C127.08 101.329 127.156 102.594 126.963 102.993C126.708 103.523 123.919 105.275 123.882 108.523Z" fill="#389AC1"/>
<path d="M126.963 97.8134C126.899 97.9403 125.581 99.3029 125.092 99.9428C122.444 103.4 120.879 108.048 125.053 111.062C125.068 111.215 125.044 111.377 125.053 111.531C124.22 112.429 122.125 112.993 120.763 113.719C119.242 114.312 118.24 114.795 116.552 114.736C116.552 114.711 116.562 114.665 116.532 114.657C116.255 114.591 115.615 114.74 114.991 114.052C114.874 113.922 113.116 111.447 112.964 111.198C111.764 109.253 111.89 108.194 109.083 106.763C108.408 106.419 107.553 106.151 106.9 105.787C105.389 104.944 104.846 103.896 101.751 103.363L101.692 103.442C101.19 103.286 100.865 103.339 100.562 102.817C100.562 102.791 100.562 102.765 100.562 102.738C100.597 101.918 100.439 101.35 100.953 100.608C101.669 99.5713 104.125 98.5655 104.931 97.521C105.69 96.5372 105.599 95.1452 106.472 94.4134C107.158 93.8378 108.854 93.4921 109.747 93.0839C110.461 92.7603 111.301 92.1259 111.969 91.8335C112.666 91.5282 114.189 91.1071 114.932 91.052C117.883 90.835 123.218 93.6834 125.462 95.6252C125.945 96.0426 127.299 97.1422 126.963 97.8134Z" fill="#739034"/>
<path d="M108.633 97.5008C108.738 97.6038 108.837 97.727 108.984 97.7748C110.006 98.0966 110.842 96.6696 112.397 97.2673C113.376 97.6442 113.365 98.332 113.43 98.4791C113.868 99.4776 114.382 98.8027 114.892 98.6354C116.004 98.2694 116.297 98.4607 117.31 98.4405C117.4 98.4386 118.117 98.1168 119.064 98.5195C119.266 98.6059 119.567 98.9608 119.883 98.9112C120.35 98.8376 120.227 97.9127 120.215 97.5431C120.207 97.3408 120.237 96.9731 120.215 96.8793C120.301 96.7101 121.09 96.8462 121.541 96.8002C122.031 96.7524 121.719 96.2173 121.833 95.8238C122.407 96.3809 122.785 97.0834 123.257 97.7196C123.604 98.1867 124.082 98.3595 124.115 99.0491C124.187 100.592 122.868 100.642 122.771 100.71C122.635 100.803 122.932 101.245 122.576 101.491C121.893 101.964 118.712 101.12 118.013 101.099C117.396 101.083 116.303 101.41 115.751 101.373C115.336 101.346 114.452 100.822 113.918 100.71C113.464 100.614 112.646 100.638 111.655 100.358C109.742 99.8177 110.094 99.2036 109.725 98.6188C109.527 98.3062 108.685 97.8079 108.633 97.7196C108.624 97.7049 108.637 97.5265 108.633 97.5045V97.5008Z" fill="#577F33"/>
<path d="M116.551 114.736C116.101 114.72 115.585 114.677 115.206 114.424C115.008 114.291 113.162 111.739 112.925 111.356C111.672 109.336 111.863 108.315 109.123 106.921C108.575 106.642 107.072 106.077 106.705 105.866C106.408 105.695 105.577 104.955 105.145 104.693C103.944 103.962 102.958 103.834 101.694 103.442L101.753 103.363C104.848 103.896 105.391 104.944 106.901 105.787C107.556 106.151 108.41 106.419 109.085 106.763C111.892 108.194 111.764 109.253 112.965 111.198C113.118 111.447 114.875 113.922 114.993 114.052C115.615 114.742 116.255 114.591 116.534 114.657C116.563 114.665 116.554 114.709 116.554 114.736H116.551Z" fill="#8FA63E"/>
<path d="M121.776 95.1177C121.789 95.1765 121.771 95.2758 121.776 95.353C121.165 95.5056 120.035 95.2133 119.826 95.5479C119.872 95.1765 119.552 95.6325 119.552 95.8403C119.552 96.0003 119.956 97.1441 120.117 97.3849C118.422 96.5354 118.015 96.8425 116.919 96.8774C115.679 96.9179 115.409 96.7414 113.916 97.3463C113.815 97.3206 113.685 96.1897 112.63 95.7833C110.929 95.1287 109.45 96.5722 108.964 96.0573C108.349 94.5936 110.253 94.6745 110.953 94.064C111.226 93.8249 111.637 92.7915 111.888 92.5782C112.452 92.1019 113.718 92.5157 114.307 92.3833C114.42 92.3575 115.261 91.6422 115.516 91.6018C115.996 91.5264 116.167 91.9015 116.646 92.1093C117.006 92.2656 117.868 92.4219 118.128 92.6573C118.402 92.9037 118.398 93.5271 118.714 93.6742C118.756 93.6944 119.433 93.7808 119.611 93.9095C119.851 94.0824 119.844 94.5881 119.961 94.6524C120.002 94.6745 120.42 94.7039 120.859 94.8473C121.266 94.9816 121.649 95.2592 121.774 95.1213L121.776 95.1177Z" fill="#384C20"/>
<path d="M121.776 95.1177C121.651 95.2556 121.266 94.9779 120.86 94.8437C120.422 94.7002 120.004 94.6708 119.963 94.6487C119.846 94.5862 119.853 94.0787 119.613 93.9059C119.435 93.779 118.758 93.6907 118.716 93.6705C118.402 93.5234 118.404 92.9018 118.13 92.6536C117.872 92.4201 117.007 92.2619 116.648 92.1056C116.169 91.8978 115.996 91.5209 115.518 91.5981C115.263 91.6386 114.424 92.3539 114.308 92.3796C113.719 92.512 112.455 92.1001 111.89 92.5745C111.639 92.7878 111.228 93.8213 110.954 94.0603C110.255 94.6708 108.351 94.5899 108.965 96.0536C109.452 96.5685 110.931 95.125 112.631 95.7796C113.686 96.186 113.817 97.3169 113.918 97.3427C115.409 96.7377 115.681 96.9142 116.921 96.8738C118.017 96.8388 118.422 96.5317 120.119 97.3813C119.958 97.1422 119.554 95.9966 119.554 95.8366C119.554 95.627 119.873 95.1728 119.827 95.5443C119.824 95.5792 119.71 95.627 119.749 95.8771C119.791 96.1345 120.204 96.8204 120.216 96.8738C120.238 96.9675 120.209 97.3371 120.216 97.5376C119.466 97.361 118.839 96.9179 118.051 96.8738C117.578 96.848 115.479 96.9878 115.009 97.1091C114.65 97.2011 114.228 97.5247 113.859 97.4603C113.516 97.4015 113.597 97.0356 113.43 96.7377C113.017 95.9966 112.031 95.6638 111.226 95.741C110.62 95.798 109.58 96.4527 109.101 96.3276C108.738 96.2338 108.793 95.9451 108.595 95.9764C108.621 95.5369 108.622 95.0515 108.945 94.7058C109.244 94.3876 110.472 94.1339 110.758 93.904C110.98 93.7275 111.4 92.7363 111.597 92.5157C112.285 91.747 113.802 92.2343 114.189 92.1442C114.319 92.1148 114.8 91.6459 114.969 91.5576C116.037 90.9968 116.321 91.7231 116.607 91.8703C117 92.0725 117.978 92.1148 118.382 92.6315C118.534 92.8265 118.611 93.2623 118.791 93.3928C118.936 93.4976 119.661 93.6098 119.844 93.744C120.094 93.9261 120.083 94.3196 120.194 94.4079C120.356 94.5366 121.682 94.6782 121.774 95.1121L121.776 95.1177Z" fill="#384C20"/>
<path d="M121.541 96.7984C121.09 96.8425 120.303 96.7064 120.215 96.8774C120.202 96.8241 119.789 96.1382 119.747 95.8808C119.706 95.6307 119.82 95.5829 119.826 95.5479C120.033 95.2133 121.163 95.5057 121.776 95.353C121.8 95.6969 121.87 96.8333 121.541 96.7984Z" fill="#49662A"/>
<path d="M109.101 96.3295C109.083 96.8223 109.173 97.3132 108.984 97.7748C108.835 97.7288 108.738 97.6038 108.633 97.5008C108.565 97.0668 108.569 96.4177 108.595 95.9764C108.793 95.9451 108.738 96.2338 109.101 96.3276V96.3295Z" fill="#49662A"/>
<path d="M120.216 97.5394C120.229 97.909 120.354 98.8321 119.884 98.9075C119.569 98.9572 119.268 98.6023 119.066 98.5158C118.119 98.115 117.402 98.4349 117.312 98.4368C116.299 98.457 116.006 98.2676 114.894 98.6317C114.384 98.799 113.87 99.4739 113.431 98.4754C114.169 99.5235 113.798 97.8796 113.861 97.4585C114.23 97.5229 114.652 97.1992 115.011 97.1073C115.481 96.9878 117.58 96.8462 118.053 96.8719C118.84 96.916 119.468 97.361 120.218 97.5357L120.216 97.5394Z" fill="#49662A"/>
<path d="M113.859 97.4622C113.796 97.8814 114.167 99.5254 113.429 98.4791C113.365 98.332 113.376 97.6442 112.396 97.2673C110.842 96.6696 110.006 98.0966 108.984 97.7748C109.171 97.3132 109.081 96.8204 109.101 96.3295C109.58 96.4545 110.622 95.7999 111.226 95.7429C112.031 95.6656 113.017 95.9985 113.429 96.7395C113.595 97.0374 113.516 97.4033 113.859 97.4622Z" fill="#49662A"/>
<path d="M58.3727 136.913H63.3266V155.669H58.3727V136.913Z" fill="#3C4522"/>
<path d="M75.9757 155.656C74.8382 155.426 73.8565 155.11 73.0309 154.705L73.9666 151.313C74.9941 151.699 75.939 151.984 76.8014 152.168C77.6638 152.352 78.5445 152.444 79.4435 152.444C80.4343 152.444 81.2636 152.284 81.9333 151.962C82.603 151.64 82.9388 151.158 82.9388 150.513C82.9388 150.09 82.7828 149.722 82.4709 149.41C82.159 149.097 81.7645 148.83 81.2875 148.61C80.8104 148.389 80.1407 148.122 79.2784 147.81C78.0858 147.368 77.1078 146.955 76.3482 146.569C75.5868 146.182 74.9354 145.649 74.3941 144.969C73.8529 144.288 73.5832 143.443 73.5832 142.431C73.5832 140.611 74.2896 139.186 75.7024 138.156C77.1151 137.126 79.0325 136.611 81.4545 136.611C82.4085 136.611 83.3755 136.722 84.3589 136.942C85.3406 137.163 86.2066 137.466 86.9589 137.852L85.9956 141.218C85.1883 140.868 84.436 140.607 83.7388 140.432C83.0416 140.258 82.3352 140.171 81.6196 140.171C80.6655 140.171 79.8949 140.342 79.3077 140.681C78.7206 141.021 78.427 141.493 78.427 142.102C78.427 142.617 78.7023 143.04 79.2527 143.371C79.8031 143.702 80.6747 144.088 81.8673 144.529C83.0782 144.989 84.0837 145.427 84.8819 145.839C85.68 146.252 86.3625 146.817 86.9313 147.534C87.5001 148.251 87.7845 149.134 87.7845 150.182C87.7845 152.021 87.0781 153.45 85.6653 154.47C84.2525 155.491 82.1975 156.002 79.5004 156.002C78.2894 156.002 77.1151 155.886 75.9776 155.656H75.9757Z" fill="#3C4522"/>
<path d="M110.233 152.221V155.669H97.5457V136.913H102.5V152.221H110.233Z" fill="#3C4522"/>
<path d="M129.545 151.339H123.215L121.811 155.669H116.829L124.013 136.665H128.802L136.012 155.669H130.976L129.545 151.339ZM128.444 147.946L126.38 141.712L124.343 147.946H128.444Z" fill="#3C4522"/>
<path d="M162.397 136.913V155.669L157.938 155.697L149.406 143.946L149.764 150.042V155.669H144.81V136.913H149.269L157.8 148.58L157.443 142.567V136.913H162.397Z" fill="#3C4522"/>
<path d="M186.689 138.126C188.176 138.936 189.299 140.048 190.062 141.464C190.823 142.88 191.203 144.48 191.203 146.263C191.203 148.047 190.821 149.707 190.062 151.133C189.3 152.558 188.176 153.67 186.689 154.47C185.203 155.27 183.405 155.671 181.295 155.671H173.534V136.915H181.295C183.405 136.915 185.203 137.319 186.689 138.128V138.126ZM184.941 150.566C185.812 149.5 186.247 148.075 186.247 146.291C186.247 144.507 185.811 143.104 184.941 142.03C184.069 140.955 182.853 140.416 181.293 140.416H178.486V152.166H181.293C182.853 152.166 184.068 151.633 184.941 150.566Z" fill="#3C4522"/>
<path d="M202.616 155.656C201.478 155.426 200.496 155.11 199.671 154.705L200.606 151.313C201.634 151.699 202.579 151.984 203.441 152.168C204.304 152.352 205.184 152.444 206.083 152.444C207.074 152.444 207.903 152.284 208.573 151.962C209.243 151.64 209.579 151.158 209.579 150.513C209.579 150.09 209.423 149.722 209.111 149.41C208.799 149.097 208.404 148.83 207.927 148.61C207.45 148.389 206.781 148.122 205.918 147.81C204.726 147.368 203.748 146.955 202.988 146.569C202.227 146.182 201.575 145.649 201.034 144.969C200.493 144.288 200.223 143.443 200.223 142.431C200.223 140.611 200.929 139.186 202.342 138.156C203.755 137.126 205.672 136.611 208.094 136.611C209.048 136.611 210.015 136.722 210.999 136.942C211.98 137.163 212.846 137.466 213.599 137.852L212.635 141.218C211.828 140.868 211.076 140.607 210.379 140.432C209.681 140.258 208.975 140.171 208.259 140.171C207.305 140.171 206.535 140.342 205.948 140.681C205.36 141.021 205.067 141.493 205.067 142.102C205.067 142.617 205.342 143.04 205.892 143.371C206.443 143.702 207.314 144.088 208.507 144.529C209.718 144.989 210.723 145.427 211.522 145.839C212.32 146.252 213.002 146.817 213.571 147.534C214.14 148.251 214.424 149.134 214.424 150.182C214.424 152.021 213.718 153.45 212.305 154.47C210.892 155.491 208.837 156.002 206.14 156.002C204.929 156.002 203.755 155.886 202.617 155.656H202.616Z" fill="#3C4522"/>
</g>
<defs>
<clipPath id="clip0_208_106">
<rect width="216" height="72" fill="white" transform="translate(12 84)"/>
</clipPath>
</defs>
</svg>
