<?xml version="1.0" encoding="UTF-8"?>
<svg xmlns="http://www.w3.org/2000/svg" xmlns:xlink="http://www.w3.org/1999/xlink" viewBox="0 0 311.81 311.81">
  <defs>
    <style>
      .cls-1 {
        fill: url(#linear-gradient-12);
      }

      .cls-1, .cls-2, .cls-3, .cls-4, .cls-5, .cls-6, .cls-7, .cls-8, .cls-9, .cls-10, .cls-11, .cls-12, .cls-13, .cls-14, .cls-15, .cls-16, .cls-17, .cls-18, .cls-19, .cls-20, .cls-21, .cls-22, .cls-23, .cls-24, .cls-25 {
        stroke-width: 0px;
      }

      .cls-26 {
        clip-path: url(#clippath-20);
      }

      .cls-27 {
        clip-path: url(#clippath-11);
      }

      .cls-28 {
        clip-path: url(#clippath-16);
      }

      .cls-29 {
        stroke-dasharray: 0 0 0 0 0 0 26 12.99 0 0 0 0;
      }

      .cls-29, .cls-30, .cls-31, .cls-32, .cls-33, .cls-34, .cls-35, .cls-36, .cls-37 {
        stroke-miterlimit: 10;
      }

      .cls-29, .cls-38, .cls-31, .cls-8, .cls-32, .cls-33, .cls-39, .cls-34, .cls-40, .cls-36, .cls-41, .cls-37 {
        fill: none;
      }

      .cls-29, .cls-31, .cls-32, .cls-33, .cls-34, .cls-35, .cls-36, .cls-37, .cls-42 {
        stroke: #dcedf7;
      }

      .cls-29, .cls-31, .cls-32, .cls-33, .cls-34, .cls-36, .cls-37, .cls-42 {
        stroke-width: 8.5px;
      }

      .cls-30 {
        fill: url(#New_Gradient_Swatch_1);
        stroke: url(#linear-gradient);
      }

      .cls-2 {
        fill: url(#linear-gradient-16);
      }

      .cls-2, .cls-4, .cls-10, .cls-11, .cls-14, .cls-19, .cls-21, .cls-22, .cls-25 {
        fill-rule: evenodd;
      }

      .cls-38 {
        stroke-width: .99px;
      }

      .cls-38, .cls-39, .cls-40, .cls-41 {
        stroke: #000;
        stroke-linecap: round;
      }

      .cls-38, .cls-39, .cls-40, .cls-41, .cls-42 {
        stroke-linejoin: round;
      }

      .cls-3 {
        fill: url(#linear-gradient-6);
      }

      .cls-31 {
        stroke-dasharray: 0 0 0 0 .01 0 0 0;
      }

      .cls-43 {
        clip-path: url(#clippath-2);
      }

      .cls-4 {
        fill: url(#linear-gradient-18);
      }

      .cls-44 {
        clip-path: url(#clippath-13);
      }

      .cls-45 {
        clip-path: url(#clippath-25);
      }

      .cls-46 {
        clip-path: url(#clippath-15);
      }

      .cls-5 {
        fill: url(#linear-gradient-15);
      }

      .cls-47 {
        clip-path: url(#clippath-6);
      }

      .cls-6 {
        fill: url(#linear-gradient-11);
      }

      .cls-48 {
        clip-path: url(#clippath-26);
      }

      .cls-7 {
        fill: url(#linear-gradient-5);
      }

      .cls-49 {
        clip-path: url(#clippath-7);
      }

      .cls-50 {
        clip-path: url(#clippath-21);
      }

      .cls-51 {
        clip-path: url(#clippath-1);
      }

      .cls-52 {
        clip-path: url(#clippath-4);
      }

      .cls-32 {
        stroke-dasharray: 0 0 0 0 0 0 29.46 14.72 .01 0 0 0;
      }

      .cls-53 {
        clip-path: url(#clippath-27);
      }

      .cls-9 {
        fill: url(#linear-gradient-13);
      }

      .cls-33 {
        stroke-dasharray: 0 0 0 0 0 0 0 0;
      }

      .cls-54 {
        clip-path: url(#clippath-12);
      }

      .cls-10 {
        fill: #010101;
      }

      .cls-11 {
        fill: url(#linear-gradient-17);
      }

      .cls-12 {
        fill: url(#linear-gradient-14);
      }

      .cls-13 {
        fill: url(#linear-gradient-2);
      }

      .cls-55 {
        clip-path: url(#clippath-24);
      }

      .cls-14 {
        fill: url(#linear-gradient-20);
      }

      .cls-56 {
        clip-path: url(#clippath-30);
      }

      .cls-57 {
        clip-path: url(#clippath-22);
      }

      .cls-15 {
        fill: url(#linear-gradient-7);
      }

      .cls-16 {
        fill: url(#linear-gradient-3);
      }

      .cls-58 {
        clip-path: url(#clippath-9);
      }

      .cls-59 {
        clip-path: url(#clippath);
      }

      .cls-17 {
        fill: url(#linear-gradient-9);
      }

      .cls-18 {
        fill: url(#radial-gradient);
      }

      .cls-39 {
        stroke-width: .76px;
      }

      .cls-34 {
        stroke-dasharray: 0 0 0 0 0 0 0 0;
      }

      .cls-35 {
        fill: #cd962b;
        stroke-width: 5.67px;
      }

      .cls-60 {
        clip-path: url(#clippath-19);
      }

      .cls-61 {
        clip-path: url(#clippath-3);
      }

      .cls-19 {
        fill: url(#linear-gradient-19);
      }

      .cls-20 {
        fill: url(#linear-gradient-8);
      }

      .cls-21 {
        fill: rgba(1, 1, 1, .16);
      }

      .cls-62 {
        clip-path: url(#clippath-8);
      }

      .cls-40 {
        stroke-width: .53px;
      }

      .cls-63 {
        clip-path: url(#clippath-29);
      }

      .cls-64 {
        clip-path: url(#clippath-18);
      }

      .cls-65 {
        clip-path: url(#clippath-14);
      }

      .cls-66 {
        clip-path: url(#clippath-17);
      }

      .cls-67 {
        clip-path: url(#clippath-5);
      }

      .cls-22 {
        fill: url(#linear-gradient-22);
      }

      .cls-23 {
        fill: url(#linear-gradient-10);
      }

      .cls-41 {
        stroke-width: 1.67px;
      }

      .cls-68 {
        clip-path: url(#clippath-10);
      }

      .cls-69 {
        clip-path: url(#clippath-23);
      }

      .cls-37 {
        stroke-dasharray: 0 0 0 0 0 0 27.94 13.96 0 0 0 0;
      }

      .cls-24 {
        fill: url(#linear-gradient-4);
      }

      .cls-42 {
        fill: #73913c;
      }

      .cls-25 {
        fill: url(#linear-gradient-21);
      }

      .cls-70 {
        clip-path: url(#clippath-28);
      }
    </style>
    <linearGradient id="New_Gradient_Swatch_1" data-name="New Gradient Swatch 1" x1="402.89" y1="583.36" x2="402.89" y2="-607.19" gradientUnits="userSpaceOnUse">
      <stop offset="0" stop-color="#339ac1"/>
      <stop offset=".03" stop-color="#379cc2"/>
      <stop offset=".22" stop-color="#4ca6c7"/>
      <stop offset=".4" stop-color="#58acca"/>
      <stop offset=".58" stop-color="#5dafcc"/>
      <stop offset=".63" stop-color="#68b4cc"/>
      <stop offset=".71" stop-color="#75b9cc"/>
      <stop offset=".79" stop-color="#7abccd"/>
    </linearGradient>
    <linearGradient id="linear-gradient" x1="-18.55" y1="-11.91" x2="824.34" y2="-11.91" gradientUnits="userSpaceOnUse">
      <stop offset="0" stop-color="#fff"/>
      <stop offset="1" stop-color="#231f20"/>
    </linearGradient>
    <clipPath id="clippath">
      <rect class="cls-8" x="107.49" y="38.63" width="114.81" height="184.18"/>
    </clipPath>
    <clipPath id="clippath-1">
      <path class="cls-8" d="M111.55,182.3l-.2,33.86c29.96,9.1,57.26,7.53,85.58.21v-34.07h-85.38Z"/>
    </clipPath>
    <linearGradient id="linear-gradient-2" x1="-17.76" y1="-598.06" x2="-17.5" y2="-598.06" gradientTransform="translate(3781.76 58423.26) scale(205.56 97.35)" gradientUnits="userSpaceOnUse">
      <stop offset="0" stop-color="#191919"/>
      <stop offset=".16" stop-color="#191919"/>
      <stop offset="1" stop-color="#4d4d4e"/>
    </linearGradient>
    <clipPath id="clippath-2">
      <rect class="cls-8" x="107.49" y="38.63" width="114.81" height="184.18"/>
    </clipPath>
    <clipPath id="clippath-3">
      <path class="cls-8" d="M127.56,122.38l-1.65,20.31-6.26,21.45-11.8,18.16c30.34,7.18,62.53,8.83,92.25,0l-11.8-18.16-6.26-21.45-1.64-20.31h-52.85Z"/>
    </clipPath>
    <linearGradient id="linear-gradient-3" x1="-16.92" y1="-613.43" x2="-16.66" y2="-613.43" gradientTransform="translate(-18299.55 -98982.49) rotate(175.66) scale(226.67 163.43) skewX(2.92)" gradientUnits="userSpaceOnUse">
      <stop offset="0" stop-color="#c37c2a"/>
      <stop offset="1" stop-color="#593916"/>
    </linearGradient>
    <clipPath id="clippath-4">
      <rect class="cls-8" x="107.49" y="38.63" width="114.81" height="184.18"/>
    </clipPath>
    <clipPath id="clippath-5">
      <path class="cls-8" d="M132.29,102.67l-8.41,19.7c20.11,4.72,41.87,4.52,60.34,0l-9.64-19.7-20.94-9.64-21.34,9.64Z"/>
    </clipPath>
    <linearGradient id="linear-gradient-4" x1="-21.54" y1="-600.86" x2="-21.28" y2="-600.86" gradientTransform="translate(92250.29 76898.55) rotate(-18.5) scale(250.71 169.84) skewX(20.93)" xlink:href="#linear-gradient-2"/>
    <clipPath id="clippath-6">
      <rect class="cls-8" x="107.49" y="38.63" width="114.81" height="184.18"/>
    </clipPath>
    <clipPath id="clippath-7">
      <polygon class="cls-8" points="128.29 41.88 202.99 179.63 205.89 177.11 131.19 39.36 128.29 41.88"/>
    </clipPath>
    <linearGradient id="linear-gradient-5" x1="-19.49" y1="-607.12" x2="-19.22" y2="-607.12" gradientTransform="translate(3464361.18 6375301.14) rotate(-38.66) scale(329.33 11764.29) skewX(-81.15)" xlink:href="#linear-gradient-3"/>
    <clipPath id="clippath-8">
      <rect class="cls-8" x="107.49" y="38.63" width="114.81" height="184.18"/>
    </clipPath>
    <clipPath id="clippath-9">
      <polygon class="cls-8" points="129.33 41.41 204.03 179.16 206.93 176.65 132.23 38.89 129.33 41.41"/>
    </clipPath>
    <linearGradient id="linear-gradient-6" x1="-19.49" y1="-607.12" x2="-19.22" y2="-607.12" gradientTransform="translate(3464361.72 6375302.13) rotate(-38.66) scale(329.33 11764.29) skewX(-81.15)" xlink:href="#linear-gradient-3"/>
    <clipPath id="clippath-10">
      <rect class="cls-8" x="107.49" y="38.63" width="114.81" height="184.18"/>
    </clipPath>
    <clipPath id="clippath-11">
      <polygon class="cls-8" points="176.28 120 205.46 173.82 214.11 166.3 184.93 112.48 176.28 120"/>
    </clipPath>
    <linearGradient id="linear-gradient-7" x1="-31.36" y1="-604.06" x2="-31.09" y2="-604.06" gradientTransform="translate(68799.47 123737.61) rotate(-40.98) scale(45.51 228.95) skewX(-48.13)" gradientUnits="userSpaceOnUse">
      <stop offset="0" stop-color="#a7a7a7"/>
      <stop offset="1" stop-color="#e4e4e4"/>
    </linearGradient>
    <clipPath id="clippath-12">
      <rect class="cls-8" x="107.49" y="38.63" width="114.81" height="184.18"/>
    </clipPath>
    <clipPath id="clippath-13">
      <polygon class="cls-8" points="110.03 154.72 112.02 158.39 220.86 63.85 218.87 60.18 110.03 154.72"/>
    </clipPath>
    <linearGradient id="linear-gradient-8" x1="12.65" y1="-606.24" x2="12.91" y2="-606.24" gradientTransform="translate(-401842.4 348997.08) rotate(45.13) scale(27.91 875.98) skewX(-64.82)" xlink:href="#linear-gradient-3"/>
    <clipPath id="clippath-14">
      <rect class="cls-8" x="107.49" y="38.63" width="114.81" height="184.18"/>
    </clipPath>
    <clipPath id="clippath-15">
      <polygon class="cls-8" points="111.2 154.99 113.19 158.66 222.04 64.12 220.05 60.45 111.2 154.99"/>
    </clipPath>
    <linearGradient id="linear-gradient-9" x1="12.65" y1="-606.23" x2="12.91" y2="-606.23" gradientTransform="translate(-401840.56 348995.48) rotate(45.13) scale(27.91 875.98) skewX(-64.82)" xlink:href="#linear-gradient-3"/>
    <clipPath id="clippath-16">
      <rect class="cls-8" x="107.49" y="38.63" width="114.81" height="184.18"/>
    </clipPath>
    <clipPath id="clippath-17">
      <polygon class="cls-8" points="170.2 87.69 176.13 98.64 218.66 61.7 212.72 50.76 170.2 87.69"/>
    </clipPath>
    <linearGradient id="linear-gradient-10" x1="-35.6" y1="-610.49" x2="-35.34" y2="-610.49" gradientTransform="translate(98893.73 -87909.6) rotate(-118.47) scale(49.3 210.82) skewX(43.48)" xlink:href="#linear-gradient-7"/>
    <clipPath id="clippath-18">
      <rect class="cls-8" x="107.49" y="38.63" width="114.81" height="184.18"/>
    </clipPath>
    <clipPath id="clippath-19">
      <polygon class="cls-8" points="115.42 156.8 121.36 167.74 163.89 130.81 157.95 119.86 115.42 156.8"/>
    </clipPath>
    <linearGradient id="linear-gradient-11" x1="-34.66" y1="-609.42" x2="-34.4" y2="-609.42" gradientTransform="translate(98693 -87653.55) rotate(-118.47) scale(49.3 210.84) skewX(43.48)" xlink:href="#linear-gradient-7"/>
    <clipPath id="clippath-20">
      <rect class="cls-8" x="107.49" y="38.63" width="114.81" height="184.18"/>
    </clipPath>
    <clipPath id="clippath-21">
      <path class="cls-8" d="M167.42,96.36c-5.33.06-9.61,5.57-9.57,12.31,0,.07,0,.13,0,.2.04,6.74,4.4,12.17,9.73,12.11,5.33-.06,9.61-5.57,9.57-12.31,0-.07,0-.13,0-.2-.04-6.71-4.35-12.11-9.65-12.11-.03,0-.05,0-.08,0"/>
    </clipPath>
    <linearGradient id="linear-gradient-12" x1="-13.75" y1="-620.45" x2="-13.49" y2="-620.45" gradientTransform="translate(-9842.48 -50207.26) rotate(163.86) scale(67.05 82.38) skewX(-7.23)" xlink:href="#linear-gradient-3"/>
    <clipPath id="clippath-22">
      <rect class="cls-8" x="107.49" y="38.63" width="114.81" height="184.18"/>
    </clipPath>
    <clipPath id="clippath-23">
      <path class="cls-8" d="M169.42,96.46c-5.33.05-9.61,5.57-9.57,12.31,0,.07,0,.13,0,.2.04,6.74,4.4,12.17,9.73,12.11,5.33-.05,9.61-5.57,9.57-12.31,0-.07,0-.13,0-.2-.04-6.71-4.35-12.11-9.65-12.11-.03,0-.05,0-.08,0"/>
    </clipPath>
    <linearGradient id="linear-gradient-13" x1="-14.7" y1="-613.97" x2="-14.44" y2="-613.97" gradientTransform="translate(-27930.11 -88615.56) rotate(154.7) scale(127.43 150.21) skewX(-10.41)" xlink:href="#linear-gradient-3"/>
    <clipPath id="clippath-24">
      <rect class="cls-8" x="107.49" y="38.63" width="114.81" height="184.18"/>
    </clipPath>
    <clipPath id="clippath-25">
      <path class="cls-8" d="M169.54,101.17c-3.16.03-5.7,3.3-5.67,7.29,0,.04,0,.08,0,.12.03,4,2.61,7.21,5.76,7.18,3.16-.03,5.7-3.3,5.67-7.29,0-.04,0-.08,0-.12-.03-3.98-2.58-7.18-5.72-7.18-.02,0-.03,0-.05,0"/>
    </clipPath>
    <radialGradient id="radial-gradient" cx="-19.24" cy="-594" fx="-19.24" fy="-594" r=".26" gradientTransform="translate(1515.14 52206.51) scale(69.31 87.71)" gradientUnits="userSpaceOnUse">
      <stop offset="0" stop-color="#c37c2a"/>
      <stop offset="1" stop-color="#593916"/>
    </radialGradient>
    <clipPath id="clippath-26">
      <rect class="cls-8" x="107.49" y="38.63" width="114.81" height="184.18"/>
    </clipPath>
    <clipPath id="clippath-27">
      <polygon class="cls-8" points="121.67 50.68 150.86 104.5 159.51 96.99 130.32 43.17 121.67 50.68"/>
    </clipPath>
    <linearGradient id="linear-gradient-14" x1="-30.41" y1="-602.99" x2="-30.14" y2="-602.99" gradientTransform="translate(68642.83 123566.69) rotate(-40.98) scale(45.54 229.12) skewX(-48.13)" xlink:href="#linear-gradient-7"/>
    <clipPath id="clippath-28">
      <rect class="cls-8" x="107.49" y="38.63" width="114.81" height="184.18"/>
    </clipPath>
    <clipPath id="clippath-29">
      <path class="cls-8" d="M168.37,198.76v22.78c4.69-.34,7.93-.82,11.9-1.45v-22.93c-4.4,1.11-6.92,1.65-11.9,1.6"/>
    </clipPath>
    <linearGradient id="linear-gradient-15" x1="-12.24" y1="-613.16" x2="-11.98" y2="-613.16" gradientTransform="translate(-19211.43 -54147.49) rotate(126.56) scale(75.96 78.2) skewX(-35.35)" xlink:href="#linear-gradient-3"/>
    <clipPath id="clippath-30">
      <rect class="cls-8" x="107.49" y="38.63" width="114.81" height="184.18"/>
    </clipPath>
    <linearGradient id="linear-gradient-16" x1="197.43" y1="1163.31" x2="237.7" y2="1214.62" gradientTransform="translate(1.33 1167.54) scale(1 -1)" gradientUnits="userSpaceOnUse">
      <stop offset="0" stop-color="#503f2b"/>
      <stop offset="1" stop-color="#725a3d"/>
    </linearGradient>
    <linearGradient id="linear-gradient-17" x1="173.8" y1="1214.48" x2="193.65" y2="1181.98" gradientTransform="translate(1.33 1167.54) scale(1 -1)" gradientUnits="userSpaceOnUse">
      <stop offset="0" stop-color="#6b3d1d"/>
      <stop offset="1" stop-color="#905228"/>
    </linearGradient>
    <linearGradient id="linear-gradient-18" x1="197.24" y1="1182.44" x2="199.69" y2="1182.44" xlink:href="#linear-gradient-17"/>
    <linearGradient id="linear-gradient-19" x1="195.43" y1="1156.31" x2="188.57" y2="1171.74" gradientTransform="translate(1.33 1167.54) scale(1 -1)" gradientUnits="userSpaceOnUse">
      <stop offset="0" stop-color="#8ebbdc"/>
      <stop offset="1" stop-color="#dbdada"/>
    </linearGradient>
    <linearGradient id="linear-gradient-20" x1="185.55" y1="1161.65" x2="179.18" y2="1169.17" xlink:href="#linear-gradient-19"/>
    <linearGradient id="linear-gradient-21" x1="174.16" y1="1169.62" x2="178.36" y2="1171.46" gradientTransform="translate(1.33 1167.54) scale(1 -1)" gradientUnits="userSpaceOnUse">
      <stop offset="0" stop-color="#b39a31"/>
      <stop offset=".5" stop-color="#feda07"/>
      <stop offset="1" stop-color="#c6aa2e"/>
    </linearGradient>
    <linearGradient id="linear-gradient-22" x1="179.63" y1="1165.65" x2="173.14" y2="1177.6" xlink:href="#linear-gradient-19"/>
  </defs>
  <g id="Layer_1" data-name="Layer 1">
    <rect class="cls-30" x="-18.05" y="-607.19" width="841.89" height="1190.55"/>
    <path id="island_68" data-name="island 68" class="cls-42" d="M108.62-38.92c4.8-6.19,14.79-13.76,21.59-19.15,5.4-4.79,7-8.78,9-13.77s4.41-10.98,9.4-14.77c6-3.39,13.59-4.98,22.97-2.37,8.79,1.21,18.77,5.21,28.76,3.43,10.99-1.39,20.98-8.97,30.77-13.15,9.39-3.19,16.98-4.78,23.17.02,6.19,4.8,9.77,13.19,17.15,20.79,6.78,6.2,16.77,10.2,20.96,14.2,4.59,3,2.99,6.99,3.78,10.79-.2,3.4,2.19,8.99,5.18,15.98,2.99,6.99,6.57,15.39,7.76,23.97.19,8.19-2.21,14.18-8.01,19.96-6.8,5.38-15.19,8.97-20.78,11.36q-4.2,1.79-10.39,2.79c-6.59,1.99-18.98,3.97-25.97,6.96-6.99,2.99-8.59,6.98-12.79,8.77-5.19,1.39-12.78,2.98-19.77.18-6.99-2.8-11.37-9.2-18.36-12s-14.58-1.21-21.97-3.02c-7.79-.81-13.78-3.21-19.57-3.22-5.39-1-10.99,1.39-17.37-5.81-6.78-6.2-16.75-21.79-21.94-31.98-5.58-9.19-7.97-14.79-3.57-19.98"/>
    <path id="island_4" data-name="island 4" class="cls-42" d="M109.33,138.97c-5.81,4.84-9.68,18.4-12.59,26.14-2.9,7.75-6.78,11.62-7.75,12.59l-3.87,3.87c-.97.97-4.84,4.84-5.81,10.65-1.94,6.78-1.94,16.46-6.78,21.3s-14.52,4.84-19.37,9.68-4.84,14.52-1.94,22.27c3.87,8.71,9.68,14.52,16.46,16.46,6.78,1.94,12.59-1.94,16.46-2.91q2.9-1.94,9.68.97c5.81,3.87,19.37,9.68,29.05,9.68s15.49-5.81,22.27-5.81,12.59,5.81,21.3,7.75c7.75,1.94,17.43-1.94,24.21-1.94,5.81,0,9.68,3.87,17.43,3.87s21.3-3.87,29.05-8.71,11.62-10.65,9.68-20.34-7.75-23.24-11.62-30.99c-2.9-7.75-2.9-11.62-4.84-16.46-.97-4.84-4.84-10.65-9.68-14.52-4.84-2.91-10.65-2.91-15.49-5.81-4.84-3.87-8.72-9.68-14.52-14.52-6.78-4.84-16.46-8.71-24.21-13.56-8.72-4.84-14.52-10.65-19.37-12.59s-8.72,1.94-14.52,1.94c-6.78,0-16.46-3.87-23.24.97"/>
    <g>
      <path class="cls-36" d="M111.84,3.77c-4.56,2.73-8.45,5.38-11.73,7.95"/>
      <path class="cls-33" d="M90.81,20.74s0,0,0,0"/>
      <path class="cls-29" d="M90.8,20.75c-32.08,41.17,95.65,63.39,89.33,110.07"/>
      <path class="cls-36" d="M180.13,130.83c-.56,4.16-2.2,8.52-5.1,13.11"/>
    </g>
    <g>
      <path class="cls-36" d="M148.29,273.57c-1.13,4.93-2.42,9.47-3.86,13.63"/>
      <path class="cls-34" d="M138.95,300.03s0,0,0,0"/>
      <path class="cls-37" d="M138.94,300.04c-36.52,69.66-131.46-.15-174.88,91.81"/>
    </g>
    <path class="cls-35" d="M357.93,342.84l-35.15,4.86c-15.12,2.09-26.84-12.97-21.09-27.12l13.36-32.87c5.75-14.14,24.65-16.76,34.03-4.71l21.78,28.01c9.37,12.05,2.19,29.73-12.94,31.82Z"/>
    <g>
      <path class="cls-36" d="M238.22,184.98c4.42-2.18,8.74-4.08,12.98-5.69"/>
      <path class="cls-31" d="M265.22,174.83h.01"/>
      <path class="cls-32" d="M265.23,174.82c81.08-20.52,123.91,62.03,108.02,99.12"/>
    </g>
    <g id="layer1">
      <g class="cls-59">
        <g class="cls-51">
          <rect class="cls-13" x="111.35" y="182.3" width="85.58" height="42.96"/>
        </g>
        <g class="cls-43">
          <path class="cls-39" d="M111.35,216.16c29.96,9.1,57.26,7.53,85.58.21v-34.07h-85.38l-.2,33.86Z"/>
        </g>
        <g class="cls-61">
          <polygon class="cls-16" points="199.09 115.46 97.83 123.14 108.88 198.05 210.14 190.36 199.09 115.46"/>
        </g>
        <g class="cls-52">
          <path class="cls-39" d="M127.56,122.38l-1.65,20.31-6.26,21.45-11.8,18.16c30.34,7.18,62.53,8.83,92.25,0l-11.8-18.16-6.26-21.45-1.64-20.31h-52.85Z"/>
        </g>
        <g class="cls-67">
          <polygon class="cls-24" points="140.2 141.82 211.75 117.87 167.88 78.3 96.33 102.25 140.2 141.82"/>
        </g>
        <g class="cls-47">
          <path class="cls-39" d="M123.87,122.37c20.11,4.72,41.87,4.52,60.34,0l-9.64-19.7-20.94-9.64-21.34,9.64-8.41,19.7Z"/>
        </g>
        <g class="cls-49">
          <polygon class="cls-7" points="151.77 222.92 258.94 137.19 182.41 -3.94 75.24 81.79 151.77 222.92"/>
        </g>
        <g class="cls-62">
          <polygon class="cls-40" points="128.29 41.88 131.19 39.36 205.89 177.11 202.99 179.63 128.29 41.88"/>
        </g>
        <g class="cls-58">
          <polygon class="cls-3" points="152.81 222.46 259.99 136.73 183.46 -4.4 76.28 81.33 152.81 222.46"/>
        </g>
        <g class="cls-68">
          <polygon class="cls-40" points="129.33 41.41 132.23 38.89 206.93 176.65 204.03 179.16 129.33 41.41"/>
        </g>
        <g class="cls-27">
          <polygon class="cls-15" points="188.39 196.15 236.72 154.18 202 90.14 153.66 132.12 188.39 196.15"/>
        </g>
        <g class="cls-54">
          <polygon class="cls-40" points="176.28 120 184.92 112.48 214.11 166.3 205.46 173.82 176.28 120"/>
        </g>
        <g class="cls-44">
          <polygon class="cls-20" points="57.61 105.73 161.44 210.03 273.28 112.84 169.45 8.54 57.61 105.73"/>
        </g>
        <g class="cls-65">
          <polygon class="cls-40" points="112.02 158.39 110.03 154.72 218.87 60.18 220.86 63.85 112.02 158.39"/>
        </g>
        <g class="cls-46">
          <polygon class="cls-17" points="58.78 106 162.61 210.3 274.45 113.11 170.63 8.81 58.78 106"/>
        </g>
        <g class="cls-28">
          <polygon class="cls-40" points="113.19 158.66 111.2 154.99 220.05 60.45 222.04 64.12 113.19 158.66"/>
        </g>
        <g class="cls-66">
          <polygon class="cls-23" points="236.31 83.31 203.14 22.14 152.54 66.09 185.71 127.25 236.31 83.31"/>
        </g>
        <g class="cls-64">
          <polygon class="cls-40" points="176.13 98.64 170.2 87.69 212.72 50.76 218.66 61.7 176.13 98.64"/>
        </g>
        <g class="cls-60">
          <polygon class="cls-6" points="181.54 152.41 148.37 91.25 97.77 135.19 130.94 196.36 181.54 152.41"/>
        </g>
        <g class="cls-26">
          <polygon class="cls-40" points="121.36 167.74 115.42 156.8 157.95 119.86 163.89 130.81 121.36 167.74"/>
        </g>
        <g class="cls-50">
          <polygon class="cls-1" points="176.23 91.03 153.57 97.59 158.77 126.37 181.43 119.81 176.23 91.03"/>
        </g>
        <g class="cls-57">
          <path class="cls-38" d="M177.15,108.67c.04,6.74-4.24,12.26-9.57,12.31-5.33.05-9.68-5.37-9.73-12.11,0-.07,0-.13,0-.2-.04-6.74,4.24-12.26,9.57-12.31,5.33-.05,9.68,5.37,9.73,12.11,0,.07,0,.13,0,.2Z"/>
        </g>
        <g class="cls-69">
          <polygon class="cls-9" points="176.82 88.42 153.42 99.48 162.18 129.17 185.59 118.11 176.82 88.42"/>
        </g>
        <g class="cls-55">
          <path class="cls-38" d="M179.15,108.77c.04,6.74-4.24,12.26-9.57,12.31-5.33.05-9.68-5.37-9.73-12.11,0-.07,0-.13,0-.2-.04-6.74,4.24-12.26,9.57-12.31,5.33-.05,9.68,5.37,9.73,12.11,0,.07,0,.13,0,.2Z"/>
        </g>
        <g class="cls-45">
          <rect class="cls-18" x="163.84" y="101.17" width="11.48" height="14.62"/>
        </g>
        <g class="cls-48">
          <path class="cls-41" d="M175.3,108.46c.03,4-2.51,7.26-5.67,7.29-3.16.03-5.74-3.18-5.76-7.18,0-.04,0-.08,0-.12-.03-4,2.51-7.26,5.67-7.29,3.16-.03,5.74,3.18,5.76,7.18,0,.04,0,.08,0,.12Z"/>
        </g>
        <g class="cls-53">
          <polygon class="cls-12" points="133.78 126.84 182.12 84.86 147.39 20.83 99.06 62.81 133.78 126.84"/>
        </g>
        <g class="cls-70">
          <polygon class="cls-40" points="121.67 50.68 130.32 43.17 159.51 96.99 150.86 104.5 121.67 50.68"/>
        </g>
        <g class="cls-63">
          <polygon class="cls-5" points="176.51 186.18 162.66 204.86 172.12 232.53 185.97 213.85 176.51 186.18"/>
        </g>
        <g class="cls-56">
          <path class="cls-39" d="M168.37,221.54v-22.78c4.98.05,7.5-.48,11.9-1.6v22.93c-3.97.63-7.21,1.11-11.9,1.45Z"/>
        </g>
      </g>
    </g>
  </g>
  <g id="Shadow">
    <g id="nicubunu_RPG_map_symbols_Blacksmith">
      <g id="layer2">
        <path id="path3945" class="cls-2" d="M199.73,10.1l84.89-40.55-35.65-28.07-76.4,21.42s27.16,47.21,27.16,47.21Z"/>
        <path id="path3361" class="cls-11" d="M170.31-66.57l29.16,26.3-.65,50.23-6.37-5.06,1.06-1.63,1.88-3.36,1.23-5.46.57-7.93-2.12-.65c-1.39.04-2.66-.69-3.84-1.96l-1.55,2.2h-.65l.33-8.41-2.2-.74-3.92-1.8-3.1-3.02-.9-.98-2.61,9.88-2.86-3.35-1.63-2.37-1.39,3.59-.41-.57.16-1.55v-8.41l-.25-7.51.74-1.72-.65-4.65.41-13.31-.08-2.53s-.33-5.23-.33-5.23Z"/>
        <path id="path3365" class="cls-21" d="M170.31-66.57l29.16,26.3-.65,50.23-6.37-5.06,1.06-1.63,1.88-3.36,1.23-5.46.57-7.93-2.12-.65c-1.39.04-2.66-.69-3.84-1.96l-1.55,2.2h-.65l.33-8.41-2.2-.74-3.92-1.8-3.1-3.02-.9-.98-2.61,9.88-2.86-3.35-1.63-2.37-1.39,3.59-.41-.57.16-1.55v-8.41l-.25-7.51.74-1.72-.65-4.65.41-13.31-.08-2.53s-.33-5.23-.33-5.23Z"/>
        <path id="path3367" class="cls-4" d="M199.47-39.94l2.04,1.8-.41,47.78-1.88.5-.65-.9.9-49.17Z"/>
        <path id="path4371" class="cls-19" d="M185.18-13.89l2.08.65,2.12-.41,1.88-2.49,1.31,1.22,4.41,1.39.2,2.69-.61,4.86-.82,4.53-.82,2.46-2.08,3.59-4.49,3.96-3.43,1.27-2.25-5.19-.86-5.68s1.68-6.98,1.55-7.38,1.8-5.39,1.8-5.48Z"/>
        <path id="path4383" class="cls-14" d="M180.07-10.78l-2.29,8.61-1.31,6.46,2.61.44,3.18-.73-.29-3.96.61-4.94.86-3.92-1.75-1.15s-1.63-.81-1.63-.81Z"/>
        <path id="path4387" class="cls-25" d="M180.07-10.7l-2.12,7.71-1.27,7.28-.49-.29-.94-4.17-.53-3.67,1.35-1.88,2.16-2.86,1.76-2.37.08.41s0-.16,0-.16Z"/>
        <path id="path4391" class="cls-22" d="M172.23-24.51l1.88,2.74,2.16,2.65,3.39,2.78,2.25,1.14-1.43,2.61-1.96,3.71-2.98,3.97-3.92,4.19-1.67,1.15-1.1-4.5-.33-3.84.04-3.67.53-4.24s1.31-4.45,1.55-4.86c.24-.41,1.67-3.92,1.59-3.84h0Z"/>
      </g>
      <g id="layer1-2" data-name="layer1">
        <path id="path2308" class="cls-10" d="M222.71-137.18l-59.62,22.75-4.9-3.43-4.82-3.35v-.12l-3.72.82c-2.27.27-4.24.24-7.68,1.67l-4.37.94-.25,2.45c-.32,1.38-.98,2.6-.45,4.41l-.69,6.98-3.02.98-.06,2.39c-.03.47,2.42,1.95,2.35,2.44-.44,3.03-1.2,5.42-.66,8.07l-2.16,21.64h-.08l-.25,7.88c-.91,3.84-.25,6.36-.33,9.52l-.33,10-.45,14.17c7.27,8.2,16.95,14.9,26.63,21.6v-.21c2.67-.98,2.58-.64,10.37-4.5,0,3.36.56,6.8,1.59,10.45,1.56-.67,3.17-2.08,4.74-3.83.22,2.54.76,5.06,1.76,7.59,1.87.89,3.87.67,5.8-.08.54,1.87,1.42,3.76,2.61,5.75,3.36-.69,5.82-2.29,7.64-4.4l6.74,5.1,2.21-.77.45-39.65,1.31,1.02.08,14.21L222.42.07l1.43-.73-.25-11.55,4.78,3.96,17.4-8.13v1.35l7.27,2.74,3.15-.13,3.35-1.67.73.61-.04-.98,4.29-2.2,1.23.82.12-1.47,5.72-2.82,1.23,1.14-.04-1.88,4.61-2.37,1.14.74.13-1.23,4.04-2.12-2.37-3.43-3.59-1.59,3.02-1.43,3.92,2.37,1.84-1.31-.13-35.32,6.09-3.02-.17-1.96-68.6-65.62h0ZM222.46-136.44l67.75,64.77-79.88,38.55-53.54-49.41,16.66-5.02-.2-.49-1.31-20.25-7.8-5.43,58.31-22.71ZM220.17-131.34l-.53.33,11.47,12.54-11.76,5.19-8.21-8.78-.65.21,8.33,8.82-17.11,7.55-6.57-7.47-.41.33,6.49,7.35-16.95,7.47-9.11-10.33h-.29l9.15,10.45-2.04.9.25.45,2.12-.94,21.56,24.71-7.02,3.68-10.21-10.94-.41.12,10.21,11.03-.94.49v.37l1.18-.61,1.96,2.12.29-.33-1.88-2,7.06-3.67,11.43,13.15-15.31,9.03-26.87-27.81,14.62-7.96-.57-.37-14.37,8-2.86-2.94-.57.21,2.94,3.02-2,1.1.45.24,1.88-1.02,26.99,27.73-1.92,1.14.2.24,1.96-1.14,4.45,4.62.12-.45-4.21-4.37,15.39-8.9,4,4.57.41-.45-3.92-4.41,6.49-3.76,10.41,11.56.29-.21-10.33-11.56,4.53-2.61-.53-.37-4.37,2.57-4.21-4.7-.41.21,4.25,4.7-6.41,3.8-11.56-13.07,24.71-12.86-.33-.25-24.58,12.86-21.72-24.62,16.87-7.51,11.6,13.11.41-.33-11.47-13.03,17.07-7.6,13.56,14.33-6.94,3.63-5.1-5.43-.53.45,5.06,5.27-4.53,2.37.45.12,4.29-2.25,4.78,4.94.29-.45-4.49-4.78,6.94-3.63,11.6,12.25.2-.21-11.43-12.25,7.19-3.8-.33-.12-7.06,3.68-13.43-14.37,11.76-5.23,1.71,1.88.2-.45-1.47-1.63,3.47-1.55-.04-.33-3.67,1.63-11.39-12.66h0ZM213.68-127.83l-32.02,13.39-2.16-2.2-.65.33,2.16,2.16-1.63.69.49.65,1.76-.73,5.72,5.72.45-.33-5.55-5.68,31.69-13.68-.25-.33ZM152.71-120.23l4.49,3.06c.48.94.79,2.02,1.35,2.9l-4.9-3.27-8.7,2.45,11.15,10.37,11.19-3.72-5.35-3.59c.9.07,2.34.47,3.43.53h.04l5.23,3.63c-3.76,1.38-7.75,2.98-11.47,4.25-1.22-1.25-1.8-1.26-3.06-.12-.27.27-.52.65-.65,1.18-.02.07-.02.14-.04.2l-5.02-4.78c.03-.19.06-.38.08-.57.1-.79-.29-1.49-.73-2.33-1.04-.93-1.43-1.62-2.65-2.41-1.08.09-2.34-.68-3.51-1.22-.04-.04-.08-.08-.12-.12l-3.63-3.47,2.33-.53c1.13,1.57,3.15,1,5.15,1.1,1.57-.73,2.16-1.64,2.86-2.98l2.57-.57ZM148.02-119.82c.57,0,1.13.07,1.72.16-.54,1.23-1.36,2.2-2.74,2.41-1.75.63-3.38.14-4.49-.69,1.71-1.22,3.56-1.86,5.51-1.88ZM138.3-117.25l3.76,3.59c-.44,3.07.14,5.5,1.96,7.96,2.07.07,3.21,2.56,6.21.2,0-.1.04-.22.04-.33l4.98,4.82c-.01.39-.03.79-.04,1.19.05.11.11.19.16.28l-.08,22.34c-.86-.97-1.58-1.26-2.9-1.43-2.23.27-1.99.79-1.43,2.9,1.17,1.09,2.73,1.59,4.29,1.88l-.08,22.87h.08l.28,10.21c-.3-.12-.62-.22-.94-.37-.87-.5-1.63-.79-2.29-.82-1.1-.04-1.9.69-2.41,2.69.04,1.13,1.48,1.33,2.53,2.17,1.22,1.04,1.95,1.63,3.27,1.63l.08,3.43.2,6.53c-.83-.21-1.67-.4-2.74-.41-.49,0-1.02.03-1.63.12-.9,1.62-.48,2.62.21,4.21,1.1,2.29,2.32,2.81,4.33,2.61l.33,10.78c-.11-.03-.22-.09-.33-.12.13-2.23-.29-3.46-2.41-4.17-.12-.01-.25-.01-.37,0-.7.08-1.22.69-1.76,1.15-4.76-2.75-8.68-5.5-12.13-8.66.48-.48.24-1.22.53-2,.16-2.36-.07-3.96-1.39-5.84l-.04-.08c-1.25-1.02-2.36-1.49-3.47-1.47-.84.01-1.69.29-2.57.86l.29-17.97.08-4.53c1.48.14,2.51,1.62,4.37-.49-1.52-2.97-.8-4.32-.33-6.45-1.16-1.87-2.06-2.01-3.88-2.65l.12-7.39h.04l2.16-21.81c2.67.46,2.47-1.15,2.78-3.76-.5-2.55,1.48-4.69,1.02-7.15-.42-.72-1.48-.53-2.49-.9l.9-9.03c1.57-.02,2.04-.05,2.33-1.63.34-1.78-.6-2.18-1.84-3.18l.2-1.8ZM155.78-32.03c-.11-1.65-1.05-2.17-2.41-2.86-1.72-.41-3.51-.53-5.27-.73-1.93,0-2.21,1.33-2.57,2.98-.69,3.01-.08,5.1,2.21,7.1,2.16-.46,2.89-2.58,3.84-4.41,1.93-.48,3.01-1.31,4.21-2.08ZM157.78-116.76c1.94,1.1,4.81,1.77,7.02,4.78-2.05.18-4.06-.62-5.8-2.33-.55-.68-.86-1.6-1.23-2.45ZM152.88-116.23l.04,3.27c-1.48-1.65-3.28-1.43-5.31-1.14l-.65-.61,5.92-1.51ZM153.73-116.15l2.45,1.59c-1.61.1-1.88.89-2.2,2.49.03.7.25,1.38.53,2.08,2.13.02,3.45,2.67,6.82-1.31l4.04,2.57-2.82.9c-.93-.84-1.36-.72-2.65-.41-.6.54-.83.96-1.02,1.59l-2.33.78-2.82-2.61v-7.68ZM138.09-115.17c.98.75,1.66,1.68,1.63,2.86-.11,1.33-1.11,1.13-2.08,1.35l.04-.33c-.79-1.68.21-2.62.41-3.88ZM156.18-114.23c.18,0,.38,0,.57.04.04,0,.08.03.12.04l3.92,2.53s.07.1.08.12c-1.3,2.22-3.89,2.37-5.84,1.27-.67-.55-.55-1.36-.57-1.76,0-1.24.66-2.21,1.71-2.25ZM149.28-113.86c1.18-.01,2.43.22,3.27,1.26.2.69-1.85.63-2.61.61l-1.92-1.8c.41-.04.81-.08,1.27-.08ZM142.46-113.29c2.74,1.51,4.84,4.56,7.23,6.94-.02.29-.03.54-.04.82-1.5,1.16-4.14.08-5.47-.65-1.82-1.94-2.32-5.12-1.72-7.11ZM143.93-113.21c1.06.5,2.28,1.17,3.06,1.39,1.03.45,1.34,1.34,2,2.25.25.49.9,1.16.82,1.84,0,.05,0,.15,0,.2-2.58-1.36-4.08-3.65-5.88-5.68ZM152.96-112.43l.04,3.27-2.7-2.45c.93-.16,2.03.33,2.66-.82ZM160.84-107.94c.41.01.82.15,1.22.29l-2.45.82c.12-.36.37-.68.53-1.02.24-.07.46-.09.69-.08ZM138.87-107.49c-.6-.05-.69.32-1.43,2.08-.04,1.1-.27,2.42,1.06,3.1,1.08.54,2.33.08,3.55.16,1.22-.25,2.35.97,3.72-.57-.55-1.9-2.3-1.83-3.88-2.82-.85-.36-1.31-1.57-2.21-1.8-.36-.07-.62-.15-.82-.16ZM170.8-107.21l.73,9.72c-2.41.47-3.5,1.4-3.51,3.67.78,1.93,2.17,2.11,4,2.49l.25,2.94-1.47.45c-1.01-.78-2.02-1.66-3.19-1.71-2.41.59-3.3,2.28-4.57,4.21l-6.94,2.04.08-15.15c1.01.74,2.3.4,3.68-.45.91-1.96.71-2.38-.12-3.88,0,0,11.07-4.33,11.07-4.33ZM138.99-107.12c.17-.02.33,0,.49.08.89.24,1.92,1.45,2.29,1.63v.04h.04c1.32.55,3.37,1.65,3.84,2.65-.7.97-2.8.42-3.55.2-.92-.27-2.37.5-3.35,0-1.45-.74-1.2-2.16-.98-2.61.2-1.35.71-1.94,1.22-2ZM169.37-105.04c-2.75.33-4.55,1.63-6.74,3.27-1.36,2.96-1.01,3.46,2.33,3.76,2.65-.33,4.5-1.18,5.64-3.51.28-1.59-.44-2.57-1.23-3.51ZM169.33-104.63c.46.54,1.08,2.45.9,3.06-.84,2.23-3.4,2.97-5.35,2.9-2.14.07-3.72.19-1.8-2.49,1.28-1.69,3.68-3.29,6.25-3.47ZM157.41-104.1c.46-.1.83.34,1.18.7-.88.45-1.64,1.26-2.57,1.22-.05-.08-.12-.14-.16-.24.08-.32.64-.92.78-1.06.28-.38.54-.56.78-.61ZM136.25-103.34l-.28,1.65-1.58-1.03,1.85-.62ZM159.29-102.75c.59,1.03.4,2.31.12,3.39-1.13,1.29-3.15.22-3.76-.82,0-.02-.03-.02-.04-.04,0-.01,0-.03,0-.04.47-.66.64-1.02.65-1.27.77-.51,1.51-1.09,3.02-1.22ZM151.77-102.51c-1.96,2.13-1.04,4.94-.73,7.64-1.09,3.44.09,4.12,1.71,4.57,1.52-1.15.93-2.92,1.27-4.7.13-1.52.94-2.91.94-4.29-.45-1.78-1.69-2.39-3.19-3.23ZM133.76-102.22l2.04,1.92-.38,1.18-1.8-1.64s.14-1.45.14-1.45ZM151.98-101.98c1.38.18,2.43,1.93,2.61,2.82,0,1.44-.79,2.9-.9,4.21-.09,1.09-.15,3.63-.78,4.41-2.19-.05-2.51-2.86-1.55-4.25-.74-3.27-.73-6.16.61-7.19ZM136.62-101.08c.79.03,2.19.19,2.37.49.02,2.26-1.37,5-1.18,7.35-.07,2.37-.54,3.46-2.37,3.1-.62-4.2.83-7.36,1.18-10.82v-.12ZM142.38-99.32c-.64.01-1.3.1-1.92.33-1.83,3.39-.13,4.93,3.47,5.84,1.73-.04,3.03.11,5.06-.53.74-1.99.34-2.65-.9-4.21-1.82-.73-3.79-1.48-5.72-1.43ZM141.44-99.08c.3-.02.62,0,.94,0,1.9.06,4.16.74,5.59,1.39,1.01.72.95,2.71.82,3.8-1.01.22-3.06.65-4.74.33-3.33.06-4.86-2.83-3.43-5.35.25-.07.52-.14.82-.16ZM258.08-97.73l-4.21,2.45-2.2-2.33-.53.2,2.29,2.41-6.13,3.59.25.37,6.21-3.63,16,16.87-16.62,8.62-4.12-4.61-.21.29,3.96,4.49-11.35,5.92-15.56-16.29h-.65l15.89,16.46-2.04,1.06.33.24,2-1.02,1.8,1.88.29-.21-1.76-1.84,11.35-5.88,3.55,4.04.33-.29-3.51-3.96,16.62-8.62,3.88,4.08.29-.33-3.76-3.96,4.53-2.33-.24-.37-4.57,2.37-15.97-16.91,4.33-2.53-.44-.25h0ZM171.58-97.16c.58,1.56.9,3.21.45,5.63-1.56-.26-3.36-1.48-3.59-2.29-.01-2.75,1.73-3.01,3.15-3.35ZM161.78-95.85c-3.36.45-4.98,1.28-4.74,4.25.33,2.94,2.57,2.31,5.23,2.12,1.42-.43,2.1-1.46,2.9-2.61.31-3.01-1.06-3.6-3.39-3.76ZM162.51-95.49c1.65.09,2.71,1.51,2.21,3.06.17.91-.98,2.32-2.53,2.37-2.08,1.12-4.85.35-4.74-1.55-.5-3.04,2.2-4.02,4.33-3.84.26-.04.5-.05.73-.04ZM145.32-92.38c-3.24.58-3.93,1.57-1.92,4.29,2.36,1.24,4.77,2.32,7.39,2.86h.08c1.17-.02,2.03-.66,2.74-1.59,0-2.08-2.23-2.23-3.84-2.69-1.42-1.33-2.63-2.52-4.45-2.86ZM144.46-91.89c.29-.01.63.02.98.08,1.54-.04,2.82,1.49,4.04,2.33.76.46,3.72.67,3.76,2.41-.13.74-1.55,1.65-2.37,1.51-2.37-.46-5.23-1.67-7.39-2.74-1.52-1.68-1.02-3.51.98-3.59ZM167.58-89.32c.83-.08,1.78.9,2.74,1.59-2.22,1.03-4.65,2.21-6.86,2.2.93-1.72,2.41-3.1,4.12-3.8ZM139.65-88.75c-.53,0-1.11.68-2.25,1.96-2.07,3-2.93,5.2,0,7.31,2.41.92,4.04.28,5.15-2v-.08c.11-1.75-.84-3.32-.98-5.06-.93-1.41-1.39-2.12-1.92-2.12ZM139.73-88.34c.47-.02.86.54,1.35,1.71.21,1.59,1.24,3.62,1.22,5.23-.73,1.65-3.02,2.2-4.61,1.8-3.15-1.77-1.83-5.44.25-6.98.76-1.12,1.32-1.73,1.8-1.76ZM145.24-83.89c-.76.05-1.45.29-2.12.94.4,3.94,4.15,3.23,7.11,3.43,1.49-.02,2.79-.37,4.12-.94,1.23-3.5-4.1-3.14-7.15-3.31-.42-.05-.82-.1-1.18-.12-.28-.02-.52-.02-.78,0ZM148.87-83.44c1.55,0,2.6.4,4.33.82.41.21.39,1.3.82,1.67-1.03.68-2.51.95-3.72,1.1-2.97.17-6.75-.08-6.82-3.1.72-.75,2.65-.28,3.63-.33.67-.1,1.24-.16,1.76-.16ZM156.06-81.93l53.17,49.04.41,1.43-53.58-49.08s0-1.39,0-1.39ZM156.06-79.76l2.82,2.61c-.24-.13-.5-.24-.86-.24l-1.96.45v-2.82ZM151.9-78.29c1.06-.08,2.69.73,3.63,1.59,0,0,0,.03,0,.04.52.9.35,1.71-.28,2.49v.16c-.82-.36-3.08-.69-4.04-1.76-.66-1.8-.18-2.47.69-2.53ZM137.36-77.72c-2.88.68-3.63,2.09-2.57,4.65,3.08,3.53,5.94,4.9,9.11,1.84-.85-2.49.64-4.83-6.53-6.49ZM137.6-77.23c2.68.6,6.09,1.75,5.72,5.72-2.64,3.66-6.42.55-8.05-1.96-1.54-2.21.16-3.7,2.33-3.76ZM158.06-76.91c2.24.28,1.62,1.16.49,2.53-.41.25-1.59.19-2.53.16.21-.73.37-1.47.08-2.33.74-.15,1.56-.38,1.96-.37ZM160.1-76.05l3.47,3.23c-.83-.01-1.61.16-2.37.53-1.29,1.16-1.08,2.33-.82,3.68,1.42.59,3.21-.85,4.66-1.19,1.04.32,2.08,1.19,3.06,1.1l2.04,1.88-.04,5.51c-.87-.17-1.85-.93-2.7-.94-1.64.24-3.16.71-4.7,1.35-.09.06-.13.14-.2.2.59-.34,3.45-.86,4.94-1.14,1.17-.33,1.65.61,2.7.86.53.54.52,1.4.12,2.41l-.08-.2c-.9.31-1.8.59-2.69,0-1.62.12-2.99.91-3.8.73-1.56.29-2.03-1.43-1.47-2.33-1.17,1.2-.34,2.14,1.35,2.74.99.21,2.18-.82,3.88-.94.9.45,1.76.62,2.66.49l-.08,13.68c-.41-.04-.81-.07-1.18-.04-1.57.12-3.21.09-3.88,2,.75,2.44,2.79,2.66,5.02,2.94l-.08,11.8c-2.01.18-3.68.75-5.35,1.96-.31,1-.47,1.08-.08,1.72.39.64.87,1.17,1.55,1.26,1.31.12,2.59.14,3.88,0l-.04,2.82c-.6,1.77-1,3.55-1.27,5.31l-1.75-.82c-2.51.78-3.5,2.06-2.94,4.46.29.51.74.99,1.35,1.42-1.51,1.02-4.46,2.08-7.47,2.73l-.53-12.33,4.21-.12c.67-1.88,1.26-3.75.57-5.47-1.62-.98-3.26-.73-5.02-.49l-.45-10.25c1.69-.1,3.82.39,5.43.41,3.86-1.06,5.7-3.35,1.1-4.7-2.4-.47-4.32-1.18-6.62-.49-.04-.03-.08-.05-.12-.08l-.45-10.62.12-22.95c1.01.04,2.14.1,2.78-.29,0,0,1.31-1.84,1.31-1.84ZM149.65-73.8c-.53.01-1.08.1-1.71.08-2.74,0-2.41,1.73-2.25,4,.49,1.41,1.08,2.62,3.23,3.1h.08c3.14.5,4.62-.53,5.47-3.47-.29-2.03-1.66-2.2-3.19-3.35-.58-.31-1.1-.38-1.63-.37ZM147.93-73.47c1.02-.14,1.95.22,2.9.49,1.16.52,3.06,1.58,3.35,2.94-.5,2.38-2.9,3.07-5.1,2.94-1.94-.44-2.7-1.93-2.98-2.74-.6-2.13-.28-3.43,1.84-3.63ZM163.49-72.7c.09,0,.19.03.29.04l3.92,3.59c-.82-.09-1.94-.77-2.78-1.06-1.04.2-2.83,1.79-4.21,1.23-.73-1.17.2-2.86.78-3.06.38-.14,1.06-.69,2-.73ZM290.42-70.74l.24.98-80.16,38.63v-1.06s79.92-38.55,79.92-38.55ZM135.15-68.25c-.55.08-1.05.42-1.59.57-.24,1.63-.09,3.13,1.14,4.45,1.78,1.17,3.36,1.78,4.65,1.39-1.5.31-3.47-.93-4.41-1.67-1.07-.96-1.57-3.02-1.06-3.88.4-.45,2.16-1.12,2.82.53,1.57.81,3.34,2.31,4.17,3.76-.08.16-.16.32-.25.45.14-.16.31-.32.45-.53-.93-1.99-2.52-2.45-4-4.12-.76-.86-1.37-1.03-1.92-.94ZM163.65-68c-1.33.03-2.3,1.87-3.43,2.49-1.08.22-2.35-.75-3.14-.16-.31,1.07-1.23,2.09.94,3.31,2.43-.47,4.97-1.03,7.31-2l.08-.04c2.58-2.02.41-3.02-1.76-3.59ZM164.18-67.63c1.16.13,3.01,1.56,1.1,2.86-1.8,1.06-4.41,1.92-7.23,2-1.63.21-1.23-2.49-.74-2.69.29-.22,1.87.39,2.98.16,1.04-.72,2.27-1.9,3.43-2.29.12-.04.28-.06.45-.04ZM284.98-66.45v34.26l-.86.49.09-34.38s.77-.37.77-.37ZM170.88-66.12l3.35,3.06-1.06,39.08c-.33-.45-.64-.9-.98-1.35-.51.99-.98,1.97-1.39,2.94,0-5.9.03-11.86.04-17.44.31-1.42.46-2.88,0-4.45,0,0,.04-21.85.04-21.85ZM283.27-65.63l.08,34.75-2.69-2-.13-31.4s2.74-1.35,2.74-1.35ZM149.89-65.27c-2.66-.09-4.13,1.01-6.04,1.8-1.76,4.58,6.91,4.28,9.6,4.04.7-.26,1.05-1.09,1.47-1.67-.25-3.42-3.08-3.56-5.02-4.17ZM149.03-64.82c.29,0,.56.04.86.08,2.87.27,6.74,2.63,3.47,4.94-4.41.87-10.27,0-9.15-3.31.87-.89,2.77-1.73,4.82-1.71ZM280.23-64.16l.13,31.08-.41-.29-.13-13.68-3.67-2.25.25-12.99s3.83-1.88,3.83-1.88ZM174.51-62.78l4.08,3.76-.9,34.67c-.42,1.51-.83,3.04-1.22,4.57-1.02-1.16-2-2.42-2.94-3.72,0,0,.98-39.29.98-39.29ZM276.11-62.16l-.25,12.7-3.42-2.12-.21-8.7s3.88-1.88,3.88-1.88ZM133.02-60.24c1.53.51,2.68,1.19,3.55,2.33-.77,1.96-.3,4.31.25,6.33-.99.97-2.59.56-3.96.29-.72-3.68-.74-7.15.16-8.94ZM271.94-60.12l.12,8.29-3.35-2.04-1.14.49-.09-4.57s4.46-2.16,4.46-2.16ZM178.88-58.77l3.76,3.43v.04l-.49,28.95c-1.11-.99-2.06-2.08-3.02-3.18-.31,1.18-.65,2.36-.98,3.55l.73-32.79ZM142.08-58.28c-.21,0-.45.04-.69.08-2.19,1.19-1.18,2.76.04,4.33,2.46,1.56,3.39,2.52,7.23,3.67,1.19-1.18.7-1.42.61-2.98.14-3.29-.05-3.09-3.1-3.88-1.64-.45-2.59-1.26-4.08-1.22ZM142.17-57.96c1.33-.03,2.76,1.11,4.04,1.35,3.78.36,2.69,1.84,2.74,3.59.11.85-.04,1.57-.45,2.21-1.7-.57-5.12-1.62-6.66-3.27-1.89-1.09-1.33-3.46-.25-3.8.19-.06.38-.08.57-.08ZM267.21-57.83v4.61l-3.44,1.51.21-4.53s3.23-1.59,3.23-1.59ZM151.56-57.14c-1.73.63-.18,5-.41,7.15.07,2.21-3.08,3.78.37,6.7,2.11.2,2.85-.68,3.63-2.41.31-1.39-.26-3.01-.29-4.21.29-1.78.1-3.33-.45-4.98-.49-1.93-1.04-2.12-2.86-2.25ZM151.68-56.77c.97-.04,2.05.06,2.49,1.88.6,1.46.16,3.54.37,5.14.44,1.1.42,2.62.29,3.88-.29,1.82-2.2,2.7-3.06,2.37-2.84-1.27-1.35-4.09-.33-6.17l.08-.08c.2-2.37-1.53-5.74.16-7.02ZM163.93-56.49c-2.49.05-4.9.33-7.27,1.35-.87.86.1,1.74,1.06,2.7,1.73.87,2.28.63,3.67-.25.23-.13.32-.15.74-.04,1.51.19,2.54-.47,3.76-1.23.64-.6.15-1.09.12-1.71-.42-.51-1.06-.72-2-.82h-.08ZM164.09-56.28c.87-.06,2.4.89,1.43,1.88-1.22.91-2.87,1.12-4.29,1.43-.84,1.14-2.32.75-3.31.33-.97-.2-1.49-2.18-1.06-2.33,1.92-.71,5.2-1.21,7.23-1.31ZM263.62-56.08l-.09,4.49-3.71,1.63.12-4.33,3.69-1.8ZM182.92-55.06l4.57,4.21-.65,27.36c-1.73-.67-3.16-1.54-4.37-2.57,0,0,.45-28.99.45-28.99ZM259.45-54.04l-.13,4.33-.77.33-2.33-1.8.21-1.39s3.02-1.47,3.02-1.47ZM268.85-53.14l9.92,6.21-5.76,2.53-.29-.57-3.31.98-.69-1.8.65-1.71-3.23.41-.89,1.88-.29-.45-2.86,2.74-.82-2.82.21-2-1.56,1.8c-.35.7-1.8,0-2.61.7l2.13.65,2.04,2.16-4.46.37.9,1.8,2.61-.41.73,1.51-4.57,2c-.47-.56-.88-1.15-.77-1.96l.65-1.71c-.08-.42-.51-.59-1.06-.61-1.65-.07-4.48,1.41-3.19,3.14l1.76.33c.56.39.82.94.94,1.55l-26.26,11.64-9.23-6.98,6.9-2.98v3.51l1.84.45-.86,1.47c.48.95,1.71,1.48,4.04.74l.53-1.31,3.8.94h.04l7.11-2.49h.04l1.31-.9-.65-2.53-6.45-1.43-1.8-.45,1.35-2.45,32.1-13.93h0ZM255.93-52.32l.04,1.1-.9-.69.86-.41ZM140.16-52c-1.23-.08-1.64.48-2.29,1.43.13,1.39,1.12,2.22,2.12,3.1,1.43,1.09,3.01,1.7,4.29,2.61,1.21.4,2.07-.4,3.06-1.02.15-.99.54-1.87-.04-3.14-2.34-1.16-4.59-2.36-7.15-2.98ZM140-51.67c2.24.28,5.07,2.15,7.11,3.02.16.75.08,2.34-.04,2.53-.13.21-1.7.82-2.61.9-1.36-.92-3.12-1.6-4.29-2.49-.87-.68-1.66-2.3-1.84-2.66-.46-.64,1.43-1.13,1.67-1.31ZM254.51-51.59l3.27,2.53-20.5,8.78,2.25-4.08,14.99-7.23ZM165.16-50.97c-.2,0-.39.02-.57.04-.74.09-1.38.44-2.04,1.22-.49,1.14-1.34,1.87-.61,3.47,1.98,1.2,3.88.58,5.92,0,.89-.18,1.3-.88,1.84-1.55.39-2.45-.3-2.61-2.49-2.98-.78-.09-1.45-.2-2.04-.2ZM164.79-50.61c.74-.04,1.56.14,2.37.24,1.52.19,2.04.95,2.33,2.33-.11.25-.93,1.12-1.84,1.39-1.5.67-3.83.66-5.39.41-.3-1.07.44-2.89.69-3.23.44-.84,1.1-1.1,1.84-1.14ZM187.86-50.53l3.92,3.59-.49,30.34c-.08-.1-.16-.18-.24-.29-.43,1.14-1.03,1.95-1.8,2.45.06-3.27.16-5.7.37-8.25-.9-.17-1.69-.42-2.45-.69,0,0,.69-27.16.69-27.16ZM133.83-47.1c-.57.32-.6.97-.74,1.55-.27,1.16-.2,2.35.57,3.35l.04.04.08.04c1.78,1.47,4.09,1.28,6.25,1.67,3.69-.28,3.98-1.17,2.86-4.33-2.72-1.84-5.82-2.4-9.07-2.33ZM268.52-46.93l-.29,1.14-1.23.74-.98-.29.69-1.35s1.8-.25,1.8-.25ZM261.09-46.89l-.29,1.14-1.23.73-.98-.29,1.48-.24s1.02-1.35,1.02-1.35ZM134.25-46.81c2.37.07,5.91.52,8.25,2.12,1.59,2.57.08,4.09-2.53,3.84-1.94-.36-4.37-.02-5.88-1.23-.55-.71-.71-2.7-.57-3.31-.04-.57.47-1.23.74-1.43ZM192.07-46.65l3.51,3.23-.33,28.91c-1.28-.26-2.54-.65-3.64-1.72l.45-30.42ZM158.09-46.56c-1.31-.03-1,.68-1.63,1.59-.01,1.84-.07,2.37,1.51,3.39,2.21-.22,3.09-1.12,3.76-3.06-.72-1.49-2.11-1.64-3.63-1.92ZM158.79-46.28c1.08.03,2.22.54,2.61,1.72.05,1.47-1.85,2.51-3.35,2.69-1.89-.77-1.57-3.58-.29-4.29.31-.08.66-.13,1.02-.12ZM279.09-45.91v12.99l-2.82,1.35-.37-.77-.2-6.53-1.44-3.55-2.77,1.02-.33-.69,2.44-1.1-.12-.24s5.59-2.45,5.59-2.45ZM268.31-45.38l.65,1.43-.69.41-.94-1.31.98-.53ZM260.88-45.34l.94,2.57-1.92-2.04.98-.53ZM264.8-45.22l.86,1.39-3.8,2.17-3.55.86-.65-.9,4.38-.57s2.77-2.94,2.77-2.94ZM265.41-44.93l1.48.28,1.06,1.27-3.23,1.8.33.74-.61.24-.69-1.47,2.29-1.76s-.61-1.1-.61-1.1ZM272.19-44.32l.69.94-6.82,3.1-.69-1.22,2.86-1.47.37-.16.94-.49s2.65-.7,2.65-.7ZM239.28-44.24l-4.61,7.31-2.04-.41,3.84-5.55,2.82-1.35ZM168.18-44.07c.69,0,1.39.11,1.92.24l.04-.12c.68,1.24.31,2.78-.12,4.16-2,.16-4.41-1.13-4.61-2.78.47-1.19,1.63-1.51,2.78-1.51ZM195.75-43.26l3.35,3.06-.86,48.56-2.94-2.17.08-6.08c1.62-4.42,1.98-9.62,2.12-14.18-.66-.15-1.34-.28-2-.41,0,0,.25-28.79.25-28.79ZM236.01-42.68l-3.1,4.33-1.71.73-2.21-.45-2.41,2.41-7.96,3.43-.41,11.23-16.33-13.43-.04-3.27,8.21,7.55s25.97-12.54,25.97-12.54ZM146.86-42.48c-.31.05-.61.17-.94.24-.44.28-.69.63-.98,1.02-.44.95-.21,1.95-.12,2.94.18.4.65.73,1.1.78,2.11-.1,2.04-.6,2.78-2.57l-.86-2.29c-.33-.16-.67-.18-.98-.12ZM147.07-42.24c.25,0,.49.05.69.16.22.36.67,1.69.65,1.92-.93,2.48-1.89,2.17-2.53,2.49-.64-.24-1.01-2.54-.45-3.31.03-.75.87-1.26,1.63-1.27ZM263.29-42.19l9.15,19.4.2,3.31-2.37-2.41-9.51-19.15,1.23-.28,8.08,17.07,2.33,3.92-2.04-4.16-8.28-16.95s1.23-.74,1.23-.74ZM274.15-42.11l1.02,2.69-2.17,1.06-1.35-2.7,2.5-1.06ZM270.85-41.99l7.67,15.6-.16,3.39-2.71-2-7.27-15.89.98-.49,6.17,13.6,2.57,3.92-1.88-4.17-6.73-13.43,1.35-.53ZM152.5-41.7c.63.01,1.29.33,1.88.9.54.25.93.76,1.19,1.06l.12,3.96c-1.14-.03-2.09-.41-3.06-1.39v-.04c-.9-.46-1.99-1.38-2.41-2.12.28-1.58,1.23-2.38,2.29-2.37ZM255.32-41.09c.44,0,.81.12.94.45l-.81,1.51-1.23.74-1.59-.29c-.8-1.09,1.36-2.39,2.69-2.41ZM267.99-40.72l.33.7-3.02,1.31-.46-.98.61-.29.17.33s2.37-1.06,2.37-1.06ZM158.13-39.99c.2-.02.41,0,.61,0,1.44.03,2.95.47,4.41.65,3.98.81,1.07,3.2-.98,3.92-1.86-.01-3.84-.53-5.63-.41l-.16-3.67c.57-.28,1.15-.44,1.75-.49ZM199.71-39.62l1.02.94-.16,3.51c-.36.19-.69.4-.94.65,0,0,.08-5.1.08-5.1ZM268.47-39.62l1.36,2.86-2.9,1.51-1.48-3.1,3.02-1.27ZM255.53-38.72c-.07.7.42,1.42,1.1,2.12l-1.1.41c-.01-1.01-.55-1.63-.98-2l.98-.53ZM275.09-38.6v4.57l-.5-1.02-.08-3.27s.57-.29.57-.29ZM261.74-38.36l.41.86-1.56.69-.41-.82s-.08,0-.12,0l1.67-.73ZM274.19-38.15l.04,2.33-.94-1.88.9-.45ZM134.89-37.95c-.97,1.07-1.14,2.31-1.39,3.64.08,1.08.65,2.07,1.51,3.06,2.08,2.14,4.59,2.55,7.43,2.82,2.67-1.15,2.14-1.74,1.06-4.25l-1.59-3.31c-2.27-1.09-4.48-2.01-7.02-1.96ZM135.26-37.66c2.38-.24,4.7,1.1,6.33,2,.79.84,1.13,2.44,1.59,3.23.91,1.7.65,2.6-.53,3.63-2.79.09-5.14-1.03-7.19-2.65-.68-.81-1.35-2.26-1.51-2.9-.13-.5.63-2.34,1.31-3.31ZM229.14-37.46l7.51,1.19-1.27,2.57-8.08-1.71,1.84-2.04ZM259.93-37.17l.65.94c-2.94.2-5.44,1.43-7.1,3.23l-.33-.94c1.74-1.63,3.86-2.87,6.78-3.23ZM262.39-37.01l1.56,3.14-3.59,1.8c-.65-1.07-1.32-2.12-1.88-3.23l.61-.29,2-.33-.25-.45s1.56-.65,1.56-.65ZM236.98-36.07l6.29,1.31-.57.57-6.74.16,1.02-2.04ZM270.1-36.07l1.07,2.29.08,4.29.25.12-1.52.73-2.82-6.04s2.94-1.39,2.94-1.39ZM258.06-35.33c2.65,5.09,6.43,9,7.67,15.6l-.16,3.39-2.71-2c-4.13-4.61-5.04-10.51-7.27-15.89l1.02-.45,6.13,13.56,2.57,3.92-2.61-4.53-6.01-13.07s1.36-.53,1.36-.53ZM147.72-35.29c1.81.07,3.65.39,5.43.69.87-.2,2.21,1.28,2.37,2.45-1.35.67-2.38,1.53-4.29,1.92-.12,2.28-1.82,3.31-3.39,4.37-2.49-1.52-2.61-4.87-1.84-6.7-.16-.87.73-2.29,1.72-2.74ZM227.02-35.01l8.49,1.68.04,3.96-3.39-.9.9-2.12c-.55-.94-1.98-1.5-3.35-.94l-1.14,2.08-1.55-.41-.16-3.31s.16-.04.16-.04ZM253.03-34.56c-.15.18-.29.38-.45.61l.24.53-6.74,2.9-.41,3.06.08,10.13-17.11,8.01.25-14.75s24.13-10.49,24.13-10.49ZM243.48-34.48l.37,2-.94.73-.16-2.04.74-.69ZM200.56-34.39l23.44,18.91c.51.8.95,1.58.24,2.08l-23.85-18.91c-.71-1.26-.34-1.74.16-2.08ZM242.41-33.95l.21,2.2-6.78,2.29-.16-4.12s6.74-.37,6.74-.37ZM255.28-33.9c.52,1.2.97,2.44,1.42,3.68l-2.36,1.14-.12-.29,1.92-1.47-3.11.33-.53-1.43-.94-.41,1.47-.61.33.73,1.51-1.51s.41-.16.41-.16ZM164.25-33.33c-7.46.48-5.76,1.4-7.35,2.16.11,2.69,1.78,3.66,4.21,4.08,1.62-.17,3.24-.33,4.86-.49,1.63-1.22,1.46-2.43,1.14-4.29-.7-1.12-1.72-1.22-2.86-1.47ZM229.84-33.13c1.09,0,2.09-.19,2.61.98l-1.39,2.98c-1.75.67-2.72.43-3.06-.53l1.84-3.43ZM264.31-33.13l2.85,5.8-3.21,1.47c-.97-1.9-2.1-3.72-3.23-5.55l3.59-1.71ZM164.17-32.84c.69.16,2.11.02,2.57,1.35.43.66.02,2.96-.86,3.76-1.4.18-3.18-.02-4.7.2-2.11-.14-3.95-1.98-3.67-3.31.3-1.76,4.11-2.07,6.66-2ZM251.44-32.27l.73.65.49,1.1-.53.33-.74-1.02s.04-1.06.04-1.06ZM271.86-32.27l.94,2.04-.86.28s-.08-2.33-.08-2.33ZM251.28-32.19l-.25,1.14.82,1.02-2.37,2.2,2.2-.49.2.45-2.61,1.31-2.41-3.72s4.41-1.92,4.41-1.92ZM199.62-31.9l1.06,1.19-.16,39.61-1.43.54s.53-41.33.53-41.33ZM219.38-30.76l8.66,6.45-.2,14.42-2.86-2.33c.36-1.12.72-2.23,0-3.35l-5.92-4.74s.33-10.45.33-10.45ZM255.57-30.6l-2.49,1.84-2.9.49,2.49-1.84,2.9-.49ZM229.47-30.39c-.36.03-.72.18-.98.53l-.04.12c.73-.55,1.57-.24,2.41.41l.08-.45c-.28-.35-.88-.66-1.47-.61ZM246.33-29.94l2.25,3.47-2.53-.86s.28-2.61.28-2.61ZM277.09-29.94l2.33,1.06-1.52.65s-.81-1.72-.81-1.72ZM272.96-29.9l.33.73-1.06-.49.73-.24ZM256.99-29.53c.73,1.98,1.45,3.96,2.29,5.88l-2,.94-2.61-5.72c.77-.38,1.57-.74,2.32-1.1ZM254.01-29.13l5.84,12.95.29,2.33-1.92-1.67-6.17-12.82,1.27-.2.69-.57ZM272.51-28.92l1.1.49.9,1.92-2.9,1.43-1.31-2.82s2.21-1.02,2.21-1.02ZM135.13-28.84c1.11.05,2.25.52,3.1,1.1,1.3,2.12,2.32,5.4.77,7.35-2.32-2.17-4.45-4.53-6.49-7.19v-.29c.71-.72,1.65-1.02,2.61-.98ZM179.52-28.6c.97,1.45,2.08,2.58,3.23,3.47-.28,3.1-.91,6.08-1.63,9.02-1.58-.72-2.88-1.8-4.08-3.06.79-3.21,1.67-6.39,2.49-9.43ZM280.27-28.6l1.75,2.53-3.35,1.72.16-1.96-.65-1.31,2.09-.98ZM204.6-27.41l16.33,12.45v.04l.41,12.62-16.91-13.02s.16-12.09.16-12.09ZM169.93-27.29c.57,1.52.49,2.78.04,3.92-1.3.12-2.55.36-3.88.41-1.48-.61-1.45-1.65-1.18-2.57,1.34-.97,3.25-1.39,5.02-1.75ZM252.25-27.17l2.69,5.51-3.55,1.72-.28-6.66s1.14-.57,1.14-.57ZM246.05-27l2.74,1.23-.2,8.94,4.41.98v2.81l-6.78-2.37s-.16-11.6-.16-11.6ZM267.53-26.64l1.42,2.86-3.48,1.67c-.31-1.02-.73-2.01-1.18-2.98,0,0,3.23-1.55,3.23-1.55ZM250.62-26.35l.37,7.72-1.84,1.02.24-8.13s1.23-.61,1.23-.61ZM274.8-25.9l.61,1.35,1.63,1.06-4.34,2.12-.04-1.47-.77-1.67s2.9-1.39,2.9-1.39ZM153.06-25.7c.97-.03,2.05.2,2.9.57l.16,5.68c-2.26-.1-3.38-.84-3.88-2.21-.68-1.11-.61-2.74-.33-3.88.34-.08.73-.15,1.14-.16ZM159.06-25.08c1,.03,1.99.23,2.65.53.31,1.18-.21,3.56-.65,4.66-1.12.11-2.6,0-3.84.37l-.25-5.31c.34-.09.7-.17,1.1-.21.32-.03.65-.05.98-.04ZM183.2-24.76c1.76,1.25,3.68,1.96,5.63,2.37-.17,2.4-.11,5.31-.16,8.29-.93.34-2.08.24-3.55-.45-.73,1.69-1.38,3.4-1.92,5.14-1.61-1.16-.88-.9-2.78-1.91.11-.39.22-.8.33-1.19.59-1.07,1.15-2.12,1.63-3.1-.26-.08-.53-.15-.78-.24.72-2.88,1.3-5.83,1.59-8.9ZM172.21-24.23c2.23,3.89,5.51,6.9,9.09,9.1.08.42-.86,1.68-.97,2.08-2.56,5.03-5.93,9.45-10.29,12.95-2.79-10.19-.55-17.49,2.17-24.14ZM269.2-23.25l.81,1.63,1.15,1.06-5.27,2.61.16-1.72c-.09-.62-.25-1.24-.41-1.84,0,0,3.55-1.76,3.55-1.76ZM144.04-23.16c-1.6,0-1.99.62-2.65,1.84-.13.99.26,2.01.73,2.9,2.09,2.14,4.94,3.17,7.64,4.33,1.18.21,2.06-.78,2.94-1.47.42-.71.23-1.56-.16-2.2-.79-1.29-2.35-2.34-3.59-3.14l-.04-.04h-.04s-4.82-2.2-4.82-2.2ZM259.64-22.88c.47.99.94,1.97,1.52,2.9l-2.17,1.02-1.35-2.98,2-.94ZM143.91-22.76c1.51.87,3.23,1.53,4.7,2.21,1.53,1.01,3.73,2.81,3.8,4.65-.12.21-1.51,1.06-2.41,1.35-2.49-1.15-5.77-2.31-7.51-4.08-.37-.72-.8-2.18-.74-2.66-.09-.7,1.86-1.28,2.16-1.47ZM206.31-22.43l-.08,3.27,1.71,1.63v-4.33l-1.63-.57ZM172.34-22.06c-3.5,6.73-3.87,12.77-1.84,19.93,3.55-1.54,7.51-7.84,9.76-12.42-3.62-1.11-5.6-4.45-7.92-7.51ZM208.43-21.94l-.08,5.06,6.78,4.74.16-5.31-6.86-4.49ZM172.38-21.24c1.62,2.16,3.44,5.64,7.15,6.94-2.06,4.62-4.94,8.68-8.82,11.81-2.16-7.91-.43-13.6,1.68-18.75ZM167.35-20.96c-.46,0-1.01.12-1.72.21-2.34.06-2.82,1.17-3.51,2.94.24,1.32.88,1.25,2.08,1.39,1.18-.13,2.6-.59,3.43-.53,1.55-.72,1.32-1.75,1.67-2.61-.66-1.12-1.2-1.4-1.96-1.39ZM255.31-20.88l1.52,3.06-1.48.65-3.88-1.27-.04-.61s3.88-1.84,3.88-1.84ZM167.11-20.59c.38-.03.75-.02,1.06,0,.62.93,1.37,1.9-.61,3.1-1.24-.02-3.22.64-4.08.73-1.94-.67-.36-2.41.25-3.18.91-.28,2.25-.56,3.39-.65ZM261.48-19.49c.35.55.73,1.08,1.15,1.59l1.42.94-3.84,1.96-.04-1.39-.94-2.04s2.25-1.06,2.25-1.06ZM251.27-18.3l3.39,1.51-1.06.49-4-1.1,1.68-.9ZM159.1-17.53c-.35.02-.73.32-1.14,1.27-.82.76.02,3.46.25,4.82-.18.77-.05,1.56-.04,2.33.35.54.07,1.32,1.39,1.44,1.54-.24,1.82-.33,2.49-1.52.25-1.01.19-2.08.25-2.98.13-1.88-.52-3.27-1.47-4.78-.6.14-1.13-.61-1.72-.57ZM257.08-17.32l.98,2,1.06.86-2.61,1.35-2.33-2.82,2.91-1.39ZM215.78-17.04l-.16,4.65,2.45.33.33-2.61s-2.61-2.37-2.61-2.37ZM159.23-17c.63-.11,1.2.19,1.35.37.55.58,1.39,2.73,1.35,4.57.33,4.19-2.12,4.85-3.47,3.07-.09-.51.07-1.56.21-2.54-.24-1.5-.39-3.23-.57-4.74.37-.46.76-.67,1.14-.73ZM208.35-16.22l-.08.49-1.22.65,8.9,7.03-1.14-2.21-.24-1.48-6.21-4.49ZM191.32-15.9c.98,1,3.13,2.27,5.43,2.37-.11,4.89-.38,9.97-1.96,13.88-.51,1.25-1.19,2.4-2.04,3.48-1.56-.63-2.9-.95-3.27-1.63l-.04.12c.47.89.98,1.87,2.37,2.57-.58.6-1.22,1.19-1.92,1.71-1.87-.61-2.62-1.49-3.39-2.44l-.08.16c.66.82.73,2.06,2.69,2.82-1.19.8-2.51,1.5-4,2.13-2.02-3.62-3.03-7.5-2.7-11.11.34-3.59,1.55-8.09,3.02-11.85,2.88,1.34,4.53.28,5.88-2.21ZM253.8-15.32l1.91,2.41-2.08.04.16-2.45ZM166.9-15c.59.14,1.09.46,1.59.78-.16,1.15-.26,2.3-.29,3.47-.72.44-1.56.81-2.74,1.07-.51-.54-1.03-1.29-1.18-1.56-.66-1.96.77-3.74,2.61-3.76ZM222.24-13.89l.49.37.65,12.17-.98.37-.16-12.9ZM153.51-11.85c.23,0,.48.05.74.16.43.59,1.28,2.14,1.59,3.32-1.56-.55-2.84-1.5-3.96-2.71.56-.43,1.05-.77,1.63-.77ZM180.22-10.71c2.04,1.08,1.75.95,2.86,1.76-.69,2.3-1.21,4.65-1.55,7.06-.17,1.83-.02,3.57.41,5.32-1.49.54-3.29.77-5.1.61.59-5.06,2-9.87,3.39-14.75ZM179.69-10.66c-1.3,4.69-2.6,9.4-3.18,14.41-.9-2.51-1.32-5.11-1.43-7.76,1.65-1.95,3.22-4.33,4.61-6.65ZM195.08.85l-.08,5.15-1.96-1.48c.81-1.12,1.5-2.35,2.04-3.67Z"/>
      </g>
    </g>
  </g>
</svg>