<?xml version="1.0" encoding="UTF-8"?>
<svg id="Layer_1" data-name="Layer 1" xmlns="http://www.w3.org/2000/svg" xmlns:xlink="http://www.w3.org/1999/xlink" viewBox="0 0 311.81 311.81">
  <defs>
    <style>
      .cls-1 {
        fill: url(#linear-gradient-8);
      }

      .cls-1, .cls-2, .cls-3, .cls-4, .cls-5, .cls-6, .cls-7, .cls-8, .cls-9, .cls-10, .cls-11, .cls-12, .cls-13, .cls-14, .cls-15, .cls-16, .cls-17, .cls-18, .cls-19, .cls-20, .cls-21, .cls-22, .cls-23, .cls-24, .cls-25, .cls-26, .cls-27, .cls-28, .cls-29, .cls-30, .cls-31, .cls-32, .cls-33, .cls-34, .cls-35, .cls-36, .cls-37, .cls-38, .cls-39, .cls-40, .cls-41, .cls-42, .cls-43 {
        stroke-width: 0px;
      }

      .cls-1, .cls-2, .cls-3, .cls-5, .cls-6, .cls-8, .cls-9, .cls-10, .cls-11, .cls-12, .cls-16, .cls-19, .cls-21, .cls-22, .cls-23, .cls-24, .cls-25, .cls-26, .cls-27, .cls-28, .cls-29, .cls-31, .cls-34, .cls-35, .cls-36, .cls-37, .cls-38, .cls-39, .cls-40, .cls-42, .cls-43 {
        fill-rule: evenodd;
      }

      .cls-2 {
        fill: url(#linear-gradient-11);
      }

      .cls-44 {
        clip-path: url(#clippath-20);
      }

      .cls-3 {
        fill: url(#linear-gradient-7);
      }

      .cls-4 {
        fill: url(#linear-gradient-33);
      }

      .cls-45 {
        fill: url(#New_Gradient_Swatch_1);
        stroke: url(#linear-gradient);
      }

      .cls-45, .cls-46, .cls-47, .cls-48, .cls-49 {
        stroke-miterlimit: 10;
      }

      .cls-5 {
        fill: url(#linear-gradient-16);
      }

      .cls-6 {
        fill: url(#linear-gradient-9);
      }

      .cls-7 {
        fill: #825e44;
      }

      .cls-8 {
        fill: url(#linear-gradient-18);
      }

      .cls-9 {
        fill: url(#linear-gradient-3);
      }

      .cls-50 {
        clip-path: url(#clippath-25);
      }

      .cls-46 {
        stroke-dasharray: 0 0 0 0 0 0 28.62 14.3 .01 0 0 0;
      }

      .cls-46, .cls-13, .cls-48, .cls-49, .cls-51 {
        fill: none;
      }

      .cls-46, .cls-47, .cls-48, .cls-49, .cls-52 {
        stroke: #dcedf7;
      }

      .cls-46, .cls-48, .cls-49, .cls-52 {
        stroke-width: 8.5px;
      }

      .cls-53 {
        clip-path: url(#clippath-15);
      }

      .cls-54 {
        opacity: 0;
      }

      .cls-10 {
        fill: #d49163;
      }

      .cls-11 {
        fill: url(#linear-gradient-28);
      }

      .cls-55 {
        clip-path: url(#clippath-26);
      }

      .cls-12 {
        fill: rgba(1, 1, 1, .2);
      }

      .cls-14 {
        fill: url(#linear-gradient-31);
      }

      .cls-47 {
        fill: #3b4523;
        stroke-width: 5.67px;
      }

      .cls-15 {
        fill: url(#linear-gradient-34);
      }

      .cls-56 {
        clip-path: url(#clippath-21);
      }

      .cls-57 {
        clip-path: url(#clippath-1);
      }

      .cls-58 {
        clip-path: url(#clippath-27);
      }

      .cls-16 {
        fill: url(#linear-gradient-23);
      }

      .cls-17, .cls-19 {
        fill: #010101;
      }

      .cls-18 {
        fill: url(#linear-gradient-35);
      }

      .cls-20 {
        fill: url(#linear-gradient-32);
      }

      .cls-21 {
        fill: url(#linear-gradient-17);
      }

      .cls-59 {
        clip-path: url(#clippath-24);
      }

      .cls-22 {
        fill: url(#linear-gradient-13);
      }

      .cls-23 {
        fill: url(#linear-gradient-27);
      }

      .cls-24 {
        fill: url(#linear-gradient-20);
      }

      .cls-60 {
        clip-path: url(#clippath-30);
      }

      .cls-61 {
        clip-path: url(#clippath-22);
      }

      .cls-25 {
        fill: #000;
      }

      .cls-26 {
        fill: url(#linear-gradient-2);
      }

      .cls-27 {
        fill: url(#linear-gradient-15);
      }

      .cls-62 {
        clip-path: url(#clippath);
      }

      .cls-28 {
        fill: url(#linear-gradient-5);
      }

      .cls-29 {
        fill: url(#linear-gradient-24);
      }

      .cls-63 {
        clip-path: url(#clippath-19);
      }

      .cls-64 {
        clip-path: url(#clippath-31);
      }

      .cls-30 {
        fill: url(#linear-gradient-36);
      }

      .cls-31 {
        fill: url(#linear-gradient-19);
      }

      .cls-32 {
        fill: url(#linear-gradient-30);
      }

      .cls-65 {
        clip-path: url(#clippath-29);
      }

      .cls-66 {
        clip-path: url(#clippath-18);
      }

      .cls-67 {
        clip-path: url(#clippath-14);
      }

      .cls-68 {
        clip-path: url(#clippath-17);
      }

      .cls-33 {
        fill: url(#linear-gradient-29);
      }

      .cls-34 {
        fill: url(#linear-gradient-22);
      }

      .cls-35 {
        fill: url(#linear-gradient-12);
      }

      .cls-36 {
        fill: url(#linear-gradient-14);
      }

      .cls-49 {
        stroke-dasharray: 0 0 0 0 0 0 27.35 13.67 0 0 0 0;
      }

      .cls-37 {
        fill: url(#linear-gradient-25);
      }

      .cls-69 {
        clip-path: url(#clippath-23);
      }

      .cls-38 {
        fill: url(#linear-gradient-6);
      }

      .cls-70 {
        opacity: .16;
      }

      .cls-52 {
        fill: #73913c;
        stroke-linejoin: round;
      }

      .cls-39 {
        fill: url(#linear-gradient-4);
      }

      .cls-40 {
        fill: url(#linear-gradient-21);
      }

      .cls-41 {
        fill: url(#linear-gradient-37);
      }

      .cls-51 {
        stroke: #383535;
        stroke-width: 2.44px;
      }

      .cls-71 {
        clip-path: url(#clippath-28);
      }

      .cls-42 {
        fill: url(#linear-gradient-26);
      }

      .cls-43 {
        fill: url(#linear-gradient-10);
      }
    </style>
    <linearGradient id="New_Gradient_Swatch_1" data-name="New Gradient Swatch 1" x1="14.48" y1="499.09" x2="14.48" y2="-691.47" gradientUnits="userSpaceOnUse">
      <stop offset="0" stop-color="#339ac1"/>
      <stop offset=".03" stop-color="#379cc2"/>
      <stop offset=".22" stop-color="#4ca6c7"/>
      <stop offset=".4" stop-color="#58acca"/>
      <stop offset=".58" stop-color="#5dafcc"/>
      <stop offset=".63" stop-color="#68b4cc"/>
      <stop offset=".71" stop-color="#75b9cc"/>
      <stop offset=".79" stop-color="#7abccd"/>
    </linearGradient>
    <linearGradient id="linear-gradient" x1="-406.97" y1="-96.19" x2="435.92" y2="-96.19" gradientUnits="userSpaceOnUse">
      <stop offset="0" stop-color="#fff"/>
      <stop offset="1" stop-color="#231f20"/>
    </linearGradient>
    <linearGradient id="linear-gradient-2" x1="172.86" y1="740.53" x2="169.07" y2="707.6" gradientTransform="translate(20.97 -590.38) rotate(2.07)" gradientUnits="userSpaceOnUse">
      <stop offset="0" stop-color="#b2b2b2"/>
      <stop offset="1" stop-color="#e4e4e4"/>
    </linearGradient>
    <linearGradient id="linear-gradient-3" x1="158.94" y1="685.08" x2="166.05" y2="646.23" gradientTransform="translate(20.97 -590.38) rotate(2.07)" gradientUnits="userSpaceOnUse">
      <stop offset="0" stop-color="#cd8e2a"/>
      <stop offset="1" stop-color="#cea43f"/>
    </linearGradient>
    <linearGradient id="linear-gradient-4" x1="114.28" y1="794.31" x2="116.41" y2="706.9" xlink:href="#linear-gradient-2"/>
    <linearGradient id="linear-gradient-5" x1="106.08" y1="691.91" x2="118.4" y2="713" gradientTransform="translate(20.97 -590.38) rotate(2.07)" gradientUnits="userSpaceOnUse">
      <stop offset="0" stop-color="#6b3d1d"/>
      <stop offset="1" stop-color="#905228"/>
    </linearGradient>
    <linearGradient id="linear-gradient-6" x1="106.86" y1="660.73" x2="120.36" y2="690.11" xlink:href="#linear-gradient-3"/>
    <linearGradient id="linear-gradient-7" x1="185.45" y1="689.87" x2="179.77" y2="706.93" xlink:href="#linear-gradient-5"/>
    <linearGradient id="linear-gradient-8" x1="181.96" y1="713.67" x2="189.3" y2="707.99" xlink:href="#linear-gradient-5"/>
    <linearGradient id="linear-gradient-9" x1="185.87" y1="717.58" x2="187.77" y2="714.03" xlink:href="#linear-gradient-5"/>
    <linearGradient id="linear-gradient-10" x1="148.69" y1="710.93" x2="147.27" y2="726.33" xlink:href="#linear-gradient-5"/>
    <linearGradient id="linear-gradient-11" x1="157.33" y1="710.45" x2="158.04" y2="721.59" xlink:href="#linear-gradient-5"/>
    <linearGradient id="linear-gradient-12" x1="151.68" y1="715.66" x2="151.91" y2="720.4" xlink:href="#linear-gradient-5"/>
    <linearGradient id="linear-gradient-13" x1="148.6" y1="142.14" x2="158.08" y2="119.64" gradientTransform="translate(-.12 -4.44) rotate(2.07)" xlink:href="#linear-gradient-5"/>
    <linearGradient id="linear-gradient-14" x1="151.22" y1="711.36" x2="151.93" y2="711.12" xlink:href="#linear-gradient-5"/>
    <linearGradient id="linear-gradient-15" x1="156.48" y1="711.34" x2="157.19" y2="711.82" xlink:href="#linear-gradient-5"/>
    <linearGradient id="linear-gradient-16" x1="158.93" y1="715.9" x2="158.93" y2="717.08" xlink:href="#linear-gradient-5"/>
    <linearGradient id="linear-gradient-17" x1="157.69" y1="721.64" x2="157.22" y2="722.12" xlink:href="#linear-gradient-5"/>
    <linearGradient id="linear-gradient-18" x1="153.62" y1="724.75" x2="152.68" y2="724.98" xlink:href="#linear-gradient-5"/>
    <linearGradient id="linear-gradient-19" x1="148.86" y1="723" x2="149.34" y2="723.48" xlink:href="#linear-gradient-5"/>
    <linearGradient id="linear-gradient-20" x1="147.32" y1="718.5" x2="147.32" y2="719.45" xlink:href="#linear-gradient-5"/>
    <linearGradient id="linear-gradient-21" x1="149.08" y1="713.99" x2="148.37" y2="714.94" xlink:href="#linear-gradient-5"/>
    <linearGradient id="linear-gradient-22" x1="153.24" y1="719.25" x2="154.42" y2="715.7" xlink:href="#linear-gradient-5"/>
    <linearGradient id="linear-gradient-23" x1="131.12" y1="632.91" x2="139.41" y2="635.52" xlink:href="#linear-gradient-2"/>
    <linearGradient id="linear-gradient-24" x1="133.93" y1="623.99" x2="139.14" y2="630.38" xlink:href="#linear-gradient-2"/>
    <linearGradient id="linear-gradient-25" x1="149.81" y1="630.38" x2="154.55" y2="625.64" xlink:href="#linear-gradient-2"/>
    <linearGradient id="linear-gradient-26" x1="144.41" y1="626.84" x2="147.01" y2="619.97" xlink:href="#linear-gradient-2"/>
    <linearGradient id="linear-gradient-27" x1="146.34" y1="620.9" x2="146.11" y2="626.12" xlink:href="#linear-gradient-2"/>
    <linearGradient id="linear-gradient-28" x1="175.82" y1="716.87" x2="177.72" y2="720.66" xlink:href="#linear-gradient-5"/>
    <clipPath id="clippath">
      <rect class="cls-13" x="-110.87" y="294.9" width="137.86" height="115.64"/>
    </clipPath>
    <clipPath id="clippath-1">
      <rect class="cls-13" x="-110.87" y="294.9" width="137.86" height="115.64"/>
    </clipPath>
    <clipPath id="clippath-14">
      <rect class="cls-13" x="-110.87" y="294.9" width="137.86" height="115.64"/>
    </clipPath>
    <clipPath id="clippath-15">
      <rect class="cls-13" x="-38.02" y="296.52" width="40.54" height="50.97"/>
    </clipPath>
    <clipPath id="clippath-17">
      <rect class="cls-13" x="128.87" y="167.81" width="59.38" height="75.51"/>
    </clipPath>
    <clipPath id="clippath-18">
      <rect class="cls-13" x="128.87" y="167.81" width="59.38" height="75.51"/>
    </clipPath>
    <clipPath id="clippath-19">
      <polygon class="cls-13" points="129.65 231.42 142.54 242.83 143.11 242.26 142.77 226.4 130.22 213.85 129.65 231.42"/>
    </clipPath>
    <linearGradient id="linear-gradient-29" x1="-277.41" y1="-708.96" x2="-275.3" y2="-708.96" gradientTransform="translate(-5682.86 2498.86) rotate(90) scale(8.21)" gradientUnits="userSpaceOnUse">
      <stop offset="0" stop-color="#6a3d1d"/>
      <stop offset="1" stop-color="#905127"/>
    </linearGradient>
    <clipPath id="clippath-20">
      <polygon class="cls-13" points="143 226.29 142.88 226.75 143.23 242.49 161.48 234.27 160.68 218.07 143 226.29"/>
    </clipPath>
    <linearGradient id="linear-gradient-30" x1="-493.33" y1="-558.06" x2="-491.23" y2="-558.06" gradientTransform="translate(3490.24 4015.07) scale(6.78)" xlink:href="#linear-gradient-29"/>
    <clipPath id="clippath-21">
      <polygon class="cls-13" points="145.51 207.69 130.79 213.74 130.33 214.31 143.11 226.4 161.03 217.73 148.93 207.58 145.51 207.69"/>
    </clipPath>
    <linearGradient id="linear-gradient-31" x1="-529.36" y1="-560.91" x2="-527.25" y2="-560.91" gradientTransform="translate(3304.59 3572.05) scale(5.98)" xlink:href="#linear-gradient-29"/>
    <clipPath id="clippath-22">
      <polygon class="cls-13" points="134.67 214.31 143 222.41 147.1 221.04 147.1 209.4 134.67 214.31"/>
    </clipPath>
    <linearGradient id="linear-gradient-32" x1="-99.28" y1="-1531.96" x2="-97.17" y2="-1531.96" gradientTransform="translate(22.53 -1611.45) rotate(-180) scale(1.19)" xlink:href="#linear-gradient-29"/>
    <clipPath id="clippath-23">
      <polygon class="cls-13" points="147.22 221.04 156.12 217.5 147.33 209.74 147.22 221.04"/>
    </clipPath>
    <linearGradient id="linear-gradient-33" x1="189.89" y1="-711.54" x2="192" y2="-711.54" gradientTransform="translate(-1124.75 -125.67) rotate(90) scale(1.79)" xlink:href="#linear-gradient-29"/>
    <clipPath id="clippath-24">
      <polygon class="cls-13" points="140.94 171.07 141.17 173.12 184.64 217.05 186.24 217.5 187.5 215.79 142.77 168.1 140.94 171.07"/>
    </clipPath>
    <linearGradient id="linear-gradient-34" x1="-155.24" y1="-1729.83" x2="-153.14" y2="-1729.83" gradientTransform="translate(10.51 -1529.42) rotate(-180)" xlink:href="#linear-gradient-29"/>
    <clipPath id="clippath-25">
      <polygon class="cls-13" points="167.07 192.74 162.74 197.31 161.6 196.97 159.42 193.2 159.2 195.14 160.23 198.33 163.08 203.13 162.74 224.8 167.3 224.8 168.21 224.01 165.24 200.5 169.13 192.17 168.78 190.92 167.07 192.74"/>
    </clipPath>
    <linearGradient id="linear-gradient-35" x1="-960.34" y1="-1605.79" x2="-958.23" y2="-1605.79" gradientTransform="translate(-795.99 -1401.14) rotate(-180)" xlink:href="#linear-gradient-29"/>
    <clipPath id="clippath-26">
      <path class="cls-13" d="M148.13,200.62l-2.97.57-2.85-.11-2.29-1.26-.68.46s.68,5.93.8,6.39c.12.46,2.74.34,2.74.34,0,0,4.22.46,4.68.46s3.42-1.26,3.42-1.26l.91-8.21-3.76,2.62Z"/>
    </clipPath>
    <linearGradient id="linear-gradient-36" x1="-158.71" y1="-295.82" x2="-156.6" y2="-295.82" gradientTransform="translate(-527.57 560.38) rotate(90) scale(2.28)" gradientUnits="userSpaceOnUse">
      <stop offset="0" stop-color="#191919"/>
      <stop offset="1" stop-color="#2b2b2b"/>
    </linearGradient>
    <clipPath id="clippath-27">
      <polygon class="cls-13" points="141.74 198.22 140.26 199.93 143.68 201.07 147.1 200.85 150.07 199.48 151.1 197.76 144.94 197.31 141.74 198.22"/>
    </clipPath>
    <linearGradient id="linear-gradient-37" x1="269.15" y1="-1201.99" x2="271.25" y2="-1201.99" gradientTransform="translate(483.72 -1307.37) rotate(-180) scale(1.25)" xlink:href="#linear-gradient-36"/>
    <clipPath id="clippath-28">
      <rect class="cls-13" x="128.87" y="167.81" width="59.38" height="75.51"/>
    </clipPath>
    <clipPath id="clippath-29">
      <rect class="cls-13" x="129.65" y="213.85" width="13.46" height="28.98"/>
    </clipPath>
    <clipPath id="clippath-30">
      <rect class="cls-13" x="147.22" y="209.74" width="8.9" height="11.3"/>
    </clipPath>
    <clipPath id="clippath-31">
      <rect class="cls-13" x="134.67" y="209.4" width="12.44" height="13.01"/>
    </clipPath>
  </defs>
  <rect class="cls-45" x="-406.47" y="-691.47" width="841.89" height="1190.55"/>
  <path id="island_14" data-name="island 14" class="cls-52" d="M151.47,70.04c-3.39,2.03-6.1,2.03-10.16,3.39-4.74.68-11.51,3.39-14.9,5.42-3.39,2.03-3.39,4.74-8.13,6.77-4.06,2.03-13.54,4.74-18.96,6.77s-8.13,4.74-11.51,6.77-7.45,4.74-12.19,6.77c-4.74,2.03-8.8,4.74-12.19,6.77-3.39,2.03-6.1,4.74-9.48,6.77s-7.45,4.74-10.16,8.8c-2.03,4.74-2.03,11.51-2.03,16.25,0,4.06,0,6.77,1.35,8.8.68,2.03,3.39,4.74,7.45,10.16,4.74,5.42,11.51,14.9,13.54,18.96,2.71,4.74,0,4.74,0,9.48,0,4.06,2.71,13.54,6.1,18.96s7.45,8.13,10.16,12.19c2.03,4.74,2.03,11.51,3.39,16.25.68,4.06,3.39,6.77,5.42,7.45,2.03,1.35,4.74,1.35,6.77,2.71,2.03.68,4.74,3.39,8.8,5.42,4.74,2.03,11.51,4.74,16.25,6.77,4.06,2.03,6.77,4.74,13.54,5.42,6.77,1.35,17.61,1.35,24.38,2.71,6.77.68,9.48,3.39,11.51,4.06,2.03,1.35,4.74,1.35,8.13,1.35h10.84c3.39,0,6.1,0,11.51-2.03,5.42-2.71,14.9-6.77,18.28-12.87,3.39-5.42.68-12.19.68-18.96s2.71-13.54,2.71-18.28c0-4.06-2.71-6.77-3.39-8.8-1.35-2.03-1.35-4.74-3.39-8.8-2.71-4.74-6.77-11.51-9.48-19.64-2.03-7.45-2.03-16.93-2.03-22.35v-10.16c0-2.03,0-4.74,1.35-8.13.68-3.39,3.39-7.45,4.06-10.84,1.35-3.39,1.35-6.1,2.71-8.13.68-2.03,3.39-4.74,4.06-10.16,1.35-5.42,1.35-14.9,0-21.67-.68-6.77-3.39-10.84-5.42-13.54-2.03-2.03-4.74-2.03-6.77-3.39-2.03-.68-4.74-3.39-8.8-3.39-4.74,0-11.51,2.71-16.93,0-6.1-2.03-10.16-8.8-14.9-10.16-4.74-.68-8.8,3.39-12.19,6.1"/>
  <path id="island_59" data-name="island 59" class="cls-52" d="M333.16,227.54c-3.76,0-6.27,0-8.15,1.88-1.88,2.51-4.39,6.27-5.01,11.91-1.25,5.01-1.25,11.28-1.25,15.66,0,3.76,0,6.27-1.25,10.03-.63,4.39-3.13,10.65-3.76,13.79q-1.25,3.13-3.13,4.39c-2.51.63-6.27,3.13-9.4,3.13s-5.64-2.51-10.65-1.25-13.78,5.01-17.55,7.52q-4.39,1.88-6.27,5.01c-2.51,3.13-6.27,9.4-9.4,13.79-3.13,3.76-5.64,6.27-7.52,9.4s-4.39,6.89-4.39,11.28,2.51,8.15,2.51,11.28-2.51,5.64-5.64,8.77c-3.13,3.13-6.89,6.89-13.16,8.15-6.27,1.25-15.04-1.25-18.8,1.88-4.39,3.13-4.39,11.91-2.51,18.17,2.51,6.27,6.27,10.03,9.4,12.53,3.13,1.88,5.64,1.88,7.52,1.88h9.4c5.01,0,13.78,0,18.8-1.25,5.01-.63,7.52-3.13,11.28-3.13,4.39,0,10.65,2.51,15.04,5.64,3.76,3.13,6.27,6.89,10.03,10.03,4.39,3.13,10.65,5.64,15.04,5.64,3.76,0,6.27-2.51,10.03-1.25,4.39,1.25,10.65,5.01,15.04,6.27,3.76,1.25,6.27-1.25,9.4-1.25s6.89,2.51,12.53,1.25c5.01-1.25,11.28-5.01,15.66-7.52,3.76-1.88,6.27-1.88,9.4-5.01s6.89-9.4,9.4-15.66c1.88-6.27,1.88-12.53,1.88-15.66s0-3.13-1.88-4.39c-2.51-.63-6.27-3.13-9.4-6.27-3.13-3.13-5.64-6.89-8.77-10.03-3.13-3.13-6.89-5.64-9.4-9.4-1.88-4.39-1.88-10.65,2.51-13.79,3.76-3.13,12.53-3.13,17.55-4.39,5.01-.63,7.52-3.13,9.4-5.01,1.88-1.88,4.39-4.39,4.39-6.27s-2.51-4.39-1.25-8.15c1.25-4.39,5.01-10.65,7.52-15.04,1.88-3.76,1.88-6.27,3.13-10.03.63-4.39,3.13-10.65,3.76-15.04,1.25-3.76,1.25-6.27-1.88-9.4-3.13-3.13-9.4-6.89-14.41-8.15-5.64-1.25-9.4,1.25-15.04,0-5.01-1.25-11.28-5.01-15.66-9.4-3.76-4.39-6.27-8.15-10.03-10.65-4.39-1.88-10.65-1.88-15.04-1.88"/>
  <g>
    <path class="cls-46" d="M-46.91-72.47C8.61-49.88,87.57-16.7,118.21,55.45"/>
    <path class="cls-48" d="M118.22,55.46c1.82,4.29,3.47,8.71,4.94,13.28"/>
  </g>
  <path class="cls-49" d="M-48.93-123.63C261.77-154.48,284.41,16.76,325.27,202.5"/>
  <g id="nicubunu_RPG_map_symbols_Farm">
    <g id="layer2">
      <path id="path3863" class="cls-26" d="M131.09,111.7l-1.26,34.8,42.39-18.38,25.51-10.7.76-8.03.41-11.36-1.94-11.92s-65.37,24.67-65.88,25.6Z"/>
      <path id="path3843" class="cls-9" d="M169.04,38.63l-26.13,8.07-28.53,8.93h0c4.56,4.91,5.85,8.75,8.77,13.12,5.24,12.52,7.16,24.91,8.84,37.54l.72,6.43.95.03.99-1.15,1.24-1.61,1.88.54,1.88.54,2.72-2.98,1.87.78,1.17.52.96-.44,1.25-1.85,1.21-.67,2.35.56,1.48-1.61,2.19-1.58.67,1.21.92.74,1.71-1.36,1.95-1.59,1.63.77.95.03,1.24-1.38,1.46-1.13,2.6.09,2.68-2.04,2.6.09.98-.91,1.97-2.06.95.03,1.64.53,2.94-2.74,4.52-.31,1.72-1.6,1.74-2.31,1.68-.65,2.15-.4,1.68-.65,1.42.05,3.33-.35,1.8-3.96,2.4-.86,1.69-.89.8-2.34.99-1.15,2.88-1.08-8.43-9.55-19.03-17.99-8.29-6.7-4.83-4.2-.93-.51h0Z"/>
      <path id="path3859" class="cls-39" d="M94.87,90.48l-1.44,13.7.28,11.86-.23,6.39,6.44,5.45,9.95,6.76,19.72,11.85,1.26-35.04s-36.23-20.75-36.22-20.98h.24Z"/>
      <path id="path3867" class="cls-28" d="M99.53,99.18l-1.55,16.78-1.16-.75-.18,4.97,19.26,11.6,1.58-4.45-1.38-1.24,2.02-16.52-18.12-10.37s-.47-.02-.47-.02Z"/>
      <path id="path3871" class="cls-10" d="M101.56,102.1l-.25,6.87,5.59,2.81.02-.47,1.15-5.65s-6.51-3.55-6.51-3.55ZM110.61,107.64l-.66,5.19.67,1.21,4.2,1.81.22-6.16-4.19-2.05h-.24ZM100.74,111.79l-.21,5.68,5.82,3.05.18-4.97c.02-.47-.43-1.2-.43-1.2l-5.59-2.81h.24s0,.25,0,.25ZM109.8,116.86l-.68,5.66,5.11,3.03.24-6.63-4.43-2.06h-.24Z"/>
      <path id="path3880" class="cls-12" d="M94.87,90.48l-1.44,13.7.28,11.86-.23,6.39,6.44,5.45,9.95,6.76,19.72,11.85,1.26-35.04s-36.23-20.75-36.22-20.98h.24Z"/>
      <path id="path3845" class="cls-38" d="M114.62,55.63l-8.27,5.87-10.07,9.83-9.12,9.63-.09,2.6.68.97,1.66.06,1.4.52.83,3.35,1.4.52,1.86,1.02.37,2.86.92.74,1.89.07.46.49.64,1.92,1.13,1.46,3.28,1.07,1.34,2.18,3.53.84.45.73-.05,1.42,1.89.07,2.82.58.63,2.16.69.5,2.13.08,1.39.76,1.35,1.95,2.35.56,2.6.09,1.34,2.18,1.18.04,2.88-.84,2.37.09-.97-5.96c-1.68-12.62-3.6-25.02-8.84-37.54-2.92-4.37-3.73-8.43-8.54-12.87,0,0,.47.02.47.02Z"/>
      <path id="path3884" class="cls-3" d="M171.99,127.87l.2-25.12,13.21-4.74.06,24.66-13.46,5.2Z"/>
      <path id="path3888" class="cls-1" d="M169.09,129.43l3.7,2.5,20.21-8.28-3.2-3.2-20.71,8.97Z"/>
      <path id="path3892" class="cls-6" d="M172.78,132.17l20.22-8.52-.15,4.26-19.25,7.84s-.82-3.59-.82-3.59Z"/>
      <path id="path3896" class="cls-43" d="M150.26,119.03l-3.55-.13-3.15,1.78-2.46,2.52-3.23,4.15-1.6,4.92.88,8.33,1.56,2.66,3.25,2.01,1.64.53,1.89.07,2.62-.38-2.37-.09c-.71-.03-4.21-1.57-4.21-1.57l-2.71-3.65-1-5.01.67-5.43,1.55-3.5,1.75-2.54,2.45-2.28,2.17-1.11,3.6-1.29h.24Z"/>
      <path id="path3900" class="cls-2" d="M147.81,121.31l1.44-.42,1.89.07,2.11.79,2.31,1.74,1.75,4.09-.17,4.73-.58,3.06-2.04,3.96,1.05-2.81.59-3.3.13-3.55-1.29-3.6-2.27-2.69-2.33-1.03-2.35-.56.02-.47s-.24,0-.24,0Z"/>
      <path id="path3907" class="cls-35" d="M149.18,129.18l-3.08-.11c-1.2.43-1.47,1.37-1.73,2.07l-.05,1.42.39,2.38,1.39,1,1.42.05-.91-.98-.42-1.44.09-2.37.98-.91.97-.68.95.03.02-.47Z"/>
      <path id="path3911" class="cls-12" d="M150.26,119.03l-3.55-.13-3.15,1.78-2.46,2.52-3.23,4.15-1.6,4.92.88,8.33,1.56,2.66,3.25,2.01,1.64.53,1.89.07,2.62-.38-2.37-.09c-.71-.03-4.21-1.57-4.21-1.57l-2.71-3.65-1-5.01.67-5.43,1.55-3.5,1.75-2.54,2.45-2.28,2.17-1.11,3.6-1.29h.24Z"/>
      <path id="path3913" class="cls-12" d="M147.81,121.31l1.44-.42,1.89.07,2.11.79,2.31,1.74,1.75,4.09-.17,4.73-.58,3.06-2.04,3.96,1.05-2.81.59-3.3.13-3.55-1.29-3.6-2.27-2.69-2.33-1.03-2.35-.56.02-.47s-.24,0-.24,0Z"/>
      <path id="path3915" class="cls-12" d="M149.18,129.18l-3.31-.12c-.73.45-1.23,1.14-1.5,2.08l-.05,1.42.39,2.38,1.39,1,1.42.05-.91-.98-.42-1.44.09-2.37.98-.91.97-.68.95.03.02-.47Z"/>
      <path id="path3917" class="cls-22" d="M150.72,119.28l-3.09.36-2.41,1.1-2.93,2.5-2.52,4.18-1.08,3.52-.6,3.53.76,5.24,1.79,2.91,2.3,1.98,3.77.61,3.59-1.06,4.63-3.63,2.56-5.12,1.1-4.23.16-4.5-1.96-4.81-2.29-2.22-3.53-.84-.02.47h-.24ZM150.9,120.95l2.35.56,2.74,2.94.65,1.68.58,3.58-.11,3.08-1.03,2.33-.78,1.87-.77,1.63-2.96,3.21-3.38,1.77-1.89-.07-1.88-.54-2.08-1.5-1.55-2.9-.83-3.35.13-3.55,1.33-3.98,2.01-3.25,2.45-2.28,3.37-1.54,1.89.07h0l-.25.23Z"/>
      <path id="path3924" class="cls-36" d="M145.63,122.42l.46,6.89-.02.47.95.03.49-.46.28-7.81-2.16.87h0Z"/>
      <path id="path3928" class="cls-27" d="M149.18,129.18l4.03-6.49,1.17.52s.91.98.67,1.21c-.02.47-4.46,5.29-4.46,5.29l-1.4-.52Z"/>
      <path id="path3932" class="cls-5" d="M151.01,131.15l5.49-.99.44.96-.52,1.4-5.45-.2.04-1.18Z"/>
      <path id="path3936" class="cls-21" d="M150.43,133.97l4.36,3.95-.77,1.63-4.1-4.65.74-.92h-.24Z"/>
      <path id="path3940" class="cls-8" d="M147,143.56l.29-8.05,1.42.05.43,7.84-2.13-.08h0v.24Z"/>
      <path id="path3944" class="cls-31" d="M141.2,140.04l4.22-5.3.71.03.45.73-4.02,6.26-1.12-1.7h-.24Z"/>
      <path id="path3948" class="cls-24" d="M139.8,132.87l5.23-.29-.04,1.18-5.5,1.22.06-1.66.5-.69h-.24s0,.23,0,.23Z"/>
      <path id="path3952" class="cls-40" d="M141.94,126.31l4.35,4.19-.03.71-.74.68-4.37-3.71.52-1.17.51-.93h-.24s0,.23,0,.23Z"/>
      <path id="path3956" class="cls-34" d="M146.5,131.22l-.09,2.37.41,1.67,2.6.09,1.48-1.61.09-2.37c.03-.95-.67-1.21-1.37-1.47l-.95-.03-.98.91-.99,1.15.03-.71h-.24Z"/>
      <path id="path3960" class="cls-12" d="M147.65,132.21l.52-1.17,1.42.05-.09,2.37-.98.91-.71-.03-.67-1.21.03-.71.47.02v-.24Z"/>
      <path id="path3962" class="cls-16" d="M131.36,44.86l-.2,5.45,6.95-2.12-6.75-3.33Z"/>
      <path id="path3966" class="cls-29" d="M130.26,36.05l13.24,7.59-.1,2.84s-5.28,1.71-5.51,1.7-7.91-4.08-7.91-4.08l.29-8.05Z"/>
      <path id="path3970" class="cls-37" d="M143.3,42.68l15.09-4.2.47.02-.11,3.08-15.58,4.65.13-3.55Z"/>
      <path id="path3974" class="cls-42" d="M143.28,43.16s-13.74-6.9-12.3-7.32,13.02-5.93,14.41-5.17,12.52,7.8,12.52,7.8c0,0-14.63,4.69-14.63,4.69Z"/>
      <path id="path3978" class="cls-23" d="M138.54,36.58l5.78-2.64s7.9,4.55,6.25,4.26c-1.42-.05-7.2,2.35-7.2,2.35,0,0-4.84-3.97-4.84-3.97Z"/>
      <path id="path3982" class="cls-12" d="M131.36,44.86l-.2,5.45,6.95-2.12-6.75-3.33Z"/>
      <path id="path3984" class="cls-12" d="M130.26,36.05l13.24,7.59-.1,2.84s-5.28,1.71-5.51,1.7-7.91-4.08-7.91-4.08l.29-8.05Z"/>
      <path id="path3986" class="cls-12" d="M138.54,36.58l5.78-2.64s7.9,4.55,6.25,4.26c-1.42-.05-7.2,2.35-7.2,2.35,0,0-4.84-3.97-4.84-3.97Z"/>
      <path id="path4121" class="cls-11" d="M169.06,130.14c.68.74,3.74,1.56,3.74,1.56l-.14,3.79-3.71-2.27.58-3.06"/>
    </g>
    <g id="layer1">
      <path id="path2801" class="cls-19" d="M198.65,118.17l1.06-16.32c.15-4.02.3-8.29-1.2-12.61l1.66.06c1.21-.67,1.08-3.52,2.05-4.19s2.16-.63,3.14-1.55c.97-.68.8-2.58,1.79-3.49.74-.92,2.63-.62,3.38-1.77-12.53-14.2-26.51-27.27-41.51-38.72l-9.83,2.96.09-2.37-13.92-8.33h0l-15.61,5.6-.3,8.29,1.63.77-.17,4.73-15.59,4.89c-11.37,6.46-19.57,16.84-28.45,26.24.44.96-.09,2.6.35,3.33s2.6.09,3.29.83c.68.97.61,2.87,1.28,3.84s2.35.56,3.04,1.29h0c-1.13,5.17-1.29,22.71-1.49,28.16l-.15,4.02c11.28,9.18,24.04,16.99,36.57,24.55l8.67-3.72c1.61,1.48,3.71,2.27,7.01,2.86,2.37.09,4.55-1.26,6.49-2.61,1.45-.9,2.68-2.04,3.68-3.42,1.01-1.62,2.02-3.48,2.56-5.36l10.6-4.6-.13,3.55,3.02,1.77,1.62,1.01,20.47-8.74.15-4.02-3.45-2.97,7.7-3.28M145.32,32.56l11.13,6.8-12.96,4.51-11.38-6.57,12.96-4.51h.24s0-.23,0-.23ZM144.53,34.67l-6.74,2.84,5.76,4.48,7.69-2.8-6.71-4.51ZM144.51,35.38l-.21,5.68-.47-.02c0,.24-4.38-3.48-4.38-3.48,0,0,5.06-2.19,5.06-2.19ZM145.21,35.64l5.1,3.27-5.29,1.94.19-5.21ZM131.15,37.74l12.07,7.07-.09,2.37-4.79,1.49-7.69-3.6.26-7.34h.24ZM168.99,40.05c15,11.45,28.54,23.79,39.88,37.95-.5.69-1.67.41-2.41,1.1s-.58,2.82-1.55,3.5-2.41,1.1-3.62,1.77c-.97.68-1.05,2.81-2.27,3.71-1.21.67-3.55-.13-5.01.77-1.21.67-2.87.61-4.32,1.5-1.45.66-1.78,3.25-3.22,3.91-1.45.66-3.55-.13-5.23.29-.73.45-1.98,2.3-2.71,2.75s-1.62-1.01-2.35-.56-1.99,2.54-2.95,2.98c-.96.44-1.4-.52-2.37-.09s-1.97,2.06-2.93,2.26c-.95-.03-1.4-.52-2.37-.09-.95-.03-1.98,2.3-2.93,2.5-.95-.03-1.86-1.02-2.82-.81s-2.45,2.28-3.42,2.72c-.95-.03-.87-2.16-1.83-1.73-.95-.03-2.7,2.51-3.65,2.71-.95-.03-1.88-.54-2.84-.1-.95-.03-1.75,2.54-2.71,2.75-.95-.03-2.32-1.51-3.28-1.07s-1.74,2.31-2.71,2.75c-.95-.03-2.32-1.27-3.29-.83-.73.45-1.28,2.56-2.23,2.76-.95-.03-1.88-.54-2.82-.58s-2.41,1.1-3.13,1.31c-.95-.03-1.59-1.95-2.54-1.99-.93-.51-3.79-.14-4.71-.88s-.65-1.68-1.58-2.19-2.6-.09-3.53-.6-.63-2.16-1.56-2.66-2.84-.1-3.77-.61.05-1.42-.88-1.93-2.84-.1-3.76-.85c-.93-.51-.64-1.92-1.57-2.43s-2.82-.81-3.51-1.31-.85-2.64-1.55-3.14c-.68-.74-2.13-.08-2.82-.58s-.66-1.45-.86-2.4l.02-.47h0c.02-.47.03-.71-.44-.96-.68-.74-2.11-.55-2.8-1.29s-.61-2.87-1.05-3.83c-.68-.74-2.39.62-3.08-.11-.45-.73.56-2.35.11-3.08,8.88-9.64,17.09-20.24,27.71-25.55l22.77-7,30.45-9.57h0s.03-.71.03-.71ZM158.55,40.39l-.08,2.13-14.38,4.46.09-2.37,14.38-4.46h0v.24ZM165.48,45.38h0c3.41,4.15,6.42,6.16,10.24,11.75l.47.02c-3.36-5.34-7.3-7.85-10.95-11.77h.24ZM131.78,46.53l5.6,2.57-5.51,1.7.15-4.26h-.24ZM154.75,53.76l-.47-.02,5.19,13.94h0c-1.93-5.52-3.21-9.6-4.95-13.93h.24ZM142.9,53.57l-.47-.02c4.87,9.66,9.74,19.08,12.71,28.67l.47.02c-3.45-9.37-8.08-19.02-12.71-28.67ZM168.79,58.77c5.15,8.25,10.83,15.33,15.22,24.97h0c-3.66-10.33-10.06-16.72-15.22-24.97l-.47-.02.47.02ZM126.4,57.72l-.47-.02c3.54,7,5.67,13.72,8.03,20.44h0c-2.36-6.96-4.49-13.44-7.8-20.43h.24ZM117.1,59.04l-.03.71c10.39,14.12,12.4,30.79,15.13,47.25l.47.02c-2.73-16.22-4.26-33.1-15.35-47.73h0l-.23-.25ZM181.87,64.22l11.18,18.66.47.02-11.42-18.43h0l-.23-.25ZM164.63,69.05l-.47-.02,7.08,20.64h0l-6.84-20.63h.24ZM116.56,67.56c-3.53,5.8-6.83,11.84-9.2,18.4l.49-.46c1.9-6.57,5.42-12.37,8.94-17.93l-.47-.02h.24ZM106.81,68.39c-5.86,4.77-9.37,10.09-14.07,15.38l.47.02c4.21-5.06,7.96-10.38,13.59-15.16h0v-.24ZM194.4,71.79l-.47-.02,7.28,8.56.47.02-7.29-8.32h0v-.24ZM201.45,80.1h0c1.69-.89.73-.45,0,0ZM171.68,77.13l7.58,13.31.47.02-8.05-13.33h0ZM136.86,76.59h0c4.64,9.41,5.25,18.68,7.99,28.26l.47.02c-2.74-9.58-4.06-18.87-8.23-28.27h-.24ZM160.95,79.11c2.38,6.25,5,12.51,6.17,19.42l.47.02c-1.19-6.44-3.8-12.94-6.17-19.42,0,0-.47-.02-.47-.02ZM108.32,79.11c-3.22,3.91-6.9,7.34-9.68,11.98l.47.02c2.31-4.89,6.22-8.07,9.67-11.74l-.47-.02v-.24ZM121.1,79.57c.2,7.59-1.96,14.86-2.94,22.41l.47.02c.98-7.31,2.88-14.12,2.7-22.19h0l-.23-.25ZM148.71,83.18l-.47-.02c2.17,5.53,5.31,10.62,6.04,16.57h0c-.27-5.7-3.86-11.28-5.8-16.57h.24ZM114.82,82.9l-4.89,17.37.47.02,4.88-16.89-.46-.49ZM195.67,89.14l1.89.07c1.54,9.78,1.69,18.79.39,28.7l-7.7,3.28h0l-3.61,1.53-.06-24.66-14.66,5.4.26,25.61-2.65,1.09h0l-10.36,4.6c1.1-4.23.32-8.76-2.16-12.4-1.83-1.73-3.7-2.5-5.36-2.56-.93-.51-1.66-.06-2.13-.08-2.37-.09-3.83,1.05-5.78,2.64-1.47,1.37-5.15,4.79-5.96,7.37-.57,2.59-1.34,4.22-.79,8.74-.09,2.37.57,4.05,1.7,5.51l-6.99,3.07.73-33.4,2.13.08c.95.03,1.51-2.32,2.47-2.76.95.03,2.32,1.27,3.28,1.07s1.99-2.54,2.94-2.74c.95.03,1.84,1.49,2.81,1.05s2.22-2.53,3.18-2.73c.95.03,1.63.77,2.6.09.95.03,2.46-2.52,3.19-2.97.95.03,1.12,1.94,2.07,1.73.96-.44,2.45-2.28,3.42-2.72s1.15.99,2.11.55,2.44-2.05,3.16-2.26c.96-.44,1.4.52,2.37.09s1.96-1.83,2.93-2.26,1.66.06,2.6.09,1.99-2.54,2.94-2.74c.96-.44,1.62,1.01,2.59.57s1.75-2.54,2.71-2.75c1.69-.89,3.55.13,5.23-.52,1.45-.9,1.78-3.25,3.22-3.91,1.45-.66,2.62-.38,4.08-1.28,0,0,.71.03,1.2-.43h0v.24ZM94.18,116.29c.29-8.05.12-16.35.85-23.44-.03.71-.05,1.42.41,1.67.68.74,2.37.09,3.06.58.68.74.38,2.62,1.3,3.37s3.29.83,3.98,1.33.41,1.91,1.33,2.66,3.08.11,3.76.85c.93.51-.05,1.42.41,1.91.93.51,3.08.11,4.01.62s.41,1.91,1.1,2.41,2.84.1,3.76.85c.93.51.65,1.68,1.58,2.19s4.01.62,4.94,1.13c.95.03,1.35,1.95,2.54,1.99s2.16-.63,3.11-.84l-1.19,32.91c-12.3-7.32-24.64-13.45-35.44-23.09M185.09,99.66l-.38,23.69-.96.44-.91-20.89-8.66,3.48.17,21.58-1.44.42-.08-23.95M124.96,97.49c.36,3.09.24,6.41-.82,9.45l.71.03c.58-3.06,1.17-6.12.82-9.45l-.71-.03ZM99.28,99.65l-1.55,16.54-.93-.51-.22,6.16,19.04,11.12,1.39.76,1.37-5.17-1.84-1.49,2.03-16.76-19.05-10.64h-.24ZM182.1,103.82l.46,20.17h0l-7.71,3.51-.2-20.87,6.98-2.83.47.02ZM100.18,101.1l17.42,9.87-1.98,15.57-.93-.51,1.51-15.59-15.12-8.13-1.03,15.37-1.16-.75,1.28-15.84ZM102.2,104.26l5.34,3.04-.66,5.19-5.11-2.79.21-5.68h.24s0,.25,0,.25ZM108.47,107.8l2.09,1.26-.65,4.95.66,1.45,3.73,1.79-.09,2.37-3.72-2.03-1.18-.04-.17,4.73c-.93-.51-1.39-.76-2.1-1.02l.17-4.73-.42-1.44-5.11-2.79.07-1.89,5.12,2.56,1.2-.43.19-5.21h0l-.02.47h.24ZM111.25,109.56l3.48,2.02-.17,4.73-3.72-2.03.65-4.95h-.24s0,.23,0,.23ZM101.62,113.72l5.12,2.56-.64,4.48c-1.62-1.01-3.25-1.78-4.89-2.31l.18-4.97h0l.23.25ZM110.46,118.3l3.72,2.03-.19,5.21c-.93-.51-2.55-1.51-3.94-2.51l.17-4.73h.24ZM98.14,118.1l18.8,11.11-1.03,2.33-18.59-10.39.58-3.06h.24ZM149.03,120.17c-2.87.61-5.79,2.87-7.78,5.41-3.76,5.55-4.98,13.1-.67,18.7,2.05,2.21,4.64,2.78,7.03,2.39-.71-.03-1.18-.04-1.91.41-3.79-.14-5.85-2.11-7.62-5.49-1.31-3.13-1.39-7.4-.28-11.86,1.06-3.04,3.52-5.56,5.72-7.38,1.47-1.37,3.39-2.01,5.53-2.17ZM150.67,120.7l.71.03c1.66.06,3.29.83,4.67,2.06,4.07,5.36,2.87,12.43-.65,17.99-3.49,4.62-9.76,7.71-14.1,3.05-4.31-5.37-2.87-12.43.64-17.76,2.24-3,5.4-5.26,8.96-5.37h-.24ZM189.73,122.35l1.58,2.19-18.3,7.87-3.03-1.53,19.5-8.3h.24s0-.23,0-.23ZM150.16,121.87l-.95-.03c-6.22,1.67-8.8,7.27-9.49,13.41-.21,5.68,2.7,10.53,8.65,9.79,6.22-1.67,8.81-7.74,9.5-13.64.19-5.21-2.5-9.57-7.72-9.52ZM150.15,122.11c4.97.18,6.93,4.99,7.01,9.5,0,0,.02-.47-.46-.49l-.47-.02.02-.47c.06-1.66-.61-2.87-1.5-4.32l.49-.46c.03-.71-1.34-2.42-2.06-1.97l-.02.47c-1.38-1.24-3.03-1.53-4.68-1.83.47.02,1.18.04,1.67-.41ZM148.23,122.75l1.42.05c1.18.04,2.1,1.02,3.03,1.53l-3.53,5.8-1.18-.04.27-7.58h0v.24ZM147.76,122.73l-.27,7.58s-.97.68-.95-.03l-.46-6.89c.47.02.96-.44,1.45-.66h.24ZM145.82,123.85l.47,6.65c-.32-.01-.56.14-.73.45l-3.2-3.2c.76-1.39,2-2.77,3.45-3.67h0v-.24ZM192.46,125.53l-.09,2.37-18.55,8.1.09-2.6s18.54-7.87,18.54-7.87ZM153.63,124.13c.71.03,1.38,1.24,1.12,1.7l-4.2,4.83s-.46-.49-.93-.51c1.26-2.09,2.52-4.18,4.01-6.02ZM154.73,126.54c.67,1.21.85,2.64,1.04,4.07l-.02.47-4.53.78c.02-.47.03-.71-.44-.96,0,0,3.95-4.36,3.95-4.36ZM142.36,127.75l3.89,3.93c-.03.71-.04,1.18-.52,1.17l-4.13-3.71c.02-.47.52-1.17.77-1.63h0v.24ZM141.34,129.61l2.98,2.72-.05,1.42-4.04.33c.55-2.11.08-2.13,1.1-4.23M146.53,130.51l-.02.47c.45.73,1.18.04,1.42.05h0c-.47-.02-.73.45-.98.91-1,1.39-1.06,3.04-.16,4.5h0s.47.02.69.5l-.71-.03.02-.47c.02-.47-.93-.51-1.17-.52,0,0-.02.47-.49.46,0,0,.02-.47-.45-.73l.71.03c.5-.69.05-1.42.06-1.66l-.71-.03.03-.71h0l.69.5c.47.02.98-.91.78-1.87l-.69-.5.49-.46.49-.46ZM148.89,130.59c.47.02,1.18.04,1.64.53-.04,1.18,1.12,1.94-.63,4.24-.98.91-1.69.89-2.86.37-.9-1.22-.36-3.09.15-4.26.49-.46.98-.91,1.45-.9h.24ZM170.19,131.6l2.08,1.5.38,2.62-3.04-1.29.1-2.84s.47.02.47.02ZM156.44,131.58s.43,1.2-.07,1.89l-4.97-.18.03-.71,5.24-.76h-.24s0-.25,0-.25ZM148.61,132.01c-.73.45-.99,1.15-1.01,1.62-.03.71-.04,1.18.64,1.92l.95.03c1.45-.9,1.27-2.32.84-3.53l-1.66-.06h.24ZM149.77,132.52l-.04,1.18c-.02.47-.03.95-.52,1.4l-.95-.03s-.44-.96-.43-1.2.03-.95.75-1.16l1.18.04v-.24ZM157.11,132.79c-.08,2.13-.86,4-1.87,5.86.53-1.64.83-3.29.89-4.95l.47.02s.03-.71.51-.93ZM151.4,133.53l4.5.16-.09,2.37-2.41,1.1-2.3-1.98c.03-.95.51-.93.53-1.64h-.24ZM145.21,134.02s.45.73-.03.95l-5.01,1,.06-1.66,4.99-.29ZM150.63,135.16l4.14,3.47c-.02.47-.51.93-.52,1.4l-3.87-4.41.02-.47h.24ZM144.45,135.41s-.02.47.45.73l-.02.47c-1.24,1.38-2.23,2.76-3.23,4.15-.67-1.21-1.08-2.88-1.27-4.31l4.3-1.03h-.24ZM146.09,135.95c.47.02.69.5-.03.71l-3.76,5.79c.02-.47-.68-.74-.9-1.22,1.48-1.61,2.73-3.46,3.98-5.07l.71.03v-.24ZM149.88,136.08l1.6,1.72-2.41,1.1.08-2.13.74-.68ZM148.67,136.75l.45,7.36-1.42-.05.27-7.58.71.03v.24ZM147.24,136.94l-.1,2.84-3.13,1.31,2.52-4.18.71.03ZM155.28,137.46c-.02.47-.03.71-.52,1.17l-.68-.74,1.2-.43ZM152.15,138.77l1.59,1.95c-1.24,1.38-2.71,2.75-4.63,3.39l.15-4.02,2.89-1.32ZM147.11,140.72l-.13,3.55c-1.66-.06-3.06-.58-4.21-1.57h0l4.1-1.99h.24Z"/>
    </g>
  </g>
  <g id="Layer_1-2" data-name="Layer 1">
    <g class="cls-62">
      <g class="cls-57">
        <g class="cls-67">
          <g class="cls-54">
            <g class="cls-53">
              <path class="cls-17" d="M-38.02,301.19s6.55-5.97,9.31-4.42c2.75,1.55,5,6.44,5.85,7.41.85.97,19.81,27.92,22.92,31.14,3.1,3.22,2.48,6.67,2.25,7.02-.23.35-4.15,5.16-4.15,5.16"/>
            </g>
          </g>
          <path class="cls-51" d="M-38.02,301.19s6.55-5.97,9.31-4.42c2.75,1.55,5,6.44,5.85,7.41.85.97,19.81,27.92,22.92,31.14,3.1,3.22,2.48,6.67,2.25,7.02-.23.35-4.15,5.16-4.15,5.16"/>
          <path class="cls-7" d="M-38.02,301.19s6.55-5.97,9.31-4.42c2.75,1.55,5,6.44,5.85,7.41.85.97,19.81,27.92,22.92,31.14,3.1,3.22,2.48,6.67,2.25,7.02-.23.35-4.15,5.16-4.15,5.16l-2.52-.23s-30.79-42.96-30.9-43.43c-.12-.46-3.22-1.9-2.75-2.64"/>
        </g>
      </g>
    </g>
  </g>
  <g id="Artwork_6" data-name="Artwork 6">
    <g class="cls-68">
      <g class="cls-66">
        <g class="cls-63">
          <rect class="cls-33" x="124.61" y="212.38" width="23.53" height="31.93" transform="translate(-77.02 69.6) rotate(-22.51)"/>
        </g>
        <g class="cls-44">
          <rect class="cls-32" x="137.1" y="216.51" width="30.16" height="27.55" transform="translate(-121.85 263.41) rotate(-63.43)"/>
        </g>
        <g class="cls-56">
          <rect class="cls-14" x="132.34" y="199.62" width="26.68" height="34.74" transform="translate(-103.48 295.9) rotate(-73.7)"/>
        </g>
        <g class="cls-61">
          <rect class="cls-20" x="131.91" y="206.97" width="17.95" height="17.87" transform="translate(-115.35 187.49) rotate(-50.55)"/>
        </g>
        <g class="cls-69">
          <rect class="cls-4" x="145.04" y="208.3" width="13.25" height="14.19" transform="translate(-85.14 99.98) rotate(-28.87)"/>
        </g>
        <g class="cls-59">
          <rect class="cls-15" x="130.3" y="158.88" width="67.85" height="67.85" transform="translate(-88.23 172.59) rotate(-45)"/>
        </g>
        <g class="cls-50">
          <rect class="cls-18" x="159.2" y="190.92" width="9.93" height="33.89"/>
        </g>
        <g class="cls-55">
          <rect class="cls-30" x="140.74" y="196.34" width="9.76" height="12.77" transform="translate(-60.51 343.5) rotate(-88.64)"/>
        </g>
        <g class="cls-58">
          <rect class="cls-41" x="143.22" y="193.6" width="4.92" height="11.19" transform="translate(-68.14 322.4) rotate(-83.77)"/>
        </g>
        <g class="cls-71">
          <g class="cls-70">
            <g class="cls-65">
              <polyline class="cls-25" points="130.22 213.85 129.65 231.42 142.54 242.83 143.11 242.26 142.77 226.4 130.22 213.85"/>
            </g>
          </g>
          <g class="cls-70">
            <g class="cls-60">
              <polyline class="cls-25" points="147.33 209.74 147.22 221.04 156.12 217.5 147.33 209.74"/>
            </g>
          </g>
          <g class="cls-70">
            <g class="cls-64">
              <polygon class="cls-25" points="134.67 214.31 147.1 209.4 147.1 221.04 143 222.41 134.67 214.31"/>
            </g>
          </g>
          <path class="cls-25" d="M145.52,170.5c.21-.81-.27-1.4-1.05-1.05l-1.51-1.65c-2.16.96-2.62,2.95-2.3,5.4l2.83,2.9.26,16.85c-4.19,1.84-4.16,3.26-5.2,4.87l1.25,9.41c1.12.2,2.24.5,3.36.72l-13.5,5.33-.79,18.3,13.69,11.72,19.36-8.89-.4-16.85-11.78-9.87c.54-.19,1.07-.43,1.65-.72l.92-9.48-.53-.33c-1.68-3.22-4.35-3.45-6.71-4.61l-.46-15.34,18.7,18.89c-1.14.74-2.25.32-3.29-3.09l-1.51-.79c.25,3.99,1.35,7.75,4.08,10.99l-.2,22.25c2.08.23,4.18,1.12,6.25-.26-1-8.32-1.05-16.63-3.16-24.95l.66-1.32,19.16,19.42c1.51.25,2.15-1.28,2.96-2.44l-19.88-21.13,1.65-3.16-1.58-1.25c-.71.35-1.45,1.19-2.17,2.17M142.89,168.73l1.32,1.38c-.13,1.26-.69,2.63-.72,4.21l-2.5-2.57,1.91-3.03M145.32,171.3l20.41,21.99c-.54.76-1.04,1.52-1.58,2.11l-19.62-19.95.79-4.15M168.57,191.77l-3.82,8.82,2.96,23.24-4.28.39v-21.66l-2.17-3.23-1.65-4.41c3.03,5.73,3.54,1.47,5.46,1.25l3.49-4.41M145.38,193.61c1.93-.08,3.58,1.84,5.14,3.56-1.48-.24-3.47-.31-5.6-.33-2.69.21-3.84,1.23-4.94,2.24l-.07-.26c.02-2.19,1.42-4.55,4.41-5,.36-.15.72-.18,1.05-.2M167.9,195.59l18.63,20.01c-.11.81.02,1.86-1.51,1.25l-18.37-18.83,1.25-2.44ZM146.75,197.82c1.41-.07,2.65.1,3.42.66-.91,1.22-2.8,1.45-4.41,1.97-1.66-.19-3.12.44-5.01-.86,1.29-.67,1.47-1.87,4.54-1.65.5-.06.98-.11,1.45-.13M151.29,199.4l-1.25,5.53c-1.78,2.23-5.76,2.51-9.15.86l-.72-5c1.3.69,3.59.71,5.6.92,2.58-.22,4.31-1.06,5.53-2.3M148.4,208.03l11.92,9.74-17.64,8.1-11.72-11.78,14.68-5.86c.89.04,1.8,0,2.77-.2M147.41,208.62l-13.76,5.46,9.35,9.28,14.29-5.53-9.87-9.22ZM146.62,210v3.23l-9.02,3.49-2.17-2.04,11.19-4.67M147.81,210.46l7.24,6.65-2.9,1.18-4.41-4.81.07-3.03M146.62,213.56l-.07,4.54-4.94,2.37-3.42-3.23,8.43-3.69ZM147.74,214.02l4.15,4.41-2.57,1.05-1.71-1.18.13-4.28M130.62,215.2l11.65,11.13v1.65l-11.72-10.73.07-2.04M130.56,217.77l11.72,10.66.07,4.81-11.92-11.19.13-4.28M147.61,218.63l1.32.99-1.38.59.07-1.58M146.55,218.7v1.91l-3.29,1.38-1.32-1.18,4.61-2.11ZM160.45,219.09v1.65l-16.98,7.57v-1.25l16.98-7.97ZM160.51,221.2l.07,4.28-17.05,8.43-.07-4.81,17.05-7.9ZM130.43,222.64l11.92,10.99.07,3.75-12.11-10.2.13-4.54ZM160.58,226l.07,3.62-17.05,8.36-.07-3.82,17.05-8.16ZM130.3,227.45l12.11,10.4.07,4.15-12.31-10.8.13-3.75ZM160.64,229.89l.07,4.02-17.12,7.7v-3.09l17.05-8.62"/>
        </g>
      </g>
    </g>
  </g>
  <path class="cls-47" d="M301.32,307.44l-20.58,25.66c-3.36,4.19-4.06,9.93-1.81,14.81l13.79,29.86c4.42,9.56,17.34,11.13,23.92,2.92l20.58-25.66c3.36-4.19,4.06-9.93,1.81-14.81l-13.79-29.86c-4.42-9.56-17.34-11.13-23.92-2.92Z"/>
</svg>