<?xml version="1.0" encoding="UTF-8"?>
<svg id="Layer_1" data-name="Layer 1" xmlns="http://www.w3.org/2000/svg" version="1.1" xmlns:xlink="http://www.w3.org/1999/xlink" viewBox="0 0 304 304">
  <defs>
    <style>
      .cls-1 {
        clip-path: url(#clippath-2);
      }

      .cls-2 {
        fill: none;
      }

      .cls-2, .cls-3 {
        stroke-width: 0px;
      }

      .cls-4 {
        clip-path: url(#clippath-1);
      }

      .cls-3 {
        fill: #e6e6e6;
      }

      .cls-5 {
        clip-path: url(#clippath);
      }
    </style>
    <clipPath id="clippath">
      <rect class="cls-2" x="62.5" y="155.3" width="214" height="65"/>
    </clipPath>
    <clipPath id="clippath-1">
      <rect class="cls-2" x="61.5" y="220.3" width="215" height="73"/>
    </clipPath>
    <clipPath id="clippath-2">
      <rect class="cls-2" width="304" height="304"/>
    </clipPath>
  </defs>
  <g class="cls-5">
    <path class="cls-3" d="M68.8,206.3v-37h9.1v3.4c1.2-1.5,2.5-2.6,4-3.3s3.2-1.1,5.1-1.1,4.1.4,5.7,1.3c1.6.9,2.8,2.2,3.7,3.9,1.2-1.7,2.8-3,4.7-3.9,1.9-.9,4.1-1.4,6.6-1.4,4.5,0,8,1.2,10.3,3.7,2.3,2.4,3.5,6.1,3.5,10.9v23.4h-9v-20.3c0-3.1-.5-5.4-1.5-6.8-1-1.5-2.6-2.2-4.7-2.2s-2.7.3-3.6,1-1.7,1.6-2.1,3c-.5,1.3-.7,3-.7,5v20.4h-9v-20.3c0-3.1-.5-5.4-1.5-6.8-1-1.5-2.6-2.2-4.7-2.2s-3.8.7-4.9,2.1c-1.1,1.4-1.6,3.6-1.6,6.6v20.5h-9.4ZM143.3,207.2c-4,0-7.2-1.1-9.6-3.3-2.3-2.2-3.5-5.2-3.5-8.9s.6-4.5,1.8-6.3,2.9-3.2,5.1-4.2c2.2-1,4.8-1.5,7.7-1.5s3.2.2,4.7.5,2.9.7,4,1.3v-2.3c0-2.1-.6-3.6-1.8-4.7-1.2-1.1-2.9-1.6-5.1-1.6s-3.7.3-5.6,1c-1.9.7-3.8,1.6-5.8,2.9l-2.7-7.1c2.1-1.4,4.5-2.5,7.1-3.2,2.6-.8,5.2-1.2,7.9-1.2,5,0,8.7,1.2,11.2,3.6,2.5,2.3,3.7,5.8,3.7,10.5v23.8h-8.8v-3c-1.3,1.3-2.8,2.2-4.5,2.9s-3.6,1-5.7,1v-.2ZM145.4,199.5c1.5,0,2.9-.3,4.3-.9,1.4-.6,2.6-1.4,3.7-2.5v-4.4c-1-.5-2.2-.9-3.5-1.2s-2.5-.4-3.8-.4c-2.2,0-4,.4-5.3,1.3-1.3.8-1.9,2-1.9,3.6s.6,2.5,1.7,3.3c1.1.8,2.7,1.2,4.7,1.2h.1ZM172.7,206.3v-48.1l9.1-4.2v25.8l10.3-10.5h10.7l-10.7,10.7,13.6,26.4h-9.9l-10.4-19.9-3.7,3.6v16.3h-9.1,0ZM226.7,207.2c-3.6,0-6.6-.8-9.2-2.4-2.6-1.6-4.5-3.8-5.9-6.7s-2.1-6.4-2.1-10.3.7-7.4,2.1-10.3c1.4-2.9,3.4-5.1,6-6.7,2.6-1.6,5.6-2.4,9.1-2.4s5.7.6,8.2,1.9c2.4,1.3,4.4,3.2,5.8,5.8,1.4,2.6,2.2,5.9,2.2,9.9s0,1.4,0,2.3,0,1.8-.2,2.7h-24.2c0,1.7.5,3.2,1.2,4.5s1.7,2.2,2.9,2.9,2.6,1.1,4.3,1.1,3.3-.3,4.6-.9c1.3-.6,2.5-1.6,3.7-2.9l5.2,5.4c-1.6,1.8-3.5,3.3-5.8,4.4-2.2,1.1-4.8,1.7-7.8,1.7h-.1ZM218.4,184h15.6c-.1-1.6-.5-3-1.1-4.2s-1.4-2.1-2.5-2.7c-1.1-.6-2.4-.9-3.9-.9s-3.9.7-5.4,2-2.4,3.3-2.6,5.9h-.1ZM252,206.3v-37h9.1v4c.7-1.4,1.7-2.6,3.2-3.5s3-1.4,4.6-1.4c2.6,0,4.9.9,6.7,2.7l-1.3,8.3c-1-.8-2-1.4-2.9-1.7s-2-.5-3.1-.5-2.8.4-3.8,1.1c-1.1.7-1.9,1.7-2.5,3s-.8,2.9-.8,4.8v20.3h-9.2Z"/>
  </g>
  <g class="cls-4">
    <path class="cls-3" d="M87.2,278.3c-3.6,0-6.8-.6-9.7-1.9-2.9-1.3-5.4-3-7.5-5.3s-3.6-5-4.7-8.2l9.6-3.6c1.2,2.6,2.9,4.8,5.1,6.4,2.2,1.7,4.7,2.5,7.4,2.5s5.2-.6,6.9-1.8c1.7-1.2,2.6-3,2.6-5.3s-.5-2.9-1.6-4c-1-1.1-2.4-2-4.1-2.8s-3.7-1.6-5.8-2.3c-2.1-.7-4.2-1.5-6.3-2.4-2.1-.9-4.1-1.9-5.8-3.2-1.8-1.3-3.2-2.9-4.3-4.8-1.1-1.9-1.6-4.3-1.6-7.1s.7-5.4,2.2-7.7,3.7-4.2,6.5-5.6c2.9-1.4,6.3-2.1,10.4-2.1s6.3.6,8.8,1.7c2.6,1.1,4.7,2.6,6.4,4.6,1.7,1.9,2.9,4.1,3.5,6.6l-9.5,3.1c-.8-1.7-1.9-3.1-3.5-4.3s-3.7-1.8-6.3-1.8-4.4.5-5.8,1.5-2.1,2.4-2.1,4.2.5,2.3,1.4,3.1c1,.8,2.2,1.6,3.8,2.3,1.6.7,3.4,1.4,5.4,2.1,2.3.8,4.5,1.6,6.7,2.6,2.3,1,4.3,2.1,6.1,3.5,1.8,1.4,3.3,3.1,4.4,5.2,1.1,2,1.7,4.5,1.7,7.5s-.9,6.7-2.7,9.3c-1.8,2.6-4.2,4.5-7.3,5.9-3.1,1.3-6.5,2-10.4,2h.1ZM130.9,278.3c-4.1,0-7.8-1.1-11-3.3-3.3-2.2-5.8-5.3-7.5-9.2l9.1-4.3c1.1,2.1,2.4,3.7,3.9,4.9,1.4,1.1,3.3,1.7,5.6,1.7s2.2-.2,3.2-.5,1.9-.9,2.7-1.7c.8-.8,1.5-1.9,2-3.3s.7-3.3.7-5.5v-37h10.6v37.4c0,4.1-.6,7.4-1.8,10.1s-2.7,4.8-4.7,6.3c-1.9,1.5-4,2.6-6.2,3.3-2.2.7-4.4,1-6.6,1h0ZM154.8,277.3l33.1-57.1h37.1v10h-24.6v12.6h13.5v10h-13.5v14.4h26.3v10.1h-36.9v-12.1h-16.7l-6.9,12.1h-11.4ZM178.8,255.5h11.1v-20c-.1.5-.4,1-.8,1.8-.4.7-.7,1.4-1.2,2.2-.4.8-.8,1.4-1.1,2l-8,14ZM237.1,277.3v-57.1h10.6v46.9h27.6v10.2h-38.2Z"/>
  </g>
  <g class="cls-1">
    <path class="cls-3" d="M71.4-9.9H0V9.9h71.4V-9.9ZM137.1-9.9h-37.2V9.9h37.2V-9.9ZM304-9.9h-71.4V9.9h71.4V-9.9ZM313.9,71.4V0h-19.8v71.4h19.8ZM313.9,137.1v-37.2h-19.8v37.2h19.8ZM313.9,304v-71.4h-19.8v71.4h19.8ZM232.6,313.9h71.4v-19.8h-71.4v19.8ZM166.9,313.9h37.2v-19.8h-37.2v19.8ZM0,313.9h71.4v-19.8H0v19.8ZM-9.9,232.6v71.4H9.9v-71.4H-9.9ZM-9.9,166.9v37.2H9.9v-37.2H-9.9ZM-9.9,0v71.4H9.9V0H-9.9ZM0,304h-9.9v9.9H0v-9.9ZM304,304v9.9h9.9v-9.9h-9.9ZM304,0h9.9v-9.9h-9.9V0ZM0,0v-9.9h-9.9V0H0ZM71.4-5H0V5h71.4V-5ZM137.1-5h-37.2V5h37.2V-5ZM304-5h-71.4V5h71.4V-5ZM309,71.4V0h-9.9v71.4h9.9ZM309,137.1v-37.2h-9.9v37.2h9.9ZM309,304v-71.4h-9.9v71.4h9.9ZM232.6,309h71.4v-9.9h-71.4v9.9ZM166.9,309h37.2v-9.9h-37.2v9.9ZM0,309h71.4v-9.9H0v9.9ZM-5,232.6v71.4H5v-71.4H-5ZM-5,166.9v37.2H5v-37.2H-5ZM-5,0v71.4H5V0H-5ZM0,304h-5v5H0v-5ZM304,304v5h5v-5h-5ZM304,0h5v-5h-5V0ZM0,0v-5h-5V0H0Z"/>
  </g>
</svg>