<?xml version="1.0" encoding="UTF-8"?>
<svg id="Layer_1" data-name="Layer 1" xmlns="http://www.w3.org/2000/svg" version="1.1" xmlns:xlink="http://www.w3.org/1999/xlink" viewBox="0 0 360 360">
  <defs>
    <style>
      .cls-1 {
        fill: none;
      }

      .cls-1, .cls-2 {
        stroke-width: 0px;
      }

      .cls-2 {
        fill: #e6e6e6;
      }

      .cls-3 {
        clip-path: url(#clippath);
      }
    </style>
    <clipPath id="clippath">
      <rect class="cls-1" width="360" height="360"/>
    </clipPath>
  </defs>
  <path class="cls-2" d="M267.3,312.7c-6.7,0-12.8-1.2-18.2-3.5-5.5-2.3-10.1-5.7-14.1-9.9-3.9-4.3-6.8-9.4-8.7-15.3l18-6.7c2.3,4.9,5.5,8.9,9.6,12.1,4.1,3.1,8.8,4.7,13.9,4.7s9.8-1.1,13-3.4c3.3-2.3,4.9-5.6,4.9-10s-1-5.5-2.9-7.5c-1.9-2-4.5-3.8-7.7-5.2-3.2-1.5-6.9-2.9-10.9-4.3-3.9-1.3-7.9-2.8-11.9-4.4-4-1.6-7.6-3.6-10.9-6-3.3-2.4-6-5.4-8-9-2-3.6-3-8.1-3-13.3s1.4-10.1,4.2-14.5c2.8-4.4,6.9-7.9,12.2-10.5,5.4-2.7,11.8-4,19.4-4s11.7,1.1,16.5,3.2c4.8,2.1,8.8,4.9,12,8.6,3.2,3.6,5.4,7.7,6.6,12.3l-17.7,5.9c-1.4-3.2-3.6-5.9-6.6-8-2.9-2.2-6.9-3.3-11.9-3.3s-8.3.9-10.9,2.8c-2.6,1.8-3.9,4.4-3.9,7.8s.9,4.3,2.6,5.9c1.8,1.6,4.2,3,7.1,4.3,3,1.3,6.4,2.6,10.2,3.9,4.2,1.4,8.4,3.1,12.6,4.9,4.2,1.8,8.1,4,11.5,6.6,3.5,2.6,6.2,5.8,8.3,9.7,2.1,3.8,3.1,8.5,3.1,14.1s-1.7,12.6-5.1,17.4c-3.4,4.8-7.9,8.5-13.7,11-5.8,2.5-12.3,3.7-19.5,3.7ZM97.7,310.9v-78.2h19.1v7.3c2.5-3.2,5.3-5.5,8.4-6.9,3.2-1.5,6.7-2.2,10.7-2.2s8.6.9,11.9,2.8c3.3,1.9,5.9,4.6,7.7,8.3,2.6-3.6,5.9-6.3,10-8.2,4.1-1.9,8.7-2.9,13.8-2.9,9.6,0,16.8,2.6,21.7,7.7,4.9,5.2,7.3,12.8,7.3,23v49.3h-19v-42.8c0-6.5-1.1-11.3-3.2-14.4-2.1-3.1-5.5-4.7-9.9-4.7s-5.6.7-7.7,2.1c-2,1.4-3.5,3.5-4.5,6.3-1,2.8-1.5,6.2-1.5,10.5v43h-19v-42.8c0-6.6-1-11.4-3.1-14.5s-5.4-4.6-9.9-4.6-8.1,1.5-10.3,4.5c-2.2,3-3.4,7.7-3.4,14v43.3h-19.1Z"/>
  <g class="cls-3">
    <path class="cls-2" d="M90.3,0H11v22h79.3V0ZM163.4,0h-41.3v22h41.3V0ZM349,0h-79.3v22h79.3V0ZM360,90.3V11h-22v79.3h22ZM360,163.4v-41.3h-22v41.3h22ZM360,349v-79.3h-22v79.3h22ZM269.7,360h79.3v-22h-79.3v22ZM196.6,360h41.3v-22h-41.3v22ZM11,360h79.3v-22H11v22ZM0,269.7v79.3h22v-79.3H0ZM0,196.6v41.3h22v-41.3H0ZM0,11v79.3h22V11H0ZM11,349H0v11h11v-11ZM349,349v11h11v-11h-11ZM349,11h11V0h-11v11ZM11,11V0H0v11h11ZM90.3,5.5H11v11h79.3V5.5ZM163.4,5.5h-41.3v11h41.3V5.5ZM349,5.5h-79.3v11h79.3V5.5ZM354.5,90.3V11h-11v79.3h11ZM354.5,163.4v-41.3h-11v41.3h11ZM354.5,349v-79.3h-11v79.3h11ZM269.7,354.5h79.3v-11h-79.3v11ZM196.6,354.5h41.3v-11h-41.3v11ZM11,354.5h79.3v-11H11v11ZM5.5,269.7v79.3h11v-79.3H5.5ZM5.5,196.6v41.3h11v-41.3H5.5ZM5.5,11v79.3h11V11H5.5ZM11,349h-5.5v5.5h5.5v-5.5ZM349,349v5.5h5.5v-5.5h-5.5ZM349,11h5.5v-5.5h-5.5v5.5ZM11,11v-5.5h-5.5v5.5h5.5Z"/>
  </g>
</svg>