<?xml version="1.0" encoding="UTF-8"?>
<svg id="Layer_1" data-name="Layer 1" xmlns="http://www.w3.org/2000/svg" version="1.1" viewBox="0 0 51 51">
  <defs>
    <style>
      .cls-1 {
        fill: #e6e6e6;
        stroke-width: 0px;
      }
    </style>
  </defs>
  <path class="cls-1" d="M13,0H2v4h11V0ZM23.2,0h-5.8v4h5.8V0ZM49,0h-11v4h11V0ZM51,13V2h-4v11h4ZM51,23.2v-5.8h-4v5.8h4ZM51,49v-11h-4v11h4ZM38,51h11v-4h-11v4ZM27.8,51h5.8v-4h-5.8v4ZM2,51h11v-4H2v4ZM0,38v11h4v-11H0ZM0,27.8v5.8h4v-5.8H0ZM0,2v11h4V2H0ZM2,49H0v2h2v-2ZM49,49v2h2v-2h-2ZM49,2h2V0h-2v2ZM2,2V0H0v2h2ZM13,1H2v2h11V1ZM23.2,1h-5.8v2h5.8V1ZM49,1h-11v2h11V1ZM50,13V2h-2v11h2ZM50,23.2v-5.8h-2v5.8h2ZM50,49v-11h-2v11h2ZM38,50h11v-2h-11v2ZM27.8,50h5.8v-2h-5.8v2ZM2,50h11v-2H2v2ZM1,38v11h2v-11H1ZM1,27.8v5.8h2v-5.8H1ZM1,2v11h2V2H1ZM2,49h-1v1h1v-1ZM49,49v1h1v-1h-1ZM49,2h1v-1h-1v1ZM2,2v-1h-1v1h1Z"/>
</svg>