<?xml version="1.0" encoding="UTF-8"?>
<svg id="Layer_1" data-name="Layer 1" xmlns="http://www.w3.org/2000/svg" version="1.1" xmlns:xlink="http://www.w3.org/1999/xlink" viewBox="0 0 70 71">
  <defs>
    <style>
      .cls-1 {
        fill: none;
      }

      .cls-1, .cls-2 {
        stroke-width: 0px;
      }

      .cls-3 {
        clip-path: url(#clippath-1);
      }

      .cls-2 {
        fill: #e6e6e6;
      }

      .cls-4 {
        clip-path: url(#clippath);
      }
    </style>
    <clipPath id="clippath">
      <rect class="cls-1" y=".5" width="70" height="70"/>
    </clipPath>
    <clipPath id="clippath-1">
      <rect class="cls-1" y=".5" width="70" height="70"/>
    </clipPath>
  </defs>
  <g class="cls-4">
    <g>
      <g class="cls-3">
        <path class="cls-2" d="M17.8,0H2.7v5.6h15.1V0ZM31.8,0h-8v5.6h8V0ZM67.3,0h-15.1v5.6h15.1V0ZM70,18.1V2.8h-5.5v15.3h5.5ZM70,32.3v-8.1h-5.5v8.1h5.5ZM70,68.2v-15.3h-5.5v15.3h5.5ZM52.2,71h15.1v-5.6h-15.1v5.6ZM38.2,71h8v-5.6h-8v5.6ZM2.7,71h15.1v-5.6H2.7v5.6ZM0,52.9v15.3h5.5v-15.3H0ZM0,38.7v8.1h5.5v-8.1H0ZM0,2.8v15.3h5.5V2.8H0ZM2.7,68.2H0v2.8h2.7v-2.8ZM67.3,68.2v2.8h2.7v-2.8h-2.7ZM67.3,2.8h2.7V0h-2.7v2.8ZM2.7,2.8V0H0v2.8h2.7ZM17.8,1.4H2.7v2.8h15.1V1.4ZM31.8,1.4h-8v2.8h8V1.4ZM67.3,1.4h-15.1v2.8h15.1V1.4ZM68.6,18.1V2.8h-2.7v15.3h2.7ZM68.6,32.3v-8.1h-2.7v8.1h2.7ZM68.6,68.2v-15.3h-2.7v15.3h2.7ZM52.2,69.6h15.1v-2.8h-15.1v2.8ZM38.2,69.6h8v-2.8h-8v2.8ZM2.7,69.6h15.1v-2.8H2.7v2.8ZM1.4,52.9v15.3h2.7v-15.3H1.4ZM1.4,38.7v8.1h2.7v-8.1H1.4ZM1.4,2.8v15.3h2.7V2.8H1.4ZM2.7,68.2h-1.4v1.4h1.4v-1.4ZM67.3,68.2v1.4h1.4v-1.4h-1.4ZM67.3,2.8h1.4v-1.4h-1.4v1.4ZM2.7,2.8v-1.4h-1.4v1.4h1.4Z"/>
      </g>
      <path class="cls-2" d="M21,34.3l29,24-1.9,2.3-29-24s1.9-2.3,1.9-2.3ZM50,12.7l-29,24-1.9-2.3,29-24s1.9,2.3,1.9,2.3ZM20,35.5l-1,1.2-1.4-1.2,1.4-1.2,1,1.2Z"/>
    </g>
  </g>
</svg>