<svg width="101" height="71" viewBox="0 0 101 71" fill="none" xmlns="http://www.w3.org/2000/svg">
<path d="M98.5969 10.8686C97.407 6.64445 94.1129 3.33155 89.87 2.16045C82.0574 0.0718772 50.6506 0.0718777 50.6506 0.0718777C50.6506 0.0718777 19.3033 0.0217765 11.4093 2.16045C7.18837 3.33468 3.8786 6.64445 2.70124 10.8686C1.22014 18.8753 0.484289 26.979 0.518734 35.1204C0.503077 43.2085 1.2358 51.2997 2.70124 59.2563C3.8786 63.4804 7.18837 66.7933 11.4093 67.9832C19.2219 70.0718 50.6506 70.0718 50.6506 70.0718C50.6506 70.0718 81.9792 70.0718 89.87 67.9832C94.1129 66.7933 97.407 63.4836 98.5969 59.2563C100.034 51.2997 100.736 43.2085 100.685 35.1204C100.736 26.979 100.05 18.8753 98.5969 10.8686ZM40.618 50.1098V20.0651L66.7611 35.1204L40.618 50.1098Z" fill="#E6E6E6"/>
</svg>
